<mxfile host="app.diagrams.net" modified="2021-09-16T21:32:17.537Z" agent="5.0 (Macintosh; Intel Mac OS X 10_15_7) AppleWebKit/537.36 (KHTML, like Gecko) Chrome/93.0.4577.63 Safari/537.36" etag="j8CNlMKlnJBWKcGYn8Bx" version="15.0.6" type="github" pages="4">
  <diagram id="rNGtP_fcMccz2o7l_gVG" name="Page-1">
    <mxGraphModel dx="895" dy="1395" grid="1" gridSize="10" guides="1" tooltips="1" connect="1" arrows="1" fold="1" page="1" pageScale="1" pageWidth="413" pageHeight="291" math="0" shadow="0">
      <root>
        <mxCell id="0" />
        <mxCell id="1" parent="0" />
        <mxCell id="FdhFarl18-zCwnV5q0Lz-13" value="" style="group" vertex="1" connectable="0" parent="1">
          <mxGeometry x="59.9957142857142" y="-750" width="30.158730158730158" height="40.15" as="geometry" />
        </mxCell>
        <mxCell id="FdhFarl18-zCwnV5q0Lz-14" value="" style="group" vertex="1" connectable="0" parent="FdhFarl18-zCwnV5q0Lz-13">
          <mxGeometry width="30.158730158730158" height="40.15" as="geometry" />
        </mxCell>
        <mxCell id="FdhFarl18-zCwnV5q0Lz-16" value="" style="endArrow=open;html=1;edgeStyle=orthogonalEdgeStyle;rounded=0;endFill=0;startSize=6;endSize=2;strokeColor=#FFFFFF;fontFamily=Manrope;fontSource=https%3A%2F%2Ffonts.googleapis.com%2Fcss%3Ffamily%3DManrope;" edge="1" parent="FdhFarl18-zCwnV5q0Lz-14">
          <mxGeometry y="13.774714454509649" width="50.26455026455025" height="50.25" as="geometry">
            <mxPoint x="3.0158730158730167" y="25.83471445450964" as="sourcePoint" />
            <mxPoint x="11.05820105820106" y="16.789714454509646" as="targetPoint" />
            <Array as="points">
              <mxPoint x="11.05820105820106" y="25.83471445450964" />
            </Array>
          </mxGeometry>
        </mxCell>
        <mxCell id="FdhFarl18-zCwnV5q0Lz-17" value="" style="endArrow=open;html=1;edgeStyle=orthogonalEdgeStyle;rounded=0;endFill=0;startSize=6;endSize=2;strokeColor=#FFFFFF;fontFamily=Manrope;fontSource=https%3A%2F%2Ffonts.googleapis.com%2Fcss%3Ffamily%3DManrope;" edge="1" parent="FdhFarl18-zCwnV5q0Lz-14">
          <mxGeometry y="-14.724694761717211" width="50.26455026455025" height="50.25" as="geometry">
            <mxPoint x="11.05820105820106" y="12.410305238282787" as="sourcePoint" />
            <mxPoint x="3.0158730158730167" y="4.370305238282789" as="targetPoint" />
            <Array as="points">
              <mxPoint x="11.05820105820106" y="4.370305238282789" />
            </Array>
          </mxGeometry>
        </mxCell>
        <mxCell id="FdhFarl18-zCwnV5q0Lz-18" value="" style="endArrow=open;html=1;edgeStyle=orthogonalEdgeStyle;rounded=0;endFill=0;startSize=6;endSize=2;strokeColor=#FFFFFF;fontFamily=Manrope;fontSource=https%3A%2F%2Ffonts.googleapis.com%2Fcss%3Ffamily%3DManrope;startArrow=none;" edge="1" parent="FdhFarl18-zCwnV5q0Lz-14">
          <mxGeometry y="13.774714454509649" width="50.26455026455025" height="50.25" as="geometry">
            <mxPoint x="27.142857142857167" y="26.024080505198754" as="sourcePoint" />
            <mxPoint x="27.142857142857135" y="25.83471445450964" as="targetPoint" />
            <Array as="points">
              <mxPoint x="18.0952380952381" y="25.83471445450964" />
            </Array>
          </mxGeometry>
        </mxCell>
        <mxCell id="FdhFarl18-zCwnV5q0Lz-19" value="" style="endArrow=open;html=1;edgeStyle=orthogonalEdgeStyle;rounded=0;endFill=0;startSize=6;endSize=2;strokeColor=#FFFFFF;fontFamily=Manrope;fontSource=https%3A%2F%2Ffonts.googleapis.com%2Fcss%3Ffamily%3DManrope;" edge="1" parent="FdhFarl18-zCwnV5q0Lz-14">
          <mxGeometry y="-14.724694761717211" width="50.26455026455025" height="50.25" as="geometry">
            <mxPoint x="27.142857142857135" y="4.370305238282789" as="sourcePoint" />
            <mxPoint x="18.0952380952381" y="12.410305238282787" as="targetPoint" />
            <Array as="points">
              <mxPoint x="18.0952380952381" y="4.370305238282789" />
            </Array>
          </mxGeometry>
        </mxCell>
        <mxCell id="FdhFarl18-zCwnV5q0Lz-36" value="" style="group" vertex="1" connectable="0" parent="FdhFarl18-zCwnV5q0Lz-14">
          <mxGeometry y="10" width="30.158730158730158" height="30.15" as="geometry" />
        </mxCell>
        <mxCell id="FdhFarl18-zCwnV5q0Lz-37" value="" style="group" vertex="1" connectable="0" parent="FdhFarl18-zCwnV5q0Lz-36">
          <mxGeometry width="30.158730158730158" height="30.15" as="geometry" />
        </mxCell>
        <mxCell id="FdhFarl18-zCwnV5q0Lz-38" value="" style="whiteSpace=wrap;html=1;aspect=fixed;fillColor=#001135;strokeColor=none;connectable=1;allowArrows=1;fontFamily=Manrope;fontSource=https%3A%2F%2Ffonts.googleapis.com%2Fcss%3Ffamily%3DManrope;" vertex="1" parent="FdhFarl18-zCwnV5q0Lz-37">
          <mxGeometry width="30.148963159878864" height="30.148963159878864" as="geometry" />
        </mxCell>
        <mxCell id="FdhFarl18-zCwnV5q0Lz-39" value="" style="endArrow=open;html=1;edgeStyle=orthogonalEdgeStyle;rounded=0;endFill=0;startSize=6;endSize=2;strokeColor=#FFFFFF;fontFamily=Manrope;fontSource=https%3A%2F%2Ffonts.googleapis.com%2Fcss%3Ffamily%3DManrope;" edge="1" parent="FdhFarl18-zCwnV5q0Lz-37">
          <mxGeometry y="13.774714454509649" width="50.26455026455025" height="50.25" as="geometry">
            <mxPoint x="3.0158730158730167" y="25.83471445450964" as="sourcePoint" />
            <mxPoint x="11.05820105820106" y="16.789714454509646" as="targetPoint" />
            <Array as="points">
              <mxPoint x="11.05820105820106" y="25.83471445450964" />
            </Array>
          </mxGeometry>
        </mxCell>
        <mxCell id="FdhFarl18-zCwnV5q0Lz-40" value="" style="endArrow=open;html=1;edgeStyle=orthogonalEdgeStyle;rounded=0;endFill=0;startSize=6;endSize=2;strokeColor=#FFFFFF;fontFamily=Manrope;fontSource=https%3A%2F%2Ffonts.googleapis.com%2Fcss%3Ffamily%3DManrope;" edge="1" parent="FdhFarl18-zCwnV5q0Lz-37">
          <mxGeometry y="-14.724694761717211" width="50.26455026455025" height="50.25" as="geometry">
            <mxPoint x="11.05820105820106" y="12.410305238282787" as="sourcePoint" />
            <mxPoint x="3.0158730158730167" y="4.370305238282789" as="targetPoint" />
            <Array as="points">
              <mxPoint x="11.05820105820106" y="4.370305238282789" />
            </Array>
          </mxGeometry>
        </mxCell>
        <mxCell id="FdhFarl18-zCwnV5q0Lz-41" value="" style="endArrow=open;html=1;edgeStyle=orthogonalEdgeStyle;rounded=0;endFill=0;startSize=6;endSize=2;strokeColor=#FFFFFF;fontFamily=Manrope;fontSource=https%3A%2F%2Ffonts.googleapis.com%2Fcss%3Ffamily%3DManrope;" edge="1" parent="FdhFarl18-zCwnV5q0Lz-37">
          <mxGeometry y="13.774714454509649" width="50.26455026455025" height="50.25" as="geometry">
            <mxPoint x="18.0952380952381" y="16.789714454509646" as="sourcePoint" />
            <mxPoint x="27.142857142857135" y="25.83471445450964" as="targetPoint" />
            <Array as="points">
              <mxPoint x="18.0952380952381" y="25.83471445450964" />
            </Array>
          </mxGeometry>
        </mxCell>
        <mxCell id="FdhFarl18-zCwnV5q0Lz-42" value="" style="endArrow=open;html=1;edgeStyle=orthogonalEdgeStyle;rounded=0;endFill=0;startSize=6;endSize=2;strokeColor=#FFFFFF;fontFamily=Manrope;fontSource=https%3A%2F%2Ffonts.googleapis.com%2Fcss%3Ffamily%3DManrope;" edge="1" parent="FdhFarl18-zCwnV5q0Lz-37">
          <mxGeometry y="-14.724694761717211" width="50.26455026455025" height="50.25" as="geometry">
            <mxPoint x="27.142857142857135" y="4.370305238282789" as="sourcePoint" />
            <mxPoint x="18.0952380952381" y="12.410305238282787" as="targetPoint" />
            <Array as="points">
              <mxPoint x="18.0952380952381" y="4.370305238282789" />
            </Array>
          </mxGeometry>
        </mxCell>
        <mxCell id="FdhFarl18-zCwnV5q0Lz-3" value="" style="group" vertex="1" connectable="0" parent="1">
          <mxGeometry x="230.02000000000007" y="-700" width="90" height="40" as="geometry" />
        </mxCell>
        <mxCell id="FdhFarl18-zCwnV5q0Lz-1" value="" style="rounded=1;whiteSpace=wrap;html=1;" vertex="1" parent="FdhFarl18-zCwnV5q0Lz-3">
          <mxGeometry width="90" height="40" as="geometry" />
        </mxCell>
        <mxCell id="FdhFarl18-zCwnV5q0Lz-2" value="" style="shape=image;verticalLabelPosition=bottom;labelBackgroundColor=#ffffff;verticalAlign=top;aspect=fixed;imageAspect=0;image=data:image/png,iVBORw0KGgoAAAANSUhEUgAAAtIAAACrCAYAAABL2HuKAAAACXBIWXMAAC4jAAAuIwF4pT92AAAAGXRFWHRTb2Z0d2FyZQB3d3cuaW5rc2NhcGUub3Jnm+48GgAAIABJREFUeJzsnXl4m9WV/7/nSt6y2ZJtQsK+lq1sCZAUCJIDoaFQ2tIAHZYWSklZYscpHWba30zVmU5bBhpbSghNNzqlpZC0dKEFCsRWwpqwQ9mXpiyBEEtynM229N7z+0N24iReZOt9z5Wc+3mePE9iy/d75Eh6z3vvOd9DsFgsFsPsO31hxdZyXzuAUilNBm5NtTZcL6UnSTAUvQqEn8qo8aeTrfP/JqOVpSrUdLwi9ZykZi/E6shEfN5rJrSLgkhEBVcGHgQw04D648nWhlOlRQN10X8jxg+k9IjwXKKl4UQpPcvgKNMBWCwWy5Yx/qkQTKIBgIDLg7NjEyQ1xSBME1JiJ126RkhrO6R806U1e9GkP2tKuxgIrgxEYCaJBoieMKLLYu+3Xj0zz9PSLzaRtlgs5tHCF6Is47mL/8WArgAk8/skvLbx0WtTIlp9kU5c+kDAeaa0C52aUFMIwLeMBaDxpAlZAk4RFjTyPC39YxNpi8ViHII2khgR06gr7cjusvORImKGdsYIbCyRBjB9fOiWGoP6BcnEWbftpUndCcBnMAzxBLPyzKaDAewtqakyNpEuJGwibbFYCgCS3dHZDh8dCEVPM6PtEV2YBqnPdmLxC/r4mYurARwmrdsHX6kqmW1Qv/CIRFS6u/vXACYZjGJdMl7/vrSocpT0TV1iw6r6t4Q1LYNgE2mLxWKUqrrFBwDYx5S+IlxjStsTBMseWMvXpPq1ngaApHX7wky2vKMP1auC3wLhLLNR0GNGZJlE6/WJ8ARALKlpGRybSFssFqOQdow1jgEAA1/ca2bzRJMxuAqLlclsStVOelVIazsk9/wGgWdjdqzMdBSFQGBm7HRm/o7pOAD50xEAIBJ+PRqqA7cMjE2kLRaLUUiZaxzrodTR+KrhGFyCCUQnC4mtxvILHSGtHZDsDuAAjAt26xmmgzDNhLMXBknzrwH4TccCpcVPR/advrACoGNFRZWyjh0Fhk2kLRaLWQw6MOwIgeZizjKTTVKuUBOOHg6gWkhO/oIeiSgAJ4nr9gPrPb28g8nX7b8dwP6mIwHQPcGpEvcVN2DbqbmMnxbUs+SATaQtFos5ZsfKCDjedBgA9g8kPjrHdBD5wqzEdmvZgENCoKX6aAAF4f1NwPmmYzBJILzoBgIXiqf2c2vjV3SKq8rbdv49eX99h7CmZQhsIm2xWIwR7OIpDBRErSlpXfRNhyxXr8kZTssPYvHpQijr6GX/wIxFnzQdhAmq62InE/h7puPYDrMZG0Zm4dejmedpGRybSFssFnNo6QvRIBB9unZG1KStmgsIDWIB3tgUv6FNSKsvxsuA+qLUnjflsCrUVMXMd0F4EukQmGnAI9lBLMTKNhoWIDaRtlgs5lBiiV8ukOPjr5kOYqRMnHXzWABHC8mZuqAXzo0XAKY9bcohk4L6BYCDTEfSF/bL2zD22HZOltQkkm+otAyNTaQtFos5CqDRcGfoygNDt5ebjmIkZDLlp0DIPYENjCiuCjVVAThcWncITqoN3So61c4kwVCsHoTPm45jFz5MPdzwrrSoAdvO9rbWhjeENS05YBNpi8VihJqzFk0GsK/pOHahehNtvNB0ECOCHblBLCy/A6ig5CY25o5yyCn6JtVcqAlHpxDhJtNx7I6h+mhp205mO4ilQCm0DyWLxbKHoB3nVNMx9AeDirPpkMXKZLa0c/JlIa0dUAHV0/dhTyjvqA3dOk4DvymUxuCdIPmbOgAAC5cZmXqeliGxibTFYjGDXOI3XKbVhKNTTAcxXJggNIiFVyMeycho9aUwXy/EPGvyeUvHmI7DSzRllgL4hOk4+oNNTPrL2nYeJ6qpzExutAyNTaQtFosZuCAm1PWLJnzddAzDobIudggAkTHnDBPOAUwokEEs/TBm2+bOkOkgvCJQF/06A/9iOo4BSFeML39WWtSAbadmqhC3m7Tkhk2kLRaLPHMipSA+wXQYA8K4ZMLZC4Omw8gVpQX9lQ00GgbDTUcBCEjr5ori0VneEQhFjyHGQtNxDAjj+XX3zt0qritv2/lK6uG5G4U1LTliE2mLxSJOdVvVCQAK2R2jwp/2X246iJwhsbIHTqcNHKWzKsiyjl6Y8NmeXfNRw8RZN48lhWUAKkzHMhAm3GMAyNt2mnqelpywibTFYhGHSW6U9UhhxnXFkhyR0KASBr29+ZH6DRJaO0GFWwbUw+SauubCPWEZAd3psiVgHGk6jkEx12go7NhhGw0LGZtIWywWeQrOP3p3CHxodThWZzqOodh3+sIKAMfKqJkaUVyYjYZ90VCjZsphsC56BYEL/kRGZ0i+zGjGj/aDtG2nsjvShYxNpC0WiwEK08psVxgoeCu8zRXqJAAlMmryzgHB2bEJABf2zigAZhoVddI1MxcfDkbUdBxDwx9vXDXvH+Kyfp/0TV178vTka8KalmFgE2mLxSJKzelNkwDsbzqOHDk/GIoV2tCYnSBBG0F2lPyOdBcKcRDLbhD4hEJ/rQzFgaHby7V2lgEYbzqWoWBSjxsSFk6kaTUiES2raRkOBf/hZLFYRhfs9xXFbnQPfii+ynQQg0FyZTJb21XyJSGtHRRBGVAPxMBnTAeRDx3UsRjS/sgjxYR/NCBv20nWP7rQsYm0xWIRhbk4yjq2w7gaU5YKlU6MAMIpMjJ4yswgluJ5vRBx0ZZ3BMPRCwF81XQcucJKy5+OzI6Vidt2sqm+BEuu2ETaYrHIQkWzw9jLpOD4rvNNB9EfVXWLDwAwWUSMYeCCzgRITWzMHwLOrA3dOs50HMOlNrTwUAA/NR3HMMiU+dPPSIsGt0HatpOddKkdxFLg2ETaYrHIkd3ZPdF0GMOGdEE2HZJ2RvUglurQ4k8AKJrBOAyUacrMNB3HsJgdK8uQ/24AE0yHkisMenH9g9/cIi6shDcBCK9tfPTalKimZdjYRNpisYhRXbXteABjTMcxfKguGF54tOkodoUEL+yK/aultHphJTix0SUYxTXlsLqTFxK4yG5uDZU7iPtHmzgFsgwXm0hbLBY5xDve3URdbTqC3ZC7sL+zIX7dR0JaOyieRsM+8HmIRIri2hoMN1/AwLWm4xg2bKoBT7he3zYaFgVF8Wa3WCyjg6JrNNwJ+vLEWTePNR3FdmbHygg4XkKKYMghgVCErxfaq3pl1UmmoxiKwJnR/QH6iek4RoJW8jaMNWctmgxh207WdqJhMWATaYvFIkgx70ijMp0uvcR0EL0Eu3gKA2UiYgbqo2tOvWk8GEdJ67qBpgIfzjJlaQll6C4UUf15H9o2tsx7R1pUZwT7EbJsStVOelVY0zICbCJtsVhEmDjrtr0AHGQ6jjwpnGNwwbIH0vI7gFxafjIAn7SuGxBQ0OPCgxM6bwIV5+kQMZ7IWnYLI1+WthrLL3SENS0jwG86AIul2Jk46+axnVvHlpK/q5L9u9+cso/baUs5b3z0mnYjF4ACIdPd+SlQ0d+7Hxec2TQ9uaKxAI5caRog8nLa1labeFFCaCeIpoOL9O3C+GTljEUHGRlhPQSBcPQcAPNNxzFiyFADnrxtZwF8xhQe26+3pXoCq/T2G+1yVb65W6uu1MNzN0rHZBNpi2UIakO37s2+zJGa+VBiOpQZh4EwCcDeAPZKpzHGV5IGoID+9g8cACVpBMMxANF2ACkASSJ8CI33mbCOCGsBet3Rzhvt8cZ2sScniaJpMnmft7BW16AwLnIyF3bG01ge6RbR6ivLXMxlQPD7nc8AWGw6jr5kR5jz/wEg07GMFFIG6vWnLC0BOkWdTdhUX4JBKk9bEvD7M1OY+GAm7A/G/gQcgGxt+kQAFek04CtJZ/cQnB0bM2mnGwSgOhztYmADwB8B6h8Av8ZErxLhheSKea96sZllE2mLpQ+Vpy0JqJLMp4j4JNI4kQlTHGQmQwMAZfPA/C5BVT1/DmLesVZ2442hSCEYjq4H0zsgvZZBa8H0TyK9lhx+l5zu99seu3FTXhGYoqgdO3aggAsnzrrthvUPXvOxqRhqzlo0WWf0fiJiRpwDmICYyMRGr2Cm81BIiXQo4gfpuwCqMR1KHjjk+J+SFq2u2nY8a5K07eQMp0f3IJY5kdKqRNU0BToZTFMZmEJIH9qb5Y403e3pG9kXoH0BnppdiwEGqsOxDZpijynoFUrrBzbEF7zlxlOxibRlj6Yq1FRFyjebWJ8BqNOA9JEAFLhnppoZJoJ4IkDTCej5RCGwj8C+cgTD0S0A1jNIE1jkGIscfVliVePIG19CET8DU1wMyRgMlHV3p68AcJOpGHSaPyW1p0hQ4ol07YzYoQ5QzAkfAIQDZy6tNHHU3B/VCPw3A6eajiNPXtoQv26zuKr8JsAbm+I3tAlres74mYurSzhTx0znURvOQ3ZTCQCLfJwxUEvMn2PQ5xzyIRiOvgPgYRA/7NMl94/0tWUTacseR3DGj/YjX8nnGfxZADPAXJLdGi6auoOxAA4muXg7E2N9eXXJ16jKYzWj6EYnDwQRX4M5y24x1gykIFcmQxnxQSzax9OLuPqglxLKdJ0F4HemAwmGop9mwr+ajiNfiM2UO2RtO0Vfj6OmrKMq1FRFRP9CrC6Fdk4BSBXQO/tgAFeD6WqHMluC4egyMP0kGa8f1u/fJtKWPYPZsbJgl/4sgS5nxqcZbF/7ufM07q/vymcBh2ma4IdnGkCJxxoHBNo+PDsF3OexTv8wS5U9vJtoWfCBkFYfRkcZEBPOg+FEeq+ZzRMzGrdjNLh0kaGJhsKvR+Zi949mqqqLnk5MVxHwRQAVRdBnPxbAFSC+IhiOvkiMn2h/+a9zOVEq/jeWxTIIVXWLDwiGmpuCnfwhmJYx41zYG8hhkv/FSxFJWW1tA7BIQkgRrpHQ2Y0pS0sgVSZDeFxEZxcYxTiIZXcIfC5CEXOfN5GIymj6DbKN0UUPKb/4Tq0J20424NvuClOWllSHYl8JhmOvKqaVBFwGoMJ0WCPgWCYsJqfzH4Fw9F/3nb5w0OdgE2nLqCQwY9EnA+HorxQ7b4JoPoCA6ZiKFQI9lu8aWq7G8Cn2IQog47UQM86pnLFI3Be7umrb8ZC6OGn5C3rP9MhjpHU9IhhAwNjuenBl1XcAzDSl7zKJthXXvSktmunu/JSw5JZ2Tr4srJkfcyKlwbrmrwUndL7OxLcD+ITpkFwiQMBNW8t9bwTDsSsxZ1m/vvY2kbaMKirPbDo4GI7+jnz6hZ67Ya+P+Ec9PpWfa8P40C01BD7ErXgGg4AnUw83vAvGvQJyyq/01QI6O6OV2G4tGXDs6EqXTcUoOjVS2fIOcarrFtUB9G2PZRIer9+X1UZ8+JV0mRGvRjzi+UaAK0QiKhiOXRlsC7wJpp+g+AduDcS+AP880PbRwz2j4nfCJtKWUcHEWTePDdZFIz5HvQzgAoyCTqWCgPDmxyvmr89nCb8qnQ6p/4+eI1HlkynvYMJVB4ZuL5fQ2q4JLXJhJ6ArUa6el9Dqiw8svQPoKWxgyuHEWbftxazvgLeTIdME/MjD9XeCyEzdMLNYWVpWz4BLzkioCUenBFcGHgf458j6PI96CBzijH4+ULdodt+v20TaUvQEQ9FPp9Olb4DxHQCiSc1ox5WmF8lR1j61GgDaVjS0ApCYxlezEZsuENDpg8wOGQPP5NtkOhI0INVImUb/I5Tc5oja0MJDBXSyRCIqne6+A8BuO2duQqAbNEhu59RAmVFPfbusbSfrgm40rDxtSSAYbo5qYDXk3qsFQ9ZCT/+1uq75h4hEFDCKjs/wLNcijfkAzgJQbTocywAwukH4b5xCd+a71IGh28s3qY0RZnwT9qbQEwicd300mKcL7UevbXto3rodsrSEiH/stSiRvgbAb7zWAbI7jel0t8zxqaEdQJKa2Ag82/N5dLrXQg6p8wA0ea0DANXxwL8zYZbHMssSrfWxYCh6j9B7W3MFxAeU9Nh2jhWU5LSjxO0mcyUQjp5D6L4doL1Mx2IYYqYbq1cFjnZCTZeNjkR6De+HNB5BdpSkpZDJfugG812mOrToiA7qWA6m0dKUVJCwo/JLpuYs81Hbhye5FM7g7NLpXjG+7I7OzZ3fhwuvtyGET62pazqxraXxWW91ehqfSOie0cAOYGVd7BAwTxQRY34ChHcB8jyR7ply6HkiHQzFpjHxdzyWeQPl9DUAAAntSBJeTt5f3yGi1QfWSmoTIKsHenvzI/Ub5BRzZE6kNNgW+CGA+QDZsskemHGuInV38e/iPcrjexqLbBJdHDyCf+K2fBYIhBedyqQfwejp7C9UOlJ1iby6x6vaPjoGEBrEskvit+7euVsB/FJEmkmo6VBJHqWKJ9JKy5UBAXhSM/8BApOYiDBj/MzFnp6UVp62JADiu+Btg/UWwPlC8v76jqq6xQfA4/KR7TDMlDso0dcj3LAadZvKGYsOCrYFVgJohO092pX1Clxf3In0MvahBL8BcJzpUCw50Y4MLsOFNOK6xOpQ7CsE3YLiHx9cDDyOSETnswARG3WYcIiWAMjrOeSofkngzKWV3suI+SuvS8br3xfS2oHg64X99ER7vHEtgBcE5Hx+1h6WWzCpkvTt8HhDicDXJlsXvAwApB25JjxTvsos7Wcu75IzGMFw89k+n34BcuVWxUQbFNW1tc5/vbgT6QPQDJixFrKMAMY1OJX+OdIfD4RiN/Z4VJa6GJVlQPKvkSWhRsOBHCY2ttS/DeB+gRDGKd15uacKc5b5WKzxKX/v8BGpyl2w16Uebni3R/UPEoLE2rNrVbAu9g0CzvdqfQBg4NZE6/xf9f6bBHdrSedZYjYCxoduqeHsCGkx8i6lc5HqUPTLAN0LYLzpWAqQDsVqdnJF/StAMTdoreZGANebDsOSI4yfYhrdNdIfr66LziPiH7oZkmVwXGk0FJpQN7jDBMtY4QHXAOzZ0WfV+o+OhVSZjIGdsZ7pYccKyW1PWNiRSaQBOqdnKqWrVM9sPgmM/3F73V1Ykyqnb+z0FTk3nvZEKPGGkNZ2RG07s2xtV8mXBPUGJLtphdth5zD0x1ZNfF5bfN7TvV8ozkR6NX8GwM2mw7DkzFvYhgUj/eFgOHo1M6JuBuQy3QC2mg7CZRzq7syrS37C2QuDAA5zKZ6hGDDxS7Y2PAjgNc8jYBxZE2o+w6vlyafljpmVvAXX5gp1EqQu3H1KBVKr5r0EQCJRq6yp6jzNzQWrQk1VrOlueHtKl3QcdfFON6qzY2UEHO+hZl+ezLfEbEQI2nYCAAFPmR/EwhQMN/+4Z9PK1kPvAgFdIPp8e8v8VX2/XnyJ9BN8IoC74a3RvMU9uqBwIcK0eSQ/HAw3XwDgNph/U28CsAKMW5jpUnbUscqv9ikfVz422dpQlmxtGJusSZWVlJROVOAjAFwExi0ErASwzXDsI+Gltsdu3JTPAr5u3zSIDWIZbAeVmAhLJMLQpK7xbnWxCWvdE5yq54S0tkNyY+TBvMsROuPPErpau1uKqIh+Dm+nyWkmdenGVfP+0feLwS6ewkCZh7o7YFP10XL1+lk9Qw2VfQjWLboZoLmm4yhQHCa+LNlS/+Cu3ygu+7vVXA3gL4Cor6MlHwiNOIlGdFEOzowdBc23w9wN3ysE/IUUHmhrL38Uz8xND/ro5ZHu9cDHyP55HcAyIOt3vZE66gi4EsDnIHETyHiIfXwDaUwC0WRo7A+ifQDeB1k7uJKeP72lApXY+ffckm8IxDxdzCkp4wx6saWuzl9yafn3AEzwOJIvVNct3CfRsuADtxcmwjTv/SUAAM+tjV/RKaLUF6LpYJEnmB7bmX421fcrCn8A4wYB7fOBkZ/O9aW6LjqPGV9wY60BIfx3qmXe7j0Gkru1yoCfuaRtZy+mGip7CISj3wfzN4Z+5B4JA3R1sqVheX/fLK5E2odaOHgXMjt8FZCbkrdrEjMaeAOMb+EU+v1Ifjg4OzYBnXwPzDQ6rIDim5Ir5j/kxmI9Scl9AO4LhKLHKMJiBjwrAQAAEM4iTQuSrQ1f8VRn0BjEdhjXJVd9473BHtD22I2bAuHoHQRc53Esfmb/VwH8l5uLjp+5uBrakZmOx2YsuIj5ZBEhxvPvP7Fgp2tIckbqyeDKwIcAJnmsfnD1jKYjE6saX81nkcDM5mNZ4ya3ghqAFcnqSf/d/7domoBrIACw0+1/SkKoL1UbPvgkSAn1I2RR7Dc2iKU6FP02A/9uSr/AYSa6LtVS/4uBHlBcifRUeg3WhmXkLGMfJnm+IwdUQGMqbcxrjU7+BYBPuBNQzqwmxfMSK+Z79sGdijf8HZFIXTBe9V0Q/T+vdHr4crAuujLZ0nC7xzq7E4korITUIJbHc3mY30HU8eFaeF5uwnMxZekPhjzBGAZ+JzMdJDYIQXxnrCrUdCCkPImpnxuFSEQj3PxniWNt7VPnARhxIl0bunWcozPLkN3s8Qh6rzuDL2H5hQNZlQpdh+mVjY9emxr6cS6rKiV1+tPLOxvi130kqthDdSj2FSb+ngntEbINQAZCm2wMujHVUj/o7IviSqQt+ZH1bxb/UBougXDsMwBfICjJYHw3WTvpe4NcONwjEtFJ4D+C4WgKwI881WI0V9ctfNCLUoPBCLRUHw2f9t5XGQB0bg4TG1Y1vBkMRR8G4SyPI5pcXdl5bgJwzQ2CIDRBDll/ZSmtXkj5pMo6wDzg8/sDAM8Tacpatv7vSH9eU+bH8HaTIc2gL21+ZF6/E/Zqzlo0WWf0fh7q98GMr7KUbed2PQM3rwBQHW4+BeAfm9AeBAfASyA8zcAzStNbRPq98k797k4nSXOW+SZ0vF9JDlX5tO9QYj2VmaaCMA1unSwxfy8VbxjS2MIm0pbCYk6klBLcJLUbQEAXgy9JxuePqAQlH5KtDQuDddHpYHzRQ5kJmn03Aqj3UGM3yO9M89AJbieYfDlfhFjRImL2OpEGa1wDFxNpEEk1Pn24w19ZDmI9TaovlaH7fb0kOypaghM6UwACHocwfXzolppN8RvahvuDwXD0agYu8SKoXoh4QbJl3oDWlzrNnxJr/TbVaChk27kdA/XRNac3TdKgeyDVNDoI2esw/sLMf8wg80BO743lFzodQBLZP+8A6GkCZKquW3SSZv4cAV/ASG86CdFk6/z/yOWho60u11LkBNoC88EylmkEdGnQBclW+SS6F631N5G1z/MMAr42cdZte3mpsRsslvilx3amn831wakZyb8i+6HrLYQza8LN7uwaRiIKECqTMTWiWO71sr5nmuHuPDM3TTLDe3yl5D9nuD8UCEWPAdDkQTx9oLsTLfMXD/oQybHZ5MgPYsmOcpey7QRgYODM7FiZ9qt7IFVONTD/BFFjN6f3TbY2fDEVn//rkdxg7gxxoqV+Taq14VvJ1oYjlEIdgN8jWw6SK79IttQ35vpgm0hbCoaaU28aT8C35RT56lRr/V/l9HanPd64lr2/eJd3Z7q97e7fFRK72D63a+PYoEQiGoRB691cgrRL9baBluqj4b3bSBaSL+s4MHR7OQjHiYjx4PX0zDLDWZhoWDZ4E2fdPJYUlgEY41FIAPAGynH1kI9iLfXe7kie0ZFXU+ZI8GstZ9uZZVtbbeJFQT0Eu/gmGO03o/fA+Fqyo/ywZEt9c/7J88C0rWhoTbY2fFGzPoyA2wgYYHDXdpYlayZdDVDO5+I2kbYUDFxSfjmkEgZwrO+4W5ModrEEYADI2/KRnagKNVWBpRpFh19DqbX+GYAtHgSzK1dMnHVz3ladkoNYWMsfMW+kzVPg7UCR7fAQR+g++B6AhCsU49OYHcv5SD2dLr0VjCM9jGgL4HwheX99x6CPmrK0BKATPYyjL0YGsZDcjUIWxtNYHvH0VLIvNTOjYTDmSentQpqA/y0p6ToyGW/4mZsN2UPRHm9cm2htuJaZDiXGvQM87K/JjvJLh9srZRNpS4HAxIRrRaQIb5aPqygYq5+MVquGflR+EHBazwhmz1FQ0yD02cKkhp34tccb2wG604t4dqEq3V1ysQvrSF3Y0xXjy3Muk3ELIsmJjYPvuG+IX7eZGA8LRDIu2JWbBWZ1KPYVAF/2MhgiXJNsXfDykLFUbTsenrqF9MVMo6GgbWePntzzDM6OTdAapmYzvK5Zn5xobbhx/YPflNjI6JdkvP79RLzhs0S4HMB2dzFmtI7pdOaMJLm3ibSlIKgOx+oAHCUixvzv6+6dWzAjvTeuun4thle/NWwYKOssIxnnB8EaSp2hEV6EMlFIGOESXZ//GkK/T8bzRt4Xcg4J6YoxZc8M9SBW3p8QAQDnMOWwdkb0MCaOeRoH0+JES8MdOT1YK7nTkWE0EbuGaD9CFsLwNwNGTCc3AThATK8HAn7jY//U9njj89LaA5FoabiDfTiWQXEAq33pzvOHVSbYB5tIWwoC7fGOSx/+nmxtuEdIK0eIkR1B7imalMyRLEt1vPPHu44uzpVk64KXCfD8JADA8dV1sREPGpEskxmq7MFDhBJpfiGXG4U0+f4Mj29sAYCIP4tBrG0ODN1e7viwDN765a5JVeQ+0ZEhVvbATklafEBJTz+CjG1nL5QReZ7BcPPZyE7XFYb/K9Faf9mG+HWb5bUHJ/Vww7upM5Izfew/s+2xG0d8DbaJtMU8kYgi8NkSUgT66XCaCATxfuw9s4D3KxOEdnSYVE6DWAb8efAit2IZXEdfM9KfVUSnQOpz2kCjYeDM6P4A9pHQYs5t52/TiusTDHrU63gA7B+YGf3kQN/soE0xAMd7qJ/UrC/C/fVDNV/1Qazs4fWOvy1ICmltR7IfoYd/inj8z1nmA+gWz3V2hplwTbJ1/ncK9JqbJRLR+Sb5NpG2GKdmZeAEgCTs2Zxu7paojR0WgTOXVkKg2YqIar3WCM5cdCS89+HNkmdjXLJm8h8B/NOlaAaG6aIeS63hI+cfnUeZzMghR9JKLXdrP+WmB/hgOk7/7h3BcPRCgL/mobQY/sJlAAAgAElEQVQG45IBrQD7ocdC8yDvQtoJMzaM0k4WJPM8g4l1VwI4RkKrl+xEwIZCG/biCTaRthiHiWYLCa3x0mZnpJDuPFpChz32qwYAOIIOE/mWIiy/0CHwT1wKZzAqSti5YkQ/yVI7gCMvk8kTuXp6X/+DWPqDGfdAoIaeafc66drQwkMB/NRbYfxXMt7wwHB+JNPd+SmvwukHQ42Gwom0gEvOxFk3jwVTxGudnWBuTrXWDzkRcLRgE2mLeZjPFJFR3CKhM1wYOFZIx/tGMiV29JspYd+QjWND0c2ZnwDodCGeQSHG13samYYBE8Ajrq8enlJ+ZTJ5IFdP/3BjzoN4kvH69wHO+/WVAyfVhm7de/u/ZsfKMuS/G97agK5I1k763rB/Su69DXaEB5RA2rYzCw3hIuMG6XTZNyA6eIUfS6L9m3J65rGJtMU4UokkQEPaO5mAmEISOgr0huciQhPqGPSiG80rPScUd7sQ0qAwcEhwZdWwRpNXz2g+AkVSJjMiZsfKCDhBQoox/ISFZMo7lIP0Z3r/EdiGWwjsYVMwvZfm9MXD9ckFIHg6gk2piRNfEdLajqRtJ5CdrJsowwteatScetN4gBd4qbELCbC6GPGI5826hYR/0O+u4TPAuAjAQeAhHmvZcyB0gXAHTqa8E5Ca05smaaFkQQFvS+gMi0hE0UquE+nEIPq7l8sHZ8cmoJO9HBqxHeWix6x2KKp87LlrDIOuAfC3nB/v802XcOgDAFZafAcw2O2cyFA5DyXJCx7Bzp/Df4CP/seDaHaiZ8rhzwN1sfOI+ToPpdIM+tKIytvmLPNx24dTPIipP9aMKNHPF4VpQm83AAADzwyv0XP46NKyqyDqQkL/mj3N2bMYODlezT8E48bt/5YcmGkpfBjHwYWdPKfUdyhpmU+vDJAQERoG1SsDYQY8bwIEsK1iW9rbZKlbnwKQkMOEezuo7avqnwuGYk+A2NPddALOrQo1HTiMBi+xMpkyf1qijGFntGCpwAheL4lVja8Gw9HXABzhQUjbIWBWdWjREcz6l/DwSkuMxmR83mMj+dmq9R8dCx/GuR1Tv3DuTaHu6kqVGfXgtUvOnGU+tH2Yv4997jyabJ13O1AvKFkY9H/Re5KvBvok0RbLrjDiLq1T5co6OVCqfcamKQ0EA5cJST0yUrP5nBEc1qAy7pYiMPFiN9cbAB8pdVXOjyYWSTQZ9KKZSWNKZkAQkCkr6Xp6JD9IjD+6HUw/VDA5KwEEPVMg3JWIN9w64h/3yzXhMSDuHy1p27kdj8upghs++jyAg73U6ANrh+oL2ubOQ3ZPpJ/i2SCM+A1n2WPIbRLWUGhPm2p2oltrodG2udHTZHSRkFzOJQUjhsWGNSQ2rKp/y80FUx3lywF47ueqGFdjdmzIcoaaU28aDxaa9AlDO4CAiAtEXjcKikRs8Dy2/3wDZTQ3rxXY29OavkoZZMTr9UVtO3fg7fMkbvR0/Z3gP7Svqn9OTq+w2DmRfoqPgcZvMVTttGXPhrAO72KFG0spsNhrzV/i1Ehp5YJD6X8HUC6k5nEizQQiEYcJIjzh+s7HM3PTIPzM1TX7gYHawDb+/JCPKy0/GYDP63iyYu7Vm+dKzVmLJgMSA4KAfG4UEi3zngLoPTejEWYL4HwheX99Rz6LkJwt3JtGLEoFbTuz0Hte1hJXhxYdAaEbVQDMCt8V0ipIdiTSj/JkaNwH6fGYluKD8WtcSK40gzCx2NhQ1mrAKWLSBGYs+iSyzWcSPJlsXeCpY0l1aPEnAIxs6Mhw8ehIVKX1Ugh4bRNh6P93yUEsSt5qTKdZzpM4rxsFYgb/2b1gZCHCNfm+98fPXFwNxqFuxTQYDPmhQABErf168PR5Mjlf8nL9XViRWjH/RUG9giObSD/NY1CCPwIQ2iGwFDUOfu3aWgp57ZQMDz5HTmtgakO3jiOfvgNAiYQeMwnU/8rU8wJwtdGwL22PNH4I8O+9WHsXZmRvpAaGWez32baxZV7O/squoQQHseR5oyA15dBtmGlxoqUh7xI8v5OZDim7AY/e20MiZNvZR9Dj50kXe7t+X3iPmF44GArMCg7uhHShvaU4ITyLT9FLrq2n9TrX1hqa8yvPbJJqvuifKUtLNDJ3AjhOSPGjVG1yudciTGL10ZrL6SnPVle8yLO1+8r49NcH/i4TAJFGPGIPymRyQa6ePu8bhQSnVgIouImoQ7AmVYEbXFlJchCLduRtGGfHJgAytp3b8dBusroudjKAw71afxc+SnZUFO2JjVsorMHNAM43HYilSNBodnO5ZE3HmwCkzNv9yvE1CWntzuxYWWBC5/L+xgJ7yBIsj3g/GhxiOzp/z7feczCSKxqfAMO7RL0HBi7PXsB3p3ZG7FAAMvX8BPlGwylLSwDycOjIDly5UYhHMgy6z6WQJEhq1he55VFMLHZ6sKUdGz31uu+Xbn0KhAexTHCqPGvMY63FyjoY+D2emZuW0itU/ADOQNb1f9ejmy0QqBfMkQ4A8gbt/ZMyHUAPGoyNYmqE9QB+h2nkrh3U8kg3wtG34LFXay8E/mww3NyYbJ0vmlAHZ/xoP3Ty7wCINOT18KGP/Z4/z5pTbxqvgaO91unB86NfAi1h8O0ey4zjTn0pgCW7fkP7eLrYSbqSP0qvruw6gRkyDjou3Sgodv7ApC53Yy2P0WBcMgyv8sGJRBRWypxWM2ONkYl4WokNPgIABp5bG7+i0zMBRZ+Rejo+1r+TUSps/DiFppoOwrKnww8CJJJIZ6FbquuimURLg8AxPlMwFPsqCDcDcp7ZAEDgf3NjjPZQiDpMCNRQJirw22An3+SxJRkIdB3At+2+Y0pS/soOOX7Pd993hTVPlxrw5daNQkUX/21rObYAGOvGep7B+K9kvOEBt5YLtFQfDZ+WsSg1Vh+tp4EEJ8556JITODO6Pxwc5tX6fSFgQ1vtPo9IaBU6YscZFsuAUP6jxoeJYkYsUBf7Q1Wo6UAvBPadvrAiGI5eHayLvQzCTyGcRAO4L9E6/1ciSnJHv6CM9v5ie399F4N+7rkOcFRg5qLTdvsqiU1Ye0niRms35BoNXbtReP+JBdvAeNCNtTxkRbJ20vfcXJB8crZwPs8b8PpDzrazD549T3LoTK/W3hUGtRgZ5V6A2ETaYpxkS/0TBLwtrUvMn1OkXg+Goz8LhmLTepq8Rkw2eW4+OxhqbtpW7vsngKVgyDaxZPlIZXTuE/TyRS4xak/UbXxdQkiRcysAz2v/SOudrPAmn7d0DDNEbBqJTe0Air1eXL1RIFXI7h30XprTF3uQ2IjdJCslP9FQ1LazB/Z7NxqcwDO9WntXmDgupVXo2MErlgKAGBT9LhgyO6g7UwrgqyD+ajAc+wiIrSTC35n1q4B+zcdlCVW6ddP2yWhzIqUTOiaMK+tCUKuS/bXmw4j4cADHbQVOBVAOkqy42420Bl2cfKTxQxk5JnBMqhThSUQiWkIo0bLgg2A4+mcAF3irRBfsNbN54scr5q8HgK2bu05SUp/LJD/RcK+ZzRMzGgdKaBHcbaR0tL5XkepG9jOjkEgz6EueDDIhTJP4MCPg7d73gCyCtp1Z1qUebnjXm6WZGLGwN2vvjo+5VUqr0LGJtKUgSFRPujPY9tGNAEs1rfXH3gBfxIyLss1ePjiUgZMuRTAcZQAZtGW9nx0CwFq0tC4HmMBXtbc2rJQSrJ0RO9QBakXEhHdQNWiRAnucSKPUcegqAP8DAEQ8XeoujJRffEfaYZIbxOJyqUB7vLE9GI6uAiB2fJ4LxGhMxuc95va6VaGmKjA+4fa6/WLCPQYAk9jo8148e56VZzYfBEdN8mr9XUi1tTa8AcwXkitsbGmHpTBYfqED4qshZ4U3XAhCA1RGCIPRKFYX3UPWYUIIkq2hbG+tXwnA84ldTDQXc5ZlmzXlyh4SbSuue1NIaweC9fTKcf8IncEFVt5BdyfiDbd6sbKCmgapHMGjaaU5ILsj7WFDpV8rqdkEYMbzRvznCxSbSFsKhmRLw+PEiJiOowjRIJ6bjDdE5aXFhjWwky5dI6TVF0+SlJ3h/Wra1n0GAEhoEAuAJ01cCJnFGikTG1bVv+X2oj6/748wWrm1E6+jHFd7trrg9Eky4NhRc+pN4yFn2wkAYA9vGFjjWK/W3hUCvyClVQzYRNpSUCRCqR8wuexVPbpJM9GlyZb5PzWiTmIX21c3PnqtuId7+bjyXwNIeq2jQddUzlh0EIC9vdYCACKS3wGcsrQEhCkSUkTeTGxse2jeOgAmbuh2ZTMUfcHL4URgsZvkbW0d5Z6f/OyKqG1nlnTF+PJnPVudZJqUe5AfnFPA2ETaUlhEIjpVnbwIzPebDqUISEDxZ1It9b81IT5x1s1jpRwmIDCIpT/W3Tt3K4i8Hs4CAGf7lJYb+MHyjYY1EzqPBTBGRMzLnT8m4+UdRLg2uaL+Fe8UmACWsoV7ysh0PMEyox6959fdO3erd8uTWGkHEa2V0ioGbCJtKTyWR7pVie8qAPIet8XD85r11OSK+Q+ZCqArXTYVcg3L4tZYvTjKWQLAa7cQAuHfPNboRXM5yQ9ikWzsUsqzGwW/5nu8WjsXGFiUaGm4w0uN6hnNRwAIeKnRCxlwjwEAlvNrz+Lh8zwwdHs5gQ/2av3dYPWBmFYRYBNpS8FRU9d0os7oRwGMMx1LgXJ7+bjyU10bAzxCfGAxBwZ2vEuMhmLjw43vEOOvAlLlAhoA4WVPSwIGQq5UQHMZP+3V4htWNbwJwMPd4EFZk6pJ3eC1CPt8ckmmNjSIRa4foUdRefY8U/72yRDM5xTU+1JaxYC1v7MUFNXh5ss101JIJRXFxQcMmptqrZdI6oZEg6aRTN/VptTEiaYSFwAAK1oM5vNMxuAabMhqDGI7gH/3/EaB+R4QHeWpxu4kNeuLsDzSLaAl566CUvFEuse2s0ZSU2e860tQGTUZclas2shE1ALG7khbCoZgOPafDPolbBK9Kwzg5+wrP7pQkmgAILDUjs5q06Noky3zHgLwmskYXMOAQ8LEWbftBUDo6Nn7UgGlxG3wNBiXiJ1CkdigkrUb4td9JKS1HVHbTgAAf7xx1bx/eLU6ESZ7tXY/eFbnXazYRNpinjnLfMFw9OcAfxcQvK8uDlYo4KRka8NVqYfnbjQdTC+VZzYdDGCiiBibOPrdFWIiFrDC8x7S8mUyTrpLzkqNvTtC76WtpfFZAJ4lRrtD303GGx6QUKo59abxYAjttpupjxa07QQAMKnHvVyfQCJuPz10CWoVBba0Yzis4b3BuBzAwaA9IOHTWA8/YphK7o+e7SUU8Qfb1v0KoC95plGEEOE5DfXtVMu8gnQvURnfdCkbYi9rC4cDdXX9H5eWfw9ApelY8qA9EUq8gbisKDNNl/rEJNIyyRnhz2A0CCitSNbs/T8COgAALqk4BWARWziCmfe2YJlRFo8Hzmjw3oIJiYzzThFhE+lceZLDYNwDoApA4VjyewkBcHAwgEs9WX/K0pIgdf0G4DmerF98OAD/STEvamttjJsOZgjEBrFkuNuYY0df2h67cVMgHP0VAfNMx5IHTyIS8dqBZDc0idXTJ6VGF2umPyiwx4k0vZfm7otFS5sUpold35TQTU8fJs66eWw6jWMkNdnj50nMFSCxVLoCU5aWGLEsLFBsaUcuPM5BEO5GbxK9Z+FRXSNTYELnz20SDQBYC+bvafIdkmydf0FbvOCTaJCUlRnhrU3xG7w7ERkmfgeL4L0VnnewAT/uOct8BJ4qpCY2sbG9Zu9HCdjgoUQaxBdLv/6ZxeqjOxPBdvEJeU63/yTIbiJmyvzpZ7wUYCLJwTKoCXbXSuoVOjaRzgUfbgKwp75wPvZi0WA49iMCLnNxyW4CfgOg3cU1vaQNhJ9p4jOSrfUHJ+Pz/6O95fp/mg4qF/advrACkBlHy0zGbO/6I2t9Rsa8u/NGyf8+q9Z/dCzkrCzlbhSWX+gwcK9XyzN4frKlwdPa2n5UBW3h+BkhB5KdVUmJlnUw6MX1D35zi5caSnZCI6D1J0T1ChybSA/FU3wygCtNh2EQ1zuqg+HoAgCNLi6ZJtYXJVobLh3T6Uxm4BIi/AXANhc13OBFBn7AUKclaybtnWxp+Fp7y/xVUjtobrFljH8qgBIRMQMOE0PBrBebjmGEsNPtFx/EQn45KzUSvvFi9si9g3BXqnX+Ek/WHoTaGbFDIWULZ+gmWQs3Gko0VLJQTft2PUeqGbU4sDXSg9HKfmgsxZ58w0FY7+Zywbrop8D4oZtrgvmmRLzxjwDw/hMLtgG4E8Cdk89bOmbblq6ZxPrMni7tEyCUABLQxcDzAB4n1qu6HN9jmx+p9/IYWA4tZx3FmcJLpFPxhr8Gw7E3ABxuOpbhQa9sfPTalLis3Chmrf1lojcKlah8eBNtvMnNNTUrx699P3BzzZy1/YL10SAjvQ+Ctp1ZCsJ1yF2YEAYwKlyM3MAm0oMxBo0AjjcdhmFcS6THz1xcDa3vAtjFZJbeKx9f3u9FZ929c7cie/R6L5AtSegsKznaIX04AUcwcCAx9gZhEgETefjlO90EvMfAWgBrCXgbrF9VWr28YeKkd0x7H3sFMaYJOTBsaVfJl0SUhgUxEF0K4EemIxkeZi7oRDxdJDkjvCxtEbk2fkUnIDba3XtYzs2CVEZ8R7qyLnYImGVsO3vQHo6r74WhEkLNvL2cjdmxMtxfb63wYBPpgVnD+4Hxn6bDKABcK+0oZaeZgf3cWg8AGPqHPQnzkPTsVj/d82d3piwtqa7cspfWvoCPUMZMAQ1dTlDl1Ft7TXqTYp1wKvwfGxmzXAiQTA0lg55CPJKR0BoumvUvFKn/AjDWdCw5Y6DRMHvz7BwqIsbeTY7bYyCxHel3Ey0LPhBR6oPSYpsAvbRtbJn3DlDvqQgxfyz8vMYFtvHnU8BdoqoFik2kB0KjGSTWIFO4OHDlwy4Yik1j5kvcWKsPyYpxFb907az6mbnpBPAB4M5zHo1UhZoOBGSmaKkCPhJtjze2B8PNvwZorulYcoYc8R1Av5OZDhLy5SJTwz1GBz22cJ8UkjP13hatjybGExI9MKzoY2LZVhsi/BvAdxdbj48X7Lm1v0NBONF0CMZhrEEJnnVhIQJxFO5PLfxdrrvRFncgKLkLUQE2Gu6EUjEUj6N8R/KMjlfFVZVcYxdldGG/XgocUVs4MtNoKGbbuV0QIs9TgVztZcqR46rDUTedt4oWuyM9EFtxGMZgP6hhJn8OAnnpKlTlNTXRQSUorxukCWD4AKzHeNyPoylv0/VA3eJPg3FyvuvsCjN7Zj1l6R8SHNag2F8Qg1gGIrmi/pVAKBqnbONNoWNkEAvJNRq2J+o2vo5VQmqjEEepaWJ7ix5P+uuPfacvrNgqZNvZCymZ5+nozDuK5PdFGdQcDMVakvH698XFCwibSA9EmDIA/mE6jNEAsfakQIyVvwAb0UY5cs1I/9gQv85160W3UUSLGVwEibSBMplIRGElThJSM3KjMKoQuukhoCtRgecktPqyZYx/Kmk3G92HxCFHxm6yPd64NhiOJgBUS+j1IQDF91WetuQMI45AOVB52pKAb3zG8bKnyZZ2WDyldkb0MACzPFhat89oe8+DdS0DMTtWRsBxElIEmSPRfEnU7P0nZF1bChsDnr2BR6qOATBBRMzExMZRBgkNYmGmZ424PQjadvbw0ob4dZvF1NiNMswR6X7S50//reb0pklG9AegNrTw0EA4uthXkn4P2/TXvNSyibTFU7SfLoI3rzMVeHTSeA/WtQxAoJOmMlAmIlbo9dG9LL/QYcJS02EMAWfKnDXiqo7gBDkDExtHE5UzFh0EYG8RMUNNoYJlRlk94c0AAjwdQz6E+Enar56uCsfOMBYDAIQi/kCo+dxAOPpHh3yvE3AdgLEg8nSonk2kLZ7CrD/t1drK2XaEV2tbdofYEWw0LFzHjl3J6PTPUHhTNPvyesffFiSlRUlpqdeLkYmNownl03I3Pabe20K2nTuQfZ5k3rVmsgK3BsLRXwVn/MhVm9uhqArHjguGowuDFHifiO4l4HzsnN8eFayLfsorfVsjbfGMytOWBIC0dx9eTF8BUNANaaMKRVKNhp2JYPsLIkousCl+Q1swHL0LwBWmYxkAMxdYlnLsMDSxcXQhd5OcccQTaUnbzl5I+UWfZ3mnfmhruW8zYNS2lwi4DD7/xcG66O+V1kvbavd5xP3hZEw14diJGjgHwBcBHrqJlHElgMfdjSOLTaQtnqFKnWlg715jTLgyOLPpV8kVjabvxPcM5I5Gn8bySLeQlito1jFFqlATaROJSxWkRqib34kregSnla5LrvqGeG+LqG1nlkTbiuveBK4XE3z/iQXbguHYXwG+SEx0YErAuFiTujjY9mGCwtEHwHiCffpZ1dn997bHbtyU60KTz1s6Jr2xcx/28ZEadBzAxwOxT+nhlyJdVBu6db4Xdes2kbZ4B/MxHiuUQqvfB0LRC1Pxhkc91tqj6Tmq21dErAgbx9rjjc8Hw9HHAXh2fDhS2PF+RPGukPJPB2uZ0kFdPGVAhciBodvLO6hDpIkY5M2O4JCyxNPdH2MwKE8aGVTC+B0IhZBI96WagUtAuARaQZeWIxiObgTofQY2EDgDcAegHDD32v9OQHZnfZ/OzZ2V8AE7/v9G/P84zkH6IgA/z/sZ7YJNpC2eQWCJ0cCTiLAqGGp+gAh3dXPmvk3xG9oEdPcsfP7RX0OZJ8xYRFRwifSm1MSJr0iLZuvphRIXn/yNwmhiI22eQkCpiJixmx65wUAAQGRmXH35+LL7Ojd3poA851l4TyXAlTs+IQgAC3xkqK/CJtKWIqNKSIdANJuB2SVU4gTDzc8B9DITXlPA6yB+P8MqiW5/0tZSjhi5CXVUnBPqUpvKfx+c0PkBgH1Mx9KHNe7XJ+YA03ShPHpj8vTka1ghojUqIdLTxeZzGnBXOTB0e3kHOo4XFWUz5Ubr7p27NRhuXgTQf5rQL3iIpwdnxo5Krqh3dXPBJtIWzyBGBYuepgEAfABNBTCVuGd+MxN8YKAkjWA4ygDakXVZ6ARhCxjdBGxmIL39iAloB5iJOKWZNJg2kmIHjA4Q0gBvVowuZrVVgzt9Sm9NK7Szj9s7ujo6EI9kxJ+5lzBNkzmppPcSLQs+EBByn2fmphGO/QTg75oOZTtGLuhMoJjUIJbVdhBLnsj1PqTHbHOek7aPEd1xz6K5nIy5yGRKddTf7VsAs02HhUu26fAGN5e0ibTFOwg5NxQIQsgee2WPvnpyQ97p2zv+xdwzr317Vt77bYLu+ToB0KzgcwA4QJACQDi6lYAPGfwRgPUM+oCAtQS8rR31zth0+q33n1hQyJZpO5gdK0MnnyAjVtyNYyUlJT/OpLu/Jea3PQRMSnx3PxhuOgrwyZxGUXEM7ilwpBLp50x85hE700CCOzqEl72cojcUHX9bkAyGoz8BsMBUDAUN85cxO/ZtN4cC2UTa4hkMrDcdg0HGMHAIQIcAO0q/GAD5NLb6fDoYjr4F0AvE/AIDz2joJ9vjje3mQu6f4DacAEK5jFpx1kf3sv7Baz6uDkd/B+AS07EA4Ax3y9tDsk+qrAPQxdeYWkj0NBHLlCKZuukhkp1oyOZv7roz9MNSP18OoMZ0LAVITbBTn5sEfu/WgjaRtngGMz9LkjsBxYUCcDjAhzNhTvYLSgfD0dcIWAmmexJIxguiRIS0XMe7Ku5EGgCYaTGICyGRftNI4y2J7XCamdg4mhBsImZzNz2y1ncFMJV18yP1GwLhaAMBvzEdS0HC+CpcTKTtZEOLZ5B2VgKw9Yu5owAcxcA1TPxQkAIfBcPNP66e0XSk2bBkOt4J6JrgVD0noeUlyXj9k2AYn7THMOMcAEAmOSO8ZmJi4yhDLMlk5RPfqRXdce+BdGG4yKRaG+5koj+ajqMgITo7cGZ0f7eWs4m0xTOSq77xHtj20+dBNUBz2adeDoajf60JR6cYikPkYsvAc2vjV3RKaHkNES82HYOJnbHAmUsrARwhIlYAR+hFj9j0SXzY3nL9P4W0diBp25mlPRFKvCGsOSAKmesBWDvY3VHk4MuuLebWQhZLfzCp7wJi5kqjFQJwjgbWBMLRX40P3SJW91Zz1qLJAFy7cx8ULv6yjl4S5epuGO4RYO3ID2LRXadA6rpSpH7jBcOcSClIqInY3JAl6YmGTxaSi0yiZcEHzPg8gKKaFCvElYhEXPmssom0xVNSrfMeA/Ar03GMEhQBl5VQyXOBUPQ0CUGdcSR3dEZPYnR/fRcTfmYwgi3t2Ph3cVXNgjW38p7Eo4nqtqoTAJkmYiZj/1fCO9KF95pMxRseZeAK2DLLXTmwOh6sc2Mhm0hbPKekpPs6AC+YjmMUsS8RWoN1sfmeK8kd/UIr/+hJpAH4fGoJgLQJbWasMdKoKtdo2JGqnfSqkNaohEnJJZnKwE3y7FgZAUK2nT0UQKNhf6RaG+4E4SoA8sOZChQiPAef3ujGWjaRtnjO+ge/uQVM5wIomNqxUYAfzE3BULTBUxUS22E0U0PpIW0PzVsHwp+MiBu5oDMBOFlGCquNTGwcTQgOYqkYU/aMkNZ2gttwgrCfOzvdfuNNxgORbGm4nYALAGw1HYth3mGif0nMSE1NrJjvyv+XTaQtIiTj9e/7HJwLYFQ0kxUMhKZgOHqhJ2tPWVoC0ImerL0bxT2IZSA0eJEJXZ8BP+7qGc1HAAiKiBXozl9xwUKJNL+w7t658skbaemyjlc2PnptSlZzeCRaG/5Ejp4Kwp54mtPGTP+WLKejUi31v3Wzlt0m0hYRguHmsx0fHoZQTd4eBAFYstfM5oluL1xdte14ABVur9sfDPkJfBK0t8xfBQNlTUpBfBAL+5WclRoVhsVYsVJzetMkAAdIaDGbem/LlaVlKY7m18SqxldRRrd9QQkAAAq+SURBVNMYWIQ9o9TjHRA1+th/UCpef5ObEw17sYm0xVMmn7d0TDAc/QVAD0DK/WHPozqt1f+6vqoe5TWUUjBErfAIePvjFfPlHUNYbIIcZ4jsIJY8YL9P7r1Npk6bpCcaFs+pWvL++o5Ua0O9In0yIH/TLQAzKE6ELyTPSB2WbKlv3hC/brNXYjaRtnhGbWjhoZ2bO59AtmPY4iEE/lJ13UJXBw8w9KiuoZRiTJfzGwAJMUFjo5ilSgXwxqYV18v9Pkchgu9taJ8Wv0nO2nbyfqKiJP8886WtpfHZ5BmpTxHjKwC9bDoeF/iAQd/3OfhEqrU+nGhp+IOEHaFNpC2eEAw3n+2Qbw2AY03HsodQwqyudndJqR0dQzWUQrz/xIJtAP9CTNDAKOaaU28aD8ZRImLGdjhHEWJuPPzxxocb35HR2oGwbScAdCTP6CjOuuNIRCfiDf+XbJ33SRCdDeABFNXsB/4YwC+Y1DnJmkkHpFrrv71hVcObkhH4JcUsewaBUPRiZL2jS0zHskdB9HkA33FjqcrTlgSAtAbg+UWQif7mtYZpHMd3m8+nLxDRgn5MQqcvXFp2FAAR1xUCtUjojFoiEYWVCEDgvQ1Q3HuN3WGogwkslsBTgQ1iGRnEyRY8CODBmnDzJxi4gEHnA5iKwtt0fZFBfyHGvclQao3p3z2ZFLeMPgJ10a8T41YU3htvT4BVRu/T9kjjh6YDsVgsFkvxU3N60yRdQueC1VkATwVwkHAI7QCtBvRqBq3OKN/qQivtsom0xTV6kujbXF62nYEfEDALwAzYXe4h4C8mW+f/3nQUFovFYhl9TDh7YdCfUVOYaYpifJIZ+4GwDwH75Onb3QnCP8B4hxgvMfh5RXi+rbXhDYAKutTEJtIWVwjWNc8B028B+FxcNk3A7ERrwwoA2Hf6wootY/xTFevjGOpAgA8AY39kbZxct38rRgjUkGitj5mOw2KxWCx7FhNn3bZXt9O1t3LUXuzTBEYVNBSIKvs+jhhdTLxZMScc7U/4ONNWzCepNpG25E113aI6sL7P9SlSxFcnW+b/NNeHV562JKDK0+ORwQTy6fHQNAGECQCqoDEBisYTuBxMxEBVH6FK9JaisB4Hot5d7zHY8ZzKev4NAGORHTxRcLvjDPwg1drwLdNxWCwWi8WyJ2CbDS15UXN60yTNzm8BcjWJJuA3iWEk0QDQM1VKbLJUbejWcY7P2R+sj4bGsSB8GqApMHiDSswiA1QsFovFYrHYRNqSD5GI0ivp1wDt5eayDHpLdW+7xs01vaDH4P2Vnj/LAfxHMBTbFwrzwfx1ZHeuZSHaJK5psVgsFsseinVWsIyY6pWBGwGqc3tdBb6h7bEbizIhTMbr30+21N8ApiNgYmIUoUNc02KxWCyWPRSbSFtGRHDGj/Zj4D9cX5jxVKK1/s+urytMMl7/PvvKz4aQt24vxPyxpJ7FYrFYLHsyNpG2jAjy+78PwPV6XCZECt3qJldSD8/dyEw/kNSk0THm1WKxWCyWosAm0pZhUxNaNJUZl7i9LgEbUjWTRtmUO5acMueUjisvzjG1FovFYrEUITaRtgwbTfqb8MCZgoE/Y/mFjtvrmqRifLnYmFoAb6+7d+5WQT2LxWKxWPZobCJtGRZ7zWyeCOBzXqzNwD1erGuS7vatlUM/yi24VU7LYrFYLBaLTaQtwyLNdAWAUi/WznB6jRfrmoRLfPsJyj0kqGWxWCwWyx6PTaQtw4KAf/Fo6Y82xW9o82htY2jGGUJSjmZeIaRlsVgsFosFNpG2DIPa0K17g3GMR8u3e7SuQZgIfKmQ2N/a442j8HdosVgsFkvhYhNpS85klBOGV+OvCaPC8q4vgbpF5wI4VkKLiX4soWOxWCwWi2UHNpG25Awxwp4tzjgQkcioeT3Whm4dR8wxIbl/pqr3vk9Iy2KxWCwWSw+jJnGxCOBdWQcAVAQeCZ7q4fpyRCIqo5w7ABwoIUeghaPNNtBisVgslmLAJtKW3CE+3NP1NX/D0/UlCEX8gZWBXxKzJxaB/fBGoqPsNiEti8VisVgsfbCJtCUnxs9cXA2g2ksNAs4PhJqlmvNcZ6+ZzRODFHiAgMukNJnoBjwzNy2lZ7FYLBaLZQc2kbbkRCnrQyR0FNHPgnWxWRJa7sEUCDVfmtH0AoCZUqpE+Euqpf5eKT2LxWKxWCw7YxNpS06QdsZI6DBQBua/VNdF5wHsjUOIazAFQ9FPB8OxJ4joDgATBcXXdaXpSkE9i8VisVgsu1DgiYqlUKiZGQ1rjRZh2TUEfCvRWt8CUMHY41XWxQ5RGl8k4isBeFs33j+OUjirbUWDHQlusVgsFotBbCJtyYmqUNPxitRzhuRfIcadGvhTKpR6BZGIlpNmqqxbdLDSmAZgGhGfCeAIOf3dIfC3E63zv28yBovFYrFYLDaRtuRI5WlLAr6SdNJ0HAA2gfE8FJ4F8AI0PmQfr/N184a2vff5eLg2cONnLq4ugZ5ITHtrzZOI9F4gtQ8x783gTwB0JICx3jyVEUD4WbKl4Wumw7BYLBaLxWITacswCIZj7wK8n+k4BkED2Njz93YADKAbQGnP1yqR7QsoAyBS8+0yDyQ5dR7ikYzpQCwWi8VisQB+0wFYigl+CEAhN7gpAIGevwcGe2DxwS0+Lpljk2iLxWKxWAoH69phGQa8zHQEeya0PFmuztkQv26z6UgsFovFYrHswCbSlpxJtjY8CNDLpuPYk2Cmxckzkhfj/vou07FYLBaLxWLZGVsjbRkWwXDz2QA9YDqOPYDNxDQvEa//pelALBaLxWKx9I/PdACW4mLb2gfeHnPg7L1BmGo6ltEKg571Kd+sROu8FaZjsVgsFovFMjC2tMMybMZjQiMRTHlKj2a6GfT9VE1yetuK698wHYzFYrFYLJbBsaUdlhFReWbTwT5HPQJgsulYRgn3+RzM37Cq4U3TgVgsFovFYskNm0hbRkztjOhhjg8tAPY1HUsR8zoTfTPVUn+v6UAsFovFYrEMD5tIW/Kisi52iI/5PgCHm46lqCC8xBrfT9VOWj7caYwWi8VisVgKA5tIW/Km5tSbxnNZ+RJmXGo6liJgNbH+YSI+/08AselgLBaLxWKxjBybSFtcIxBqvpSI/hfAJNOxFBgJEH7NxL9IrZj/oulgLBaLxWKxuINNpC2uMnHWzWPT6bJvAPxNAONMx2OQrQw89P/bu39X2uM4juPP99cJOUh+DiSDumy6g0lRZFE2g9FiU/IX2Fn8BTbDvZNYb938yGJwduUknZJ8D0rC93zeBjeDyeD4uLwe03f69Ppuz+FTH4ONtN429aCKiIjI16OQlqpoGlttz1ntHDBveH/sPR+kBGy7+1b+Pvw5O1i6iz1IREREqkchLVXm1jq+NkGwWWAaaIu96B2VwHbNfL8Swu7V38WC7j2LiIh8Hwpp+Tgzv2raLs9H3cMUMAL8BHKRV73VNVAAPzKzwyxL9q53Fk5ijxIREZF4FNISTdfkSr5SqR0OwYfABnAGMf8B1hlpkgMl8KJhRTeODQpZlhwpmkVEROQ1hbR8On1j6/W3lHseLdddY96L0xOgO3F6AzSa0YzRgFMHtAB1QJ7nEL76d8zLt2PB8BSsDCE1rOzuKUZqnpSBs4SseNFxc8rv5YcY/ywiIiL/nyfZjN/lfTww6gAAAABJRU5ErkJggg==;perimeterSpacing=1;strokeWidth=1;imageBackground=#ffffff;" vertex="1" parent="FdhFarl18-zCwnV5q0Lz-3">
          <mxGeometry x="8.71999999999997" y="11.879999999999995" width="68.56" height="16.24" as="geometry" />
        </mxCell>
        <mxCell id="FdhFarl18-zCwnV5q0Lz-20" value="" style="group" vertex="1" connectable="0" parent="1">
          <mxGeometry x="60.01571428571421" y="-650" width="30.158730158730158" height="30.15" as="geometry" />
        </mxCell>
        <mxCell id="FdhFarl18-zCwnV5q0Lz-21" value="" style="group" vertex="1" connectable="0" parent="FdhFarl18-zCwnV5q0Lz-20">
          <mxGeometry width="30.158730158730158" height="30.15" as="geometry" />
        </mxCell>
        <mxCell id="FdhFarl18-zCwnV5q0Lz-22" value="" style="whiteSpace=wrap;html=1;aspect=fixed;fillColor=#001135;strokeColor=none;connectable=1;allowArrows=1;fontFamily=Manrope;fontSource=https%3A%2F%2Ffonts.googleapis.com%2Fcss%3Ffamily%3DManrope;" vertex="1" parent="FdhFarl18-zCwnV5q0Lz-21">
          <mxGeometry width="30.148963159878864" height="30.148963159878864" as="geometry" />
        </mxCell>
        <mxCell id="FdhFarl18-zCwnV5q0Lz-23" value="" style="endArrow=open;html=1;edgeStyle=orthogonalEdgeStyle;rounded=0;endFill=0;startSize=6;endSize=2;strokeColor=#FFFFFF;fontFamily=Manrope;fontSource=https%3A%2F%2Ffonts.googleapis.com%2Fcss%3Ffamily%3DManrope;" edge="1" parent="FdhFarl18-zCwnV5q0Lz-21">
          <mxGeometry y="13.774714454509649" width="50.26455026455025" height="50.25" as="geometry">
            <mxPoint x="3.0158730158730167" y="25.83471445450964" as="sourcePoint" />
            <mxPoint x="11.05820105820106" y="16.789714454509646" as="targetPoint" />
            <Array as="points">
              <mxPoint x="11.05820105820106" y="25.83471445450964" />
            </Array>
          </mxGeometry>
        </mxCell>
        <mxCell id="FdhFarl18-zCwnV5q0Lz-24" value="" style="endArrow=open;html=1;edgeStyle=orthogonalEdgeStyle;rounded=0;endFill=0;startSize=6;endSize=2;strokeColor=#FFFFFF;fontFamily=Manrope;fontSource=https%3A%2F%2Ffonts.googleapis.com%2Fcss%3Ffamily%3DManrope;" edge="1" parent="FdhFarl18-zCwnV5q0Lz-21">
          <mxGeometry y="-14.724694761717211" width="50.26455026455025" height="50.25" as="geometry">
            <mxPoint x="11.05820105820106" y="12.410305238282787" as="sourcePoint" />
            <mxPoint x="3.0158730158730167" y="4.370305238282789" as="targetPoint" />
            <Array as="points">
              <mxPoint x="11.05820105820106" y="4.370305238282789" />
            </Array>
          </mxGeometry>
        </mxCell>
        <mxCell id="FdhFarl18-zCwnV5q0Lz-25" value="" style="endArrow=open;html=1;edgeStyle=orthogonalEdgeStyle;rounded=0;endFill=0;startSize=6;endSize=2;strokeColor=#FFFFFF;fontFamily=Manrope;fontSource=https%3A%2F%2Ffonts.googleapis.com%2Fcss%3Ffamily%3DManrope;" edge="1" parent="FdhFarl18-zCwnV5q0Lz-21">
          <mxGeometry y="13.774714454509649" width="50.26455026455025" height="50.25" as="geometry">
            <mxPoint x="18.0952380952381" y="16.789714454509646" as="sourcePoint" />
            <mxPoint x="27.142857142857135" y="25.83471445450964" as="targetPoint" />
            <Array as="points">
              <mxPoint x="18.0952380952381" y="25.83471445450964" />
            </Array>
          </mxGeometry>
        </mxCell>
        <mxCell id="FdhFarl18-zCwnV5q0Lz-26" value="" style="endArrow=open;html=1;edgeStyle=orthogonalEdgeStyle;rounded=0;endFill=0;startSize=6;endSize=2;strokeColor=#FFFFFF;fontFamily=Manrope;fontSource=https%3A%2F%2Ffonts.googleapis.com%2Fcss%3Ffamily%3DManrope;" edge="1" parent="FdhFarl18-zCwnV5q0Lz-21">
          <mxGeometry y="-14.724694761717211" width="50.26455026455025" height="50.25" as="geometry">
            <mxPoint x="27.142857142857135" y="4.370305238282789" as="sourcePoint" />
            <mxPoint x="18.0952380952381" y="12.410305238282787" as="targetPoint" />
            <Array as="points">
              <mxPoint x="18.0952380952381" y="4.370305238282789" />
            </Array>
          </mxGeometry>
        </mxCell>
        <mxCell id="FdhFarl18-zCwnV5q0Lz-29" value="" style="group" vertex="1" connectable="0" parent="1">
          <mxGeometry x="60.00571428571422" y="-695.07" width="30.158730158730158" height="30.15" as="geometry" />
        </mxCell>
        <mxCell id="FdhFarl18-zCwnV5q0Lz-30" value="" style="group" vertex="1" connectable="0" parent="FdhFarl18-zCwnV5q0Lz-29">
          <mxGeometry width="30.158730158730158" height="30.15" as="geometry" />
        </mxCell>
        <mxCell id="FdhFarl18-zCwnV5q0Lz-31" value="" style="whiteSpace=wrap;html=1;aspect=fixed;fillColor=#001135;strokeColor=none;connectable=1;allowArrows=1;fontFamily=Manrope;fontSource=https%3A%2F%2Ffonts.googleapis.com%2Fcss%3Ffamily%3DManrope;" vertex="1" parent="FdhFarl18-zCwnV5q0Lz-30">
          <mxGeometry width="30.148963159878864" height="30.148963159878864" as="geometry" />
        </mxCell>
        <mxCell id="FdhFarl18-zCwnV5q0Lz-32" value="" style="endArrow=open;html=1;edgeStyle=orthogonalEdgeStyle;rounded=0;endFill=0;startSize=6;endSize=2;strokeColor=#FFFFFF;fontFamily=Manrope;fontSource=https%3A%2F%2Ffonts.googleapis.com%2Fcss%3Ffamily%3DManrope;" edge="1" parent="FdhFarl18-zCwnV5q0Lz-30">
          <mxGeometry y="13.774714454509649" width="50.26455026455025" height="50.25" as="geometry">
            <mxPoint x="3.0158730158730167" y="25.83471445450964" as="sourcePoint" />
            <mxPoint x="11.05820105820106" y="16.789714454509646" as="targetPoint" />
            <Array as="points">
              <mxPoint x="11.05820105820106" y="25.83471445450964" />
            </Array>
          </mxGeometry>
        </mxCell>
        <mxCell id="FdhFarl18-zCwnV5q0Lz-33" value="" style="endArrow=open;html=1;edgeStyle=orthogonalEdgeStyle;rounded=0;endFill=0;startSize=6;endSize=2;strokeColor=#FFFFFF;fontFamily=Manrope;fontSource=https%3A%2F%2Ffonts.googleapis.com%2Fcss%3Ffamily%3DManrope;" edge="1" parent="FdhFarl18-zCwnV5q0Lz-30">
          <mxGeometry y="-14.724694761717211" width="50.26455026455025" height="50.25" as="geometry">
            <mxPoint x="11.05820105820106" y="12.410305238282787" as="sourcePoint" />
            <mxPoint x="3.0158730158730167" y="4.370305238282789" as="targetPoint" />
            <Array as="points">
              <mxPoint x="11.05820105820106" y="4.370305238282789" />
            </Array>
          </mxGeometry>
        </mxCell>
        <mxCell id="FdhFarl18-zCwnV5q0Lz-34" value="" style="endArrow=open;html=1;edgeStyle=orthogonalEdgeStyle;rounded=0;endFill=0;startSize=6;endSize=2;strokeColor=#FFFFFF;fontFamily=Manrope;fontSource=https%3A%2F%2Ffonts.googleapis.com%2Fcss%3Ffamily%3DManrope;" edge="1" parent="FdhFarl18-zCwnV5q0Lz-30">
          <mxGeometry y="13.774714454509649" width="50.26455026455025" height="50.25" as="geometry">
            <mxPoint x="18.0952380952381" y="16.789714454509646" as="sourcePoint" />
            <mxPoint x="27.142857142857135" y="25.83471445450964" as="targetPoint" />
            <Array as="points">
              <mxPoint x="18.0952380952381" y="25.83471445450964" />
            </Array>
          </mxGeometry>
        </mxCell>
        <mxCell id="FdhFarl18-zCwnV5q0Lz-35" value="" style="endArrow=open;html=1;edgeStyle=orthogonalEdgeStyle;rounded=0;endFill=0;startSize=6;endSize=2;strokeColor=#FFFFFF;fontFamily=Manrope;fontSource=https%3A%2F%2Ffonts.googleapis.com%2Fcss%3Ffamily%3DManrope;" edge="1" parent="FdhFarl18-zCwnV5q0Lz-30">
          <mxGeometry y="-14.724694761717211" width="50.26455026455025" height="50.25" as="geometry">
            <mxPoint x="27.142857142857135" y="4.370305238282789" as="sourcePoint" />
            <mxPoint x="18.0952380952381" y="12.410305238282787" as="targetPoint" />
            <Array as="points">
              <mxPoint x="18.0952380952381" y="4.370305238282789" />
            </Array>
          </mxGeometry>
        </mxCell>
        <mxCell id="FdhFarl18-zCwnV5q0Lz-43" style="edgeStyle=orthogonalEdgeStyle;rounded=0;orthogonalLoop=1;jettySize=auto;html=1;exitX=0;exitY=0.5;exitDx=0;exitDy=0;entryX=1;entryY=0.5;entryDx=0;entryDy=0;" edge="1" parent="1" source="FdhFarl18-zCwnV5q0Lz-1" target="FdhFarl18-zCwnV5q0Lz-38">
          <mxGeometry relative="1" as="geometry">
            <Array as="points">
              <mxPoint x="120.02000000000001" y="-680" />
              <mxPoint x="120.02000000000001" y="-725" />
            </Array>
          </mxGeometry>
        </mxCell>
        <mxCell id="FdhFarl18-zCwnV5q0Lz-44" style="edgeStyle=orthogonalEdgeStyle;rounded=0;orthogonalLoop=1;jettySize=auto;html=1;exitX=0;exitY=0.5;exitDx=0;exitDy=0;entryX=1;entryY=0.5;entryDx=0;entryDy=0;" edge="1" parent="1" source="FdhFarl18-zCwnV5q0Lz-1" target="FdhFarl18-zCwnV5q0Lz-31">
          <mxGeometry relative="1" as="geometry" />
        </mxCell>
        <mxCell id="FdhFarl18-zCwnV5q0Lz-45" style="edgeStyle=orthogonalEdgeStyle;rounded=0;orthogonalLoop=1;jettySize=auto;html=1;exitX=0;exitY=0.5;exitDx=0;exitDy=0;entryX=1;entryY=0.5;entryDx=0;entryDy=0;" edge="1" parent="1" source="FdhFarl18-zCwnV5q0Lz-1" target="FdhFarl18-zCwnV5q0Lz-22">
          <mxGeometry relative="1" as="geometry">
            <Array as="points">
              <mxPoint x="120.02000000000001" y="-680" />
              <mxPoint x="120.02000000000001" y="-635" />
            </Array>
          </mxGeometry>
        </mxCell>
        <mxCell id="FdhFarl18-zCwnV5q0Lz-46" value="" style="group" vertex="1" connectable="0" parent="1">
          <mxGeometry x="230.02000000000007" y="-820" width="90" height="40" as="geometry" />
        </mxCell>
        <mxCell id="FdhFarl18-zCwnV5q0Lz-47" value="&lt;font face=&quot;Manrope&quot; data-font-src=&quot;https://fonts.googleapis.com/css?family=Manrope&quot;&gt;Target Loader&lt;/font&gt;" style="rounded=1;whiteSpace=wrap;html=1;" vertex="1" parent="FdhFarl18-zCwnV5q0Lz-46">
          <mxGeometry width="90" height="40" as="geometry" />
        </mxCell>
        <mxCell id="FdhFarl18-zCwnV5q0Lz-49" value="gNMI Subscribe" style="text;html=1;strokeColor=none;fillColor=none;align=center;verticalAlign=middle;whiteSpace=wrap;rounded=0;" vertex="1" parent="1">
          <mxGeometry x="140.02" y="-709.85" width="40" height="20" as="geometry" />
        </mxCell>
        <mxCell id="FdhFarl18-zCwnV5q0Lz-50" style="edgeStyle=orthogonalEdgeStyle;rounded=0;orthogonalLoop=1;jettySize=auto;html=1;exitX=0.5;exitY=0;exitDx=0;exitDy=0;entryX=0.5;entryY=1;entryDx=0;entryDy=0;" edge="1" parent="1" source="FdhFarl18-zCwnV5q0Lz-1" target="FdhFarl18-zCwnV5q0Lz-47">
          <mxGeometry relative="1" as="geometry" />
        </mxCell>
        <mxCell id="FdhFarl18-zCwnV5q0Lz-51" value="poll/subscribe" style="text;html=1;strokeColor=none;fillColor=none;align=center;verticalAlign=middle;whiteSpace=wrap;rounded=0;" vertex="1" parent="1">
          <mxGeometry x="290" y="-747" width="70" height="20" as="geometry" />
        </mxCell>
      </root>
    </mxGraphModel>
  </diagram>
  <diagram id="wO7ODci3JMZLIo7peneC" name="File">
    <mxGraphModel dx="1298" dy="1630" grid="1" gridSize="10" guides="1" tooltips="1" connect="1" arrows="1" fold="1" page="1" pageScale="1" pageWidth="413" pageHeight="291" math="0" shadow="0">
      <root>
        <mxCell id="5XE9SqGnpC9WFnmvLsv9-0" />
        <mxCell id="5XE9SqGnpC9WFnmvLsv9-1" parent="5XE9SqGnpC9WFnmvLsv9-0" />
        <mxCell id="wbGkfZSJKg4nD9_Trj5R-0" value="" style="group" vertex="1" connectable="0" parent="5XE9SqGnpC9WFnmvLsv9-1">
          <mxGeometry x="59.9957142857142" y="-750" width="30.158730158730158" height="40.15" as="geometry" />
        </mxCell>
        <mxCell id="wbGkfZSJKg4nD9_Trj5R-1" value="" style="group" vertex="1" connectable="0" parent="wbGkfZSJKg4nD9_Trj5R-0">
          <mxGeometry width="30.158730158730158" height="40.15" as="geometry" />
        </mxCell>
        <mxCell id="wbGkfZSJKg4nD9_Trj5R-2" value="" style="endArrow=open;html=1;edgeStyle=orthogonalEdgeStyle;rounded=0;endFill=0;startSize=6;endSize=2;strokeColor=#FFFFFF;fontFamily=Manrope;fontSource=https%3A%2F%2Ffonts.googleapis.com%2Fcss%3Ffamily%3DManrope;" edge="1" parent="wbGkfZSJKg4nD9_Trj5R-1">
          <mxGeometry y="13.774714454509649" width="50.26455026455025" height="50.25" as="geometry">
            <mxPoint x="3.0158730158730167" y="25.83471445450964" as="sourcePoint" />
            <mxPoint x="11.05820105820106" y="16.789714454509646" as="targetPoint" />
            <Array as="points">
              <mxPoint x="11.05820105820106" y="25.83471445450964" />
            </Array>
          </mxGeometry>
        </mxCell>
        <mxCell id="wbGkfZSJKg4nD9_Trj5R-3" value="" style="endArrow=open;html=1;edgeStyle=orthogonalEdgeStyle;rounded=0;endFill=0;startSize=6;endSize=2;strokeColor=#FFFFFF;fontFamily=Manrope;fontSource=https%3A%2F%2Ffonts.googleapis.com%2Fcss%3Ffamily%3DManrope;" edge="1" parent="wbGkfZSJKg4nD9_Trj5R-1">
          <mxGeometry y="-14.724694761717211" width="50.26455026455025" height="50.25" as="geometry">
            <mxPoint x="11.05820105820106" y="12.410305238282787" as="sourcePoint" />
            <mxPoint x="3.0158730158730167" y="4.370305238282789" as="targetPoint" />
            <Array as="points">
              <mxPoint x="11.05820105820106" y="4.370305238282789" />
            </Array>
          </mxGeometry>
        </mxCell>
        <mxCell id="wbGkfZSJKg4nD9_Trj5R-4" value="" style="endArrow=open;html=1;edgeStyle=orthogonalEdgeStyle;rounded=0;endFill=0;startSize=6;endSize=2;strokeColor=#FFFFFF;fontFamily=Manrope;fontSource=https%3A%2F%2Ffonts.googleapis.com%2Fcss%3Ffamily%3DManrope;startArrow=none;" edge="1" parent="wbGkfZSJKg4nD9_Trj5R-1">
          <mxGeometry y="13.774714454509649" width="50.26455026455025" height="50.25" as="geometry">
            <mxPoint x="27.142857142857167" y="26.024080505198754" as="sourcePoint" />
            <mxPoint x="27.142857142857135" y="25.83471445450964" as="targetPoint" />
            <Array as="points">
              <mxPoint x="18.0952380952381" y="25.83471445450964" />
            </Array>
          </mxGeometry>
        </mxCell>
        <mxCell id="wbGkfZSJKg4nD9_Trj5R-5" value="" style="endArrow=open;html=1;edgeStyle=orthogonalEdgeStyle;rounded=0;endFill=0;startSize=6;endSize=2;strokeColor=#FFFFFF;fontFamily=Manrope;fontSource=https%3A%2F%2Ffonts.googleapis.com%2Fcss%3Ffamily%3DManrope;" edge="1" parent="wbGkfZSJKg4nD9_Trj5R-1">
          <mxGeometry y="-14.724694761717211" width="50.26455026455025" height="50.25" as="geometry">
            <mxPoint x="27.142857142857135" y="4.370305238282789" as="sourcePoint" />
            <mxPoint x="18.0952380952381" y="12.410305238282787" as="targetPoint" />
            <Array as="points">
              <mxPoint x="18.0952380952381" y="4.370305238282789" />
            </Array>
          </mxGeometry>
        </mxCell>
        <mxCell id="wbGkfZSJKg4nD9_Trj5R-6" value="" style="group" vertex="1" connectable="0" parent="wbGkfZSJKg4nD9_Trj5R-1">
          <mxGeometry y="10" width="30.158730158730158" height="30.15" as="geometry" />
        </mxCell>
        <mxCell id="wbGkfZSJKg4nD9_Trj5R-7" value="" style="group" vertex="1" connectable="0" parent="wbGkfZSJKg4nD9_Trj5R-6">
          <mxGeometry width="30.158730158730158" height="30.15" as="geometry" />
        </mxCell>
        <mxCell id="wbGkfZSJKg4nD9_Trj5R-8" value="" style="whiteSpace=wrap;html=1;aspect=fixed;fillColor=#001135;strokeColor=none;connectable=1;allowArrows=1;fontFamily=Manrope;fontSource=https%3A%2F%2Ffonts.googleapis.com%2Fcss%3Ffamily%3DManrope;" vertex="1" parent="wbGkfZSJKg4nD9_Trj5R-7">
          <mxGeometry width="30.148963159878864" height="30.148963159878864" as="geometry" />
        </mxCell>
        <mxCell id="wbGkfZSJKg4nD9_Trj5R-9" value="" style="endArrow=open;html=1;edgeStyle=orthogonalEdgeStyle;rounded=0;endFill=0;startSize=6;endSize=2;strokeColor=#FFFFFF;fontFamily=Manrope;fontSource=https%3A%2F%2Ffonts.googleapis.com%2Fcss%3Ffamily%3DManrope;" edge="1" parent="wbGkfZSJKg4nD9_Trj5R-7">
          <mxGeometry y="13.774714454509649" width="50.26455026455025" height="50.25" as="geometry">
            <mxPoint x="3.0158730158730167" y="25.83471445450964" as="sourcePoint" />
            <mxPoint x="11.05820105820106" y="16.789714454509646" as="targetPoint" />
            <Array as="points">
              <mxPoint x="11.05820105820106" y="25.83471445450964" />
            </Array>
          </mxGeometry>
        </mxCell>
        <mxCell id="wbGkfZSJKg4nD9_Trj5R-10" value="" style="endArrow=open;html=1;edgeStyle=orthogonalEdgeStyle;rounded=0;endFill=0;startSize=6;endSize=2;strokeColor=#FFFFFF;fontFamily=Manrope;fontSource=https%3A%2F%2Ffonts.googleapis.com%2Fcss%3Ffamily%3DManrope;" edge="1" parent="wbGkfZSJKg4nD9_Trj5R-7">
          <mxGeometry y="-14.724694761717211" width="50.26455026455025" height="50.25" as="geometry">
            <mxPoint x="11.05820105820106" y="12.410305238282787" as="sourcePoint" />
            <mxPoint x="3.0158730158730167" y="4.370305238282789" as="targetPoint" />
            <Array as="points">
              <mxPoint x="11.05820105820106" y="4.370305238282789" />
            </Array>
          </mxGeometry>
        </mxCell>
        <mxCell id="wbGkfZSJKg4nD9_Trj5R-11" value="" style="endArrow=open;html=1;edgeStyle=orthogonalEdgeStyle;rounded=0;endFill=0;startSize=6;endSize=2;strokeColor=#FFFFFF;fontFamily=Manrope;fontSource=https%3A%2F%2Ffonts.googleapis.com%2Fcss%3Ffamily%3DManrope;" edge="1" parent="wbGkfZSJKg4nD9_Trj5R-7">
          <mxGeometry y="13.774714454509649" width="50.26455026455025" height="50.25" as="geometry">
            <mxPoint x="18.0952380952381" y="16.789714454509646" as="sourcePoint" />
            <mxPoint x="27.142857142857135" y="25.83471445450964" as="targetPoint" />
            <Array as="points">
              <mxPoint x="18.0952380952381" y="25.83471445450964" />
            </Array>
          </mxGeometry>
        </mxCell>
        <mxCell id="wbGkfZSJKg4nD9_Trj5R-12" value="" style="endArrow=open;html=1;edgeStyle=orthogonalEdgeStyle;rounded=0;endFill=0;startSize=6;endSize=2;strokeColor=#FFFFFF;fontFamily=Manrope;fontSource=https%3A%2F%2Ffonts.googleapis.com%2Fcss%3Ffamily%3DManrope;" edge="1" parent="wbGkfZSJKg4nD9_Trj5R-7">
          <mxGeometry y="-14.724694761717211" width="50.26455026455025" height="50.25" as="geometry">
            <mxPoint x="27.142857142857135" y="4.370305238282789" as="sourcePoint" />
            <mxPoint x="18.0952380952381" y="12.410305238282787" as="targetPoint" />
            <Array as="points">
              <mxPoint x="18.0952380952381" y="4.370305238282789" />
            </Array>
          </mxGeometry>
        </mxCell>
        <mxCell id="wbGkfZSJKg4nD9_Trj5R-13" value="" style="group" vertex="1" connectable="0" parent="5XE9SqGnpC9WFnmvLsv9-1">
          <mxGeometry x="230.02000000000007" y="-700" width="90" height="40" as="geometry" />
        </mxCell>
        <mxCell id="wbGkfZSJKg4nD9_Trj5R-14" value="" style="rounded=1;whiteSpace=wrap;html=1;" vertex="1" parent="wbGkfZSJKg4nD9_Trj5R-13">
          <mxGeometry width="90" height="40" as="geometry" />
        </mxCell>
        <mxCell id="wbGkfZSJKg4nD9_Trj5R-15" value="" style="shape=image;verticalLabelPosition=bottom;labelBackgroundColor=#ffffff;verticalAlign=top;aspect=fixed;imageAspect=0;image=data:image/png,iVBORw0KGgoAAAANSUhEUgAAAtIAAACrCAYAAABL2HuKAAAACXBIWXMAAC4jAAAuIwF4pT92AAAAGXRFWHRTb2Z0d2FyZQB3d3cuaW5rc2NhcGUub3Jnm+48GgAAIABJREFUeJzsnXl4m9WV/7/nSt6y2ZJtQsK+lq1sCZAUCJIDoaFQ2tIAHZYWSklZYscpHWba30zVmU5bBhpbSghNNzqlpZC0dKEFCsRWwpqwQ9mXpiyBEEtynM229N7z+0N24iReZOt9z5Wc+3mePE9iy/d75Eh6z3vvOd9DsFgsFsPsO31hxdZyXzuAUilNBm5NtTZcL6UnSTAUvQqEn8qo8aeTrfP/JqOVpSrUdLwi9ZykZi/E6shEfN5rJrSLgkhEBVcGHgQw04D648nWhlOlRQN10X8jxg+k9IjwXKKl4UQpPcvgKNMBWCwWy5Yx/qkQTKIBgIDLg7NjEyQ1xSBME1JiJ126RkhrO6R806U1e9GkP2tKuxgIrgxEYCaJBoieMKLLYu+3Xj0zz9PSLzaRtlgs5tHCF6Is47mL/8WArgAk8/skvLbx0WtTIlp9kU5c+kDAeaa0C52aUFMIwLeMBaDxpAlZAk4RFjTyPC39YxNpi8ViHII2khgR06gr7cjusvORImKGdsYIbCyRBjB9fOiWGoP6BcnEWbftpUndCcBnMAzxBLPyzKaDAewtqakyNpEuJGwibbFYCgCS3dHZDh8dCEVPM6PtEV2YBqnPdmLxC/r4mYurARwmrdsHX6kqmW1Qv/CIRFS6u/vXACYZjGJdMl7/vrSocpT0TV1iw6r6t4Q1LYNgE2mLxWKUqrrFBwDYx5S+IlxjStsTBMseWMvXpPq1ngaApHX7wky2vKMP1auC3wLhLLNR0GNGZJlE6/WJ8ARALKlpGRybSFssFqOQdow1jgEAA1/ca2bzRJMxuAqLlclsStVOelVIazsk9/wGgWdjdqzMdBSFQGBm7HRm/o7pOAD50xEAIBJ+PRqqA7cMjE2kLRaLUUiZaxzrodTR+KrhGFyCCUQnC4mtxvILHSGtHZDsDuAAjAt26xmmgzDNhLMXBknzrwH4TccCpcVPR/advrACoGNFRZWyjh0Fhk2kLRaLWQw6MOwIgeZizjKTTVKuUBOOHg6gWkhO/oIeiSgAJ4nr9gPrPb28g8nX7b8dwP6mIwHQPcGpEvcVN2DbqbmMnxbUs+SATaQtFos5ZsfKCDjedBgA9g8kPjrHdBD5wqzEdmvZgENCoKX6aAAF4f1NwPmmYzBJILzoBgIXiqf2c2vjV3SKq8rbdv49eX99h7CmZQhsIm2xWIwR7OIpDBRErSlpXfRNhyxXr8kZTssPYvHpQijr6GX/wIxFnzQdhAmq62InE/h7puPYDrMZG0Zm4dejmedpGRybSFssFnNo6QvRIBB9unZG1KStmgsIDWIB3tgUv6FNSKsvxsuA+qLUnjflsCrUVMXMd0F4EukQmGnAI9lBLMTKNhoWIDaRtlgs5lBiiV8ukOPjr5kOYqRMnHXzWABHC8mZuqAXzo0XAKY9bcohk4L6BYCDTEfSF/bL2zD22HZOltQkkm+otAyNTaQtFos5CqDRcGfoygNDt5ebjmIkZDLlp0DIPYENjCiuCjVVAThcWncITqoN3So61c4kwVCsHoTPm45jFz5MPdzwrrSoAdvO9rbWhjeENS05YBNpi8VihJqzFk0GsK/pOHahehNtvNB0ECOCHblBLCy/A6ig5CY25o5yyCn6JtVcqAlHpxDhJtNx7I6h+mhp205mO4ilQCm0DyWLxbKHoB3nVNMx9AeDirPpkMXKZLa0c/JlIa0dUAHV0/dhTyjvqA3dOk4DvymUxuCdIPmbOgAAC5cZmXqeliGxibTFYjGDXOI3XKbVhKNTTAcxXJggNIiFVyMeycho9aUwXy/EPGvyeUvHmI7DSzRllgL4hOk4+oNNTPrL2nYeJ6qpzExutAyNTaQtFosZuCAm1PWLJnzddAzDobIudggAkTHnDBPOAUwokEEs/TBm2+bOkOkgvCJQF/06A/9iOo4BSFeML39WWtSAbadmqhC3m7Tkhk2kLRaLPHMipSA+wXQYA8K4ZMLZC4Omw8gVpQX9lQ00GgbDTUcBCEjr5ori0VneEQhFjyHGQtNxDAjj+XX3zt0qritv2/lK6uG5G4U1LTliE2mLxSJOdVvVCQAK2R2jwp/2X246iJwhsbIHTqcNHKWzKsiyjl6Y8NmeXfNRw8RZN48lhWUAKkzHMhAm3GMAyNt2mnqelpywibTFYhGHSW6U9UhhxnXFkhyR0KASBr29+ZH6DRJaO0GFWwbUw+SauubCPWEZAd3psiVgHGk6jkEx12go7NhhGw0LGZtIWywWeQrOP3p3CHxodThWZzqOodh3+sIKAMfKqJkaUVyYjYZ90VCjZsphsC56BYEL/kRGZ0i+zGjGj/aDtG2nsjvShYxNpC0WiwEK08psVxgoeCu8zRXqJAAlMmryzgHB2bEJABf2zigAZhoVddI1MxcfDkbUdBxDwx9vXDXvH+Kyfp/0TV178vTka8KalmFgE2mLxSJKzelNkwDsbzqOHDk/GIoV2tCYnSBBG0F2lPyOdBcKcRDLbhD4hEJ/rQzFgaHby7V2lgEYbzqWoWBSjxsSFk6kaTUiES2raRkOBf/hZLFYRhfs9xXFbnQPfii+ynQQg0FyZTJb21XyJSGtHRRBGVAPxMBnTAeRDx3UsRjS/sgjxYR/NCBv20nWP7rQsYm0xWIRhbk4yjq2w7gaU5YKlU6MAMIpMjJ4yswgluJ5vRBx0ZZ3BMPRCwF81XQcucJKy5+OzI6Vidt2sqm+BEuu2ETaYrHIQkWzw9jLpOD4rvNNB9EfVXWLDwAwWUSMYeCCzgRITWzMHwLOrA3dOs50HMOlNrTwUAA/NR3HMMiU+dPPSIsGt0HatpOddKkdxFLg2ETaYrHIkd3ZPdF0GMOGdEE2HZJ2RvUglurQ4k8AKJrBOAyUacrMNB3HsJgdK8uQ/24AE0yHkisMenH9g9/cIi6shDcBCK9tfPTalKimZdjYRNpisYhRXbXteABjTMcxfKguGF54tOkodoUEL+yK/aultHphJTix0SUYxTXlsLqTFxK4yG5uDZU7iPtHmzgFsgwXm0hbLBY5xDve3URdbTqC3ZC7sL+zIX7dR0JaOyieRsM+8HmIRIri2hoMN1/AwLWm4xg2bKoBT7he3zYaFgVF8Wa3WCyjg6JrNNwJ+vLEWTePNR3FdmbHygg4XkKKYMghgVCErxfaq3pl1UmmoxiKwJnR/QH6iek4RoJW8jaMNWctmgxh207WdqJhMWATaYvFIkgx70ijMp0uvcR0EL0Eu3gKA2UiYgbqo2tOvWk8GEdJ67qBpgIfzjJlaQll6C4UUf15H9o2tsx7R1pUZwT7EbJsStVOelVY0zICbCJtsVhEmDjrtr0AHGQ6jjwpnGNwwbIH0vI7gFxafjIAn7SuGxBQ0OPCgxM6bwIV5+kQMZ7IWnYLI1+WthrLL3SENS0jwG86AIul2Jk46+axnVvHlpK/q5L9u9+cso/baUs5b3z0mnYjF4ACIdPd+SlQ0d+7Hxec2TQ9uaKxAI5caRog8nLa1labeFFCaCeIpoOL9O3C+GTljEUHGRlhPQSBcPQcAPNNxzFiyFADnrxtZwF8xhQe26+3pXoCq/T2G+1yVb65W6uu1MNzN0rHZBNpi2UIakO37s2+zJGa+VBiOpQZh4EwCcDeAPZKpzHGV5IGoID+9g8cACVpBMMxANF2ACkASSJ8CI33mbCOCGsBet3Rzhvt8cZ2sScniaJpMnmft7BW16AwLnIyF3bG01ge6RbR6ivLXMxlQPD7nc8AWGw6jr5kR5jz/wEg07GMFFIG6vWnLC0BOkWdTdhUX4JBKk9bEvD7M1OY+GAm7A/G/gQcgGxt+kQAFek04CtJZ/cQnB0bM2mnGwSgOhztYmADwB8B6h8Av8ZErxLhheSKea96sZllE2mLpQ+Vpy0JqJLMp4j4JNI4kQlTHGQmQwMAZfPA/C5BVT1/DmLesVZ2442hSCEYjq4H0zsgvZZBa8H0TyK9lhx+l5zu99seu3FTXhGYoqgdO3aggAsnzrrthvUPXvOxqRhqzlo0WWf0fiJiRpwDmICYyMRGr2Cm81BIiXQo4gfpuwCqMR1KHjjk+J+SFq2u2nY8a5K07eQMp0f3IJY5kdKqRNU0BToZTFMZmEJIH9qb5Y403e3pG9kXoH0BnppdiwEGqsOxDZpijynoFUrrBzbEF7zlxlOxibRlj6Yq1FRFyjebWJ8BqNOA9JEAFLhnppoZJoJ4IkDTCej5RCGwj8C+cgTD0S0A1jNIE1jkGIscfVliVePIG19CET8DU1wMyRgMlHV3p68AcJOpGHSaPyW1p0hQ4ol07YzYoQ5QzAkfAIQDZy6tNHHU3B/VCPw3A6eajiNPXtoQv26zuKr8JsAbm+I3tAlres74mYurSzhTx0znURvOQ3ZTCQCLfJwxUEvMn2PQ5xzyIRiOvgPgYRA/7NMl94/0tWUTacseR3DGj/YjX8nnGfxZADPAXJLdGi6auoOxAA4muXg7E2N9eXXJ16jKYzWj6EYnDwQRX4M5y24x1gykIFcmQxnxQSzax9OLuPqglxLKdJ0F4HemAwmGop9mwr+ajiNfiM2UO2RtO0Vfj6OmrKMq1FRFRP9CrC6Fdk4BSBXQO/tgAFeD6WqHMluC4egyMP0kGa8f1u/fJtKWPYPZsbJgl/4sgS5nxqcZbF/7ufM07q/vymcBh2ma4IdnGkCJxxoHBNo+PDsF3OexTv8wS5U9vJtoWfCBkFYfRkcZEBPOg+FEeq+ZzRMzGrdjNLh0kaGJhsKvR+Zi949mqqqLnk5MVxHwRQAVRdBnPxbAFSC+IhiOvkiMn2h/+a9zOVEq/jeWxTIIVXWLDwiGmpuCnfwhmJYx41zYG8hhkv/FSxFJWW1tA7BIQkgRrpHQ2Y0pS0sgVSZDeFxEZxcYxTiIZXcIfC5CEXOfN5GIymj6DbKN0UUPKb/4Tq0J20424NvuClOWllSHYl8JhmOvKqaVBFwGoMJ0WCPgWCYsJqfzH4Fw9F/3nb5w0OdgE2nLqCQwY9EnA+HorxQ7b4JoPoCA6ZiKFQI9lu8aWq7G8Cn2IQog47UQM86pnLFI3Be7umrb8ZC6OGn5C3rP9MhjpHU9IhhAwNjuenBl1XcAzDSl7zKJthXXvSktmunu/JSw5JZ2Tr4srJkfcyKlwbrmrwUndL7OxLcD+ITpkFwiQMBNW8t9bwTDsSsxZ1m/vvY2kbaMKirPbDo4GI7+jnz6hZ67Ya+P+Ec9PpWfa8P40C01BD7ErXgGg4AnUw83vAvGvQJyyq/01QI6O6OV2G4tGXDs6EqXTcUoOjVS2fIOcarrFtUB9G2PZRIer9+X1UZ8+JV0mRGvRjzi+UaAK0QiKhiOXRlsC7wJpp+g+AduDcS+AP880PbRwz2j4nfCJtKWUcHEWTePDdZFIz5HvQzgAoyCTqWCgPDmxyvmr89nCb8qnQ6p/4+eI1HlkynvYMJVB4ZuL5fQ2q4JLXJhJ6ArUa6el9Dqiw8svQPoKWxgyuHEWbftxazvgLeTIdME/MjD9XeCyEzdMLNYWVpWz4BLzkioCUenBFcGHgf458j6PI96CBzijH4+ULdodt+v20TaUvQEQ9FPp9Olb4DxHQCiSc1ox5WmF8lR1j61GgDaVjS0ApCYxlezEZsuENDpg8wOGQPP5NtkOhI0INVImUb/I5Tc5oja0MJDBXSyRCIqne6+A8BuO2duQqAbNEhu59RAmVFPfbusbSfrgm40rDxtSSAYbo5qYDXk3qsFQ9ZCT/+1uq75h4hEFDCKjs/wLNcijfkAzgJQbTocywAwukH4b5xCd+a71IGh28s3qY0RZnwT9qbQEwicd300mKcL7UevbXto3rodsrSEiH/stSiRvgbAb7zWAbI7jel0t8zxqaEdQJKa2Ag82/N5dLrXQg6p8wA0ea0DANXxwL8zYZbHMssSrfWxYCh6j9B7W3MFxAeU9Nh2jhWU5LSjxO0mcyUQjp5D6L4doL1Mx2IYYqYbq1cFjnZCTZeNjkR6De+HNB5BdpSkpZDJfugG812mOrToiA7qWA6m0dKUVJCwo/JLpuYs81Hbhye5FM7g7NLpXjG+7I7OzZ3fhwuvtyGET62pazqxraXxWW91ehqfSOie0cAOYGVd7BAwTxQRY34ChHcB8jyR7ply6HkiHQzFpjHxdzyWeQPl9DUAAAntSBJeTt5f3yGi1QfWSmoTIKsHenvzI/Ub5BRzZE6kNNgW+CGA+QDZsskemHGuInV38e/iPcrjexqLbBJdHDyCf+K2fBYIhBedyqQfwejp7C9UOlJ1iby6x6vaPjoGEBrEskvit+7euVsB/FJEmkmo6VBJHqWKJ9JKy5UBAXhSM/8BApOYiDBj/MzFnp6UVp62JADiu+Btg/UWwPlC8v76jqq6xQfA4/KR7TDMlDso0dcj3LAadZvKGYsOCrYFVgJohO092pX1Clxf3In0MvahBL8BcJzpUCw50Y4MLsOFNOK6xOpQ7CsE3YLiHx9cDDyOSETnswARG3WYcIiWAMjrOeSofkngzKWV3suI+SuvS8br3xfS2oHg64X99ER7vHEtgBcE5Hx+1h6WWzCpkvTt8HhDicDXJlsXvAwApB25JjxTvsos7Wcu75IzGMFw89k+n34BcuVWxUQbFNW1tc5/vbgT6QPQDJixFrKMAMY1OJX+OdIfD4RiN/Z4VJa6GJVlQPKvkSWhRsOBHCY2ttS/DeB+gRDGKd15uacKc5b5WKzxKX/v8BGpyl2w16Uebni3R/UPEoLE2rNrVbAu9g0CzvdqfQBg4NZE6/xf9f6bBHdrSedZYjYCxoduqeHsCGkx8i6lc5HqUPTLAN0LYLzpWAqQDsVqdnJF/StAMTdoreZGANebDsOSI4yfYhrdNdIfr66LziPiH7oZkmVwXGk0FJpQN7jDBMtY4QHXAOzZ0WfV+o+OhVSZjIGdsZ7pYccKyW1PWNiRSaQBOqdnKqWrVM9sPgmM/3F73V1Ykyqnb+z0FTk3nvZEKPGGkNZ2RG07s2xtV8mXBPUGJLtphdth5zD0x1ZNfF5bfN7TvV8ozkR6NX8GwM2mw7DkzFvYhgUj/eFgOHo1M6JuBuQy3QC2mg7CZRzq7syrS37C2QuDAA5zKZ6hGDDxS7Y2PAjgNc8jYBxZE2o+w6vlyafljpmVvAXX5gp1EqQu3H1KBVKr5r0EQCJRq6yp6jzNzQWrQk1VrOlueHtKl3QcdfFON6qzY2UEHO+hZl+ezLfEbEQI2nYCAAFPmR/EwhQMN/+4Z9PK1kPvAgFdIPp8e8v8VX2/XnyJ9BN8IoC74a3RvMU9uqBwIcK0eSQ/HAw3XwDgNph/U28CsAKMW5jpUnbUscqv9ikfVz422dpQlmxtGJusSZWVlJROVOAjAFwExi0ErASwzXDsI+Gltsdu3JTPAr5u3zSIDWIZbAeVmAhLJMLQpK7xbnWxCWvdE5yq54S0tkNyY+TBvMsROuPPErpau1uKqIh+Dm+nyWkmdenGVfP+0feLwS6ewkCZh7o7YFP10XL1+lk9Qw2VfQjWLboZoLmm4yhQHCa+LNlS/+Cu3ygu+7vVXA3gL4Cor6MlHwiNOIlGdFEOzowdBc23w9wN3ysE/IUUHmhrL38Uz8xND/ro5ZHu9cDHyP55HcAyIOt3vZE66gi4EsDnIHETyHiIfXwDaUwC0WRo7A+ifQDeB1k7uJKeP72lApXY+ffckm8IxDxdzCkp4wx6saWuzl9yafn3AEzwOJIvVNct3CfRsuADtxcmwjTv/SUAAM+tjV/RKaLUF6LpYJEnmB7bmX421fcrCn8A4wYB7fOBkZ/O9aW6LjqPGV9wY60BIfx3qmXe7j0Gkru1yoCfuaRtZy+mGip7CISj3wfzN4Z+5B4JA3R1sqVheX/fLK5E2odaOHgXMjt8FZCbkrdrEjMaeAOMb+EU+v1Ifjg4OzYBnXwPzDQ6rIDim5Ir5j/kxmI9Scl9AO4LhKLHKMJiBjwrAQAAEM4iTQuSrQ1f8VRn0BjEdhjXJVd9473BHtD22I2bAuHoHQRc53Esfmb/VwH8l5uLjp+5uBrakZmOx2YsuIj5ZBEhxvPvP7Fgp2tIckbqyeDKwIcAJnmsfnD1jKYjE6saX81nkcDM5mNZ4ya3ghqAFcnqSf/d/7domoBrIACw0+1/SkKoL1UbPvgkSAn1I2RR7Dc2iKU6FP02A/9uSr/AYSa6LtVS/4uBHlBcifRUeg3WhmXkLGMfJnm+IwdUQGMqbcxrjU7+BYBPuBNQzqwmxfMSK+Z79sGdijf8HZFIXTBe9V0Q/T+vdHr4crAuujLZ0nC7xzq7E4korITUIJbHc3mY30HU8eFaeF5uwnMxZekPhjzBGAZ+JzMdJDYIQXxnrCrUdCCkPImpnxuFSEQj3PxniWNt7VPnARhxIl0bunWcozPLkN3s8Qh6rzuDL2H5hQNZlQpdh+mVjY9emxr6cS6rKiV1+tPLOxvi130kqthDdSj2FSb+ngntEbINQAZCm2wMujHVUj/o7IviSqQt+ZH1bxb/UBougXDsMwBfICjJYHw3WTvpe4NcONwjEtFJ4D+C4WgKwI881WI0V9ctfNCLUoPBCLRUHw2f9t5XGQB0bg4TG1Y1vBkMRR8G4SyPI5pcXdl5bgJwzQ2CIDRBDll/ZSmtXkj5pMo6wDzg8/sDAM8Tacpatv7vSH9eU+bH8HaTIc2gL21+ZF6/E/Zqzlo0WWf0fh7q98GMr7KUbed2PQM3rwBQHW4+BeAfm9AeBAfASyA8zcAzStNbRPq98k797k4nSXOW+SZ0vF9JDlX5tO9QYj2VmaaCMA1unSwxfy8VbxjS2MIm0pbCYk6klBLcJLUbQEAXgy9JxuePqAQlH5KtDQuDddHpYHzRQ5kJmn03Aqj3UGM3yO9M89AJbieYfDlfhFjRImL2OpEGa1wDFxNpEEk1Pn24w19ZDmI9TaovlaH7fb0kOypaghM6UwACHocwfXzolppN8RvahvuDwXD0agYu8SKoXoh4QbJl3oDWlzrNnxJr/TbVaChk27kdA/XRNac3TdKgeyDVNDoI2esw/sLMf8wg80BO743lFzodQBLZP+8A6GkCZKquW3SSZv4cAV/ASG86CdFk6/z/yOWho60u11LkBNoC88EylmkEdGnQBclW+SS6F631N5G1z/MMAr42cdZte3mpsRsslvilx3amn831wakZyb8i+6HrLYQza8LN7uwaRiIKECqTMTWiWO71sr5nmuHuPDM3TTLDe3yl5D9nuD8UCEWPAdDkQTx9oLsTLfMXD/oQybHZ5MgPYsmOcpey7QRgYODM7FiZ9qt7IFVONTD/BFFjN6f3TbY2fDEVn//rkdxg7gxxoqV+Taq14VvJ1oYjlEIdgN8jWw6SK79IttQ35vpgm0hbCoaaU28aT8C35RT56lRr/V/l9HanPd64lr2/eJd3Z7q97e7fFRK72D63a+PYoEQiGoRB691cgrRL9baBluqj4b3bSBaSL+s4MHR7OQjHiYjx4PX0zDLDWZhoWDZ4E2fdPJYUlgEY41FIAPAGynH1kI9iLfXe7kie0ZFXU+ZI8GstZ9uZZVtbbeJFQT0Eu/gmGO03o/fA+Fqyo/ywZEt9c/7J88C0rWhoTbY2fFGzPoyA2wgYYHDXdpYlayZdDVDO5+I2kbYUDFxSfjmkEgZwrO+4W5ModrEEYADI2/KRnagKNVWBpRpFh19DqbX+GYAtHgSzK1dMnHVz3ladkoNYWMsfMW+kzVPg7UCR7fAQR+g++B6AhCsU49OYHcv5SD2dLr0VjCM9jGgL4HwheX99x6CPmrK0BKATPYyjL0YGsZDcjUIWxtNYHvH0VLIvNTOjYTDmSentQpqA/y0p6ToyGW/4mZsN2UPRHm9cm2htuJaZDiXGvQM87K/JjvJLh9srZRNpS4HAxIRrRaQIb5aPqygYq5+MVquGflR+EHBazwhmz1FQ0yD02cKkhp34tccb2wG604t4dqEq3V1ysQvrSF3Y0xXjy3Muk3ELIsmJjYPvuG+IX7eZGA8LRDIu2JWbBWZ1KPYVAF/2MhgiXJNsXfDykLFUbTsenrqF9MVMo6GgbWePntzzDM6OTdAapmYzvK5Zn5xobbhx/YPflNjI6JdkvP79RLzhs0S4HMB2dzFmtI7pdOaMJLm3ibSlIKgOx+oAHCUixvzv6+6dWzAjvTeuun4thle/NWwYKOssIxnnB8EaSp2hEV6EMlFIGOESXZ//GkK/T8bzRt4Xcg4J6YoxZc8M9SBW3p8QAQDnMOWwdkb0MCaOeRoH0+JES8MdOT1YK7nTkWE0EbuGaD9CFsLwNwNGTCc3AThATK8HAn7jY//U9njj89LaA5FoabiDfTiWQXEAq33pzvOHVSbYB5tIWwoC7fGOSx/+nmxtuEdIK0eIkR1B7imalMyRLEt1vPPHu44uzpVk64KXCfD8JADA8dV1sREPGpEskxmq7MFDhBJpfiGXG4U0+f4Mj29sAYCIP4tBrG0ODN1e7viwDN765a5JVeQ+0ZEhVvbATklafEBJTz+CjG1nL5QReZ7BcPPZyE7XFYb/K9Faf9mG+HWb5bUHJ/Vww7upM5Izfew/s+2xG0d8DbaJtMU8kYgi8NkSUgT66XCaCATxfuw9s4D3KxOEdnSYVE6DWAb8efAit2IZXEdfM9KfVUSnQOpz2kCjYeDM6P4A9pHQYs5t52/TiusTDHrU63gA7B+YGf3kQN/soE0xAMd7qJ/UrC/C/fVDNV/1Qazs4fWOvy1ICmltR7IfoYd/inj8z1nmA+gWz3V2hplwTbJ1/ncK9JqbJRLR+Sb5NpG2GKdmZeAEgCTs2Zxu7paojR0WgTOXVkKg2YqIar3WCM5cdCS89+HNkmdjXLJm8h8B/NOlaAaG6aIeS63hI+cfnUeZzMghR9JKLXdrP+WmB/hgOk7/7h3BcPRCgL/mobQY/sJlAAAgAElEQVQG45IBrQD7ocdC8yDvQtoJMzaM0k4WJPM8g4l1VwI4RkKrl+xEwIZCG/biCTaRthiHiWYLCa3x0mZnpJDuPFpChz32qwYAOIIOE/mWIiy/0CHwT1wKZzAqSti5YkQ/yVI7gCMvk8kTuXp6X/+DWPqDGfdAoIaeafc66drQwkMB/NRbYfxXMt7wwHB+JNPd+SmvwukHQ42Gwom0gEvOxFk3jwVTxGudnWBuTrXWDzkRcLRgE2mLeZjPFJFR3CKhM1wYOFZIx/tGMiV29JspYd+QjWND0c2ZnwDodCGeQSHG13samYYBE8Ajrq8enlJ+ZTJ5IFdP/3BjzoN4kvH69wHO+/WVAyfVhm7de/u/ZsfKMuS/G97agK5I1k763rB/Su69DXaEB5RA2rYzCw3hIuMG6XTZNyA6eIUfS6L9m3J65rGJtMU4UokkQEPaO5mAmEISOgr0huciQhPqGPSiG80rPScUd7sQ0qAwcEhwZdWwRpNXz2g+AkVSJjMiZsfKCDhBQoox/ISFZMo7lIP0Z3r/EdiGWwjsYVMwvZfm9MXD9ckFIHg6gk2piRNfEdLajqRtJ5CdrJsowwteatScetN4gBd4qbELCbC6GPGI5826hYR/0O+u4TPAuAjAQeAhHmvZcyB0gXAHTqa8E5Ca05smaaFkQQFvS+gMi0hE0UquE+nEIPq7l8sHZ8cmoJO9HBqxHeWix6x2KKp87LlrDIOuAfC3nB/v802XcOgDAFZafAcw2O2cyFA5DyXJCx7Bzp/Df4CP/seDaHaiZ8rhzwN1sfOI+ToPpdIM+tKIytvmLPNx24dTPIipP9aMKNHPF4VpQm83AAADzwyv0XP46NKyqyDqQkL/mj3N2bMYODlezT8E48bt/5YcmGkpfBjHwYWdPKfUdyhpmU+vDJAQERoG1SsDYQY8bwIEsK1iW9rbZKlbnwKQkMOEezuo7avqnwuGYk+A2NPddALOrQo1HTiMBi+xMpkyf1qijGFntGCpwAheL4lVja8Gw9HXABzhQUjbIWBWdWjREcz6l/DwSkuMxmR83mMj+dmq9R8dCx/GuR1Tv3DuTaHu6kqVGfXgtUvOnGU+tH2Yv4997jyabJ13O1AvKFkY9H/Re5KvBvok0RbLrjDiLq1T5co6OVCqfcamKQ0EA5cJST0yUrP5nBEc1qAy7pYiMPFiN9cbAB8pdVXOjyYWSTQZ9KKZSWNKZkAQkCkr6Xp6JD9IjD+6HUw/VDA5KwEEPVMg3JWIN9w64h/3yzXhMSDuHy1p27kdj8upghs++jyAg73U6ANrh+oL2ubOQ3ZPpJ/i2SCM+A1n2WPIbRLWUGhPm2p2oltrodG2udHTZHSRkFzOJQUjhsWGNSQ2rKp/y80FUx3lywF47ueqGFdjdmzIcoaaU28aDxaa9AlDO4CAiAtEXjcKikRs8Dy2/3wDZTQ3rxXY29OavkoZZMTr9UVtO3fg7fMkbvR0/Z3gP7Svqn9OTq+w2DmRfoqPgcZvMVTttGXPhrAO72KFG0spsNhrzV/i1Ehp5YJD6X8HUC6k5nEizQQiEYcJIjzh+s7HM3PTIPzM1TX7gYHawDb+/JCPKy0/GYDP63iyYu7Vm+dKzVmLJgMSA4KAfG4UEi3zngLoPTejEWYL4HwheX99Rz6LkJwt3JtGLEoFbTuz0Hte1hJXhxYdAaEbVQDMCt8V0ipIdiTSj/JkaNwH6fGYluKD8WtcSK40gzCx2NhQ1mrAKWLSBGYs+iSyzWcSPJlsXeCpY0l1aPEnAIxs6Mhw8ehIVKX1Ugh4bRNh6P93yUEsSt5qTKdZzpM4rxsFYgb/2b1gZCHCNfm+98fPXFwNxqFuxTQYDPmhQABErf168PR5Mjlf8nL9XViRWjH/RUG9giObSD/NY1CCPwIQ2iGwFDUOfu3aWgp57ZQMDz5HTmtgakO3jiOfvgNAiYQeMwnU/8rU8wJwtdGwL22PNH4I8O+9WHsXZmRvpAaGWez32baxZV7O/squoQQHseR5oyA15dBtmGlxoqUh7xI8v5OZDim7AY/e20MiZNvZR9Dj50kXe7t+X3iPmF44GArMCg7uhHShvaU4ITyLT9FLrq2n9TrX1hqa8yvPbJJqvuifKUtLNDJ3AjhOSPGjVG1yudciTGL10ZrL6SnPVle8yLO1+8r49NcH/i4TAJFGPGIPymRyQa6ePu8bhQSnVgIouImoQ7AmVYEbXFlJchCLduRtGGfHJgAytp3b8dBusroudjKAw71afxc+SnZUFO2JjVsorMHNAM43HYilSNBodnO5ZE3HmwCkzNv9yvE1CWntzuxYWWBC5/L+xgJ7yBIsj3g/GhxiOzp/z7feczCSKxqfAMO7RL0HBi7PXsB3p3ZG7FAAMvX8BPlGwylLSwDycOjIDly5UYhHMgy6z6WQJEhq1he55VFMLHZ6sKUdGz31uu+Xbn0KhAexTHCqPGvMY63FyjoY+D2emZuW0itU/ADOQNb1f9ejmy0QqBfMkQ4A8gbt/ZMyHUAPGoyNYmqE9QB+h2nkrh3U8kg3wtG34LFXay8E/mww3NyYbJ0vmlAHZ/xoP3Ty7wCINOT18KGP/Z4/z5pTbxqvgaO91unB86NfAi1h8O0ey4zjTn0pgCW7fkP7eLrYSbqSP0qvruw6gRkyDjou3Sgodv7ApC53Yy2P0WBcMgyv8sGJRBRWypxWM2ONkYl4WokNPgIABp5bG7+i0zMBRZ+Rejo+1r+TUSps/DiFppoOwrKnww8CJJJIZ6FbquuimURLg8AxPlMwFPsqCDcDcp7ZAEDgf3NjjPZQiDpMCNRQJirw22An3+SxJRkIdB3At+2+Y0pS/soOOX7Pd993hTVPlxrw5daNQkUX/21rObYAGOvGep7B+K9kvOEBt5YLtFQfDZ+WsSg1Vh+tp4EEJ8556JITODO6Pxwc5tX6fSFgQ1vtPo9IaBU6YscZFsuAUP6jxoeJYkYsUBf7Q1Wo6UAvBPadvrAiGI5eHayLvQzCTyGcRAO4L9E6/1ciSnJHv6CM9v5ie399F4N+7rkOcFRg5qLTdvsqiU1Ye0niRms35BoNXbtReP+JBdvAeNCNtTxkRbJ20vfcXJB8crZwPs8b8PpDzrazD549T3LoTK/W3hUGtRgZ5V6A2ETaYpxkS/0TBLwtrUvMn1OkXg+Goz8LhmLTepq8Rkw2eW4+OxhqbtpW7vsngKVgyDaxZPlIZXTuE/TyRS4xak/UbXxdQkiRcysAz2v/SOudrPAmn7d0DDNEbBqJTe0Air1eXL1RIFXI7h30XprTF3uQ2IjdJCslP9FQ1LazB/Z7NxqcwDO9WntXmDgupVXo2MErlgKAGBT9LhgyO6g7UwrgqyD+ajAc+wiIrSTC35n1q4B+zcdlCVW6ddP2yWhzIqUTOiaMK+tCUKuS/bXmw4j4cADHbQVOBVAOkqy42420Bl2cfKTxQxk5JnBMqhThSUQiWkIo0bLgg2A4+mcAF3irRBfsNbN54scr5q8HgK2bu05SUp/LJD/RcK+ZzRMzGgdKaBHcbaR0tL5XkepG9jOjkEgz6EueDDIhTJP4MCPg7d73gCyCtp1Z1qUebnjXm6WZGLGwN2vvjo+5VUqr0LGJtKUgSFRPujPY9tGNAEs1rfXH3gBfxIyLss1ePjiUgZMuRTAcZQAZtGW9nx0CwFq0tC4HmMBXtbc2rJQSrJ0RO9QBakXEhHdQNWiRAnucSKPUcegqAP8DAEQ8XeoujJRffEfaYZIbxOJyqUB7vLE9GI6uAiB2fJ4LxGhMxuc95va6VaGmKjA+4fa6/WLCPQYAk9jo8148e56VZzYfBEdN8mr9XUi1tTa8AcwXkitsbGmHpTBYfqED4qshZ4U3XAhCA1RGCIPRKFYX3UPWYUIIkq2hbG+tXwnA84ldTDQXc5ZlmzXlyh4SbSuue1NIaweC9fTKcf8IncEFVt5BdyfiDbd6sbKCmgapHMGjaaU5ILsj7WFDpV8rqdkEYMbzRvznCxSbSFsKhmRLw+PEiJiOowjRIJ6bjDdE5aXFhjWwky5dI6TVF0+SlJ3h/Wra1n0GAEhoEAuAJ01cCJnFGikTG1bVv+X2oj6/748wWrm1E6+jHFd7trrg9Eky4NhRc+pN4yFn2wkAYA9vGFjjWK/W3hUCvyClVQzYRNpSUCRCqR8wuexVPbpJM9GlyZb5PzWiTmIX21c3PnqtuId7+bjyXwNIeq2jQddUzlh0EIC9vdYCACKS3wGcsrQEhCkSUkTeTGxse2jeOgAmbuh2ZTMUfcHL4URgsZvkbW0d5Z6f/OyKqG1nlnTF+PJnPVudZJqUe5AfnFPA2ETaUlhEIjpVnbwIzPebDqUISEDxZ1It9b81IT5x1s1jpRwmIDCIpT/W3Tt3K4i8Hs4CAGf7lJYb+MHyjYY1EzqPBTBGRMzLnT8m4+UdRLg2uaL+Fe8UmACWsoV7ysh0PMEyox6959fdO3erd8uTWGkHEa2V0ioGbCJtKTyWR7pVie8qAPIet8XD85r11OSK+Q+ZCqArXTYVcg3L4tZYvTjKWQLAa7cQAuHfPNboRXM5yQ9ikWzsUsqzGwW/5nu8WjsXGFiUaGm4w0uN6hnNRwAIeKnRCxlwjwEAlvNrz+Lh8zwwdHs5gQ/2av3dYPWBmFYRYBNpS8FRU9d0os7oRwGMMx1LgXJ7+bjyU10bAzxCfGAxBwZ2vEuMhmLjw43vEOOvAlLlAhoA4WVPSwIGQq5UQHMZP+3V4htWNbwJwMPd4EFZk6pJ3eC1CPt8ckmmNjSIRa4foUdRefY8U/72yRDM5xTU+1JaxYC1v7MUFNXh5ss101JIJRXFxQcMmptqrZdI6oZEg6aRTN/VptTEiaYSFwAAK1oM5vNMxuAabMhqDGI7gH/3/EaB+R4QHeWpxu4kNeuLsDzSLaAl566CUvFEuse2s0ZSU2e860tQGTUZclas2shE1ALG7khbCoZgOPafDPolbBK9Kwzg5+wrP7pQkmgAILDUjs5q06Noky3zHgLwmskYXMOAQ8LEWbftBUDo6Nn7UgGlxG3wNBiXiJ1CkdigkrUb4td9JKS1HVHbTgAAf7xx1bx/eLU6ESZ7tXY/eFbnXazYRNpinjnLfMFw9OcAfxcQvK8uDlYo4KRka8NVqYfnbjQdTC+VZzYdDGCiiBibOPrdFWIiFrDC8x7S8mUyTrpLzkqNvTtC76WtpfFZAJ4lRrtD303GGx6QUKo59abxYAjttpupjxa07QQAMKnHvVyfQCJuPz10CWoVBba0Yzis4b3BuBzAwaA9IOHTWA8/YphK7o+e7SUU8Qfb1v0KoC95plGEEOE5DfXtVMu8gnQvURnfdCkbYi9rC4cDdXX9H5eWfw9ApelY8qA9EUq8gbisKDNNl/rEJNIyyRnhz2A0CCitSNbs/T8COgAALqk4BWARWziCmfe2YJlRFo8Hzmjw3oIJiYzzThFhE+lceZLDYNwDoApA4VjyewkBcHAwgEs9WX/K0pIgdf0G4DmerF98OAD/STEvamttjJsOZgjEBrFkuNuYY0df2h67cVMgHP0VAfNMx5IHTyIS8dqBZDc0idXTJ6VGF2umPyiwx4k0vZfm7otFS5sUpold35TQTU8fJs66eWw6jWMkNdnj50nMFSCxVLoCU5aWGLEsLFBsaUcuPM5BEO5GbxK9Z+FRXSNTYELnz20SDQBYC+bvafIdkmydf0FbvOCTaJCUlRnhrU3xG7w7ERkmfgeL4L0VnnewAT/uOct8BJ4qpCY2sbG9Zu9HCdjgoUQaxBdLv/6ZxeqjOxPBdvEJeU63/yTIbiJmyvzpZ7wUYCLJwTKoCXbXSuoVOjaRzgUfbgKwp75wPvZi0WA49iMCLnNxyW4CfgOg3cU1vaQNhJ9p4jOSrfUHJ+Pz/6O95fp/mg4qF/advrACkBlHy0zGbO/6I2t9Rsa8u/NGyf8+q9Z/dCzkrCzlbhSWX+gwcK9XyzN4frKlwdPa2n5UBW3h+BkhB5KdVUmJlnUw6MX1D35zi5caSnZCI6D1J0T1ChybSA/FU3wygCtNh2EQ1zuqg+HoAgCNLi6ZJtYXJVobLh3T6Uxm4BIi/AXANhc13OBFBn7AUKclaybtnWxp+Fp7y/xVUjtobrFljH8qgBIRMQMOE0PBrBebjmGEsNPtFx/EQn45KzUSvvFi9si9g3BXqnX+Ek/WHoTaGbFDIWULZ+gmWQs3Gko0VLJQTft2PUeqGbU4sDXSg9HKfmgsxZ58w0FY7+Zywbrop8D4oZtrgvmmRLzxjwDw/hMLtgG4E8Cdk89bOmbblq6ZxPrMni7tEyCUABLQxcDzAB4n1qu6HN9jmx+p9/IYWA4tZx3FmcJLpFPxhr8Gw7E3ABxuOpbhQa9sfPTalLis3Chmrf1lojcKlah8eBNtvMnNNTUrx699P3BzzZy1/YL10SAjvQ+Ctp1ZCsJ1yF2YEAYwKlyM3MAm0oMxBo0AjjcdhmFcS6THz1xcDa3vAtjFZJbeKx9f3u9FZ929c7cie/R6L5AtSegsKznaIX04AUcwcCAx9gZhEgETefjlO90EvMfAWgBrCXgbrF9VWr28YeKkd0x7H3sFMaYJOTBsaVfJl0SUhgUxEF0K4EemIxkeZi7oRDxdJDkjvCxtEbk2fkUnIDba3XtYzs2CVEZ8R7qyLnYImGVsO3vQHo6r74WhEkLNvL2cjdmxMtxfb63wYBPpgVnD+4Hxn6bDKABcK+0oZaeZgf3cWg8AGPqHPQnzkPTsVj/d82d3piwtqa7cspfWvoCPUMZMAQ1dTlDl1Ft7TXqTYp1wKvwfGxmzXAiQTA0lg55CPJKR0BoumvUvFKn/AjDWdCw5Y6DRMHvz7BwqIsbeTY7bYyCxHel3Ey0LPhBR6oPSYpsAvbRtbJn3DlDvqQgxfyz8vMYFtvHnU8BdoqoFik2kB0KjGSTWIFO4OHDlwy4Yik1j5kvcWKsPyYpxFb907az6mbnpBPAB4M5zHo1UhZoOBGSmaKkCPhJtjze2B8PNvwZorulYcoYc8R1Av5OZDhLy5SJTwz1GBz22cJ8UkjP13hatjybGExI9MKzoY2LZVhsi/BvAdxdbj48X7Lm1v0NBONF0CMZhrEEJnnVhIQJxFO5PLfxdrrvRFncgKLkLUQE2Gu6EUjEUj6N8R/KMjlfFVZVcYxdldGG/XgocUVs4MtNoKGbbuV0QIs9TgVztZcqR46rDUTedt4oWuyM9EFtxGMZgP6hhJn8OAnnpKlTlNTXRQSUorxukCWD4AKzHeNyPoylv0/VA3eJPg3FyvuvsCjN7Zj1l6R8SHNag2F8Qg1gGIrmi/pVAKBqnbONNoWNkEAvJNRq2J+o2vo5VQmqjEEepaWJ7ix5P+uuPfacvrNgqZNvZCymZ5+nozDuK5PdFGdQcDMVakvH698XFCwibSA9EmDIA/mE6jNEAsfakQIyVvwAb0UY5cs1I/9gQv85160W3UUSLGVwEibSBMplIRGElThJSM3KjMKoQuukhoCtRgecktPqyZYx/Kmk3G92HxCFHxm6yPd64NhiOJgBUS+j1IQDF91WetuQMI45AOVB52pKAb3zG8bKnyZZ2WDyldkb0MACzPFhat89oe8+DdS0DMTtWRsBxElIEmSPRfEnU7P0nZF1bChsDnr2BR6qOATBBRMzExMZRBgkNYmGmZ424PQjadvbw0ob4dZvF1NiNMswR6X7S50//reb0pklG9AegNrTw0EA4uthXkn4P2/TXvNSyibTFU7SfLoI3rzMVeHTSeA/WtQxAoJOmMlAmIlbo9dG9LL/QYcJS02EMAWfKnDXiqo7gBDkDExtHE5UzFh0EYG8RMUNNoYJlRlk94c0AAjwdQz6E+Enar56uCsfOMBYDAIQi/kCo+dxAOPpHh3yvE3AdgLEg8nSonk2kLZ7CrD/t1drK2XaEV2tbdofYEWw0LFzHjl3J6PTPUHhTNPvyesffFiSlRUlpqdeLkYmNownl03I3Pabe20K2nTuQfZ5k3rVmsgK3BsLRXwVn/MhVm9uhqArHjguGowuDFHifiO4l4HzsnN8eFayLfsorfVsjbfGMytOWBIC0dx9eTF8BUNANaaMKRVKNhp2JYPsLIkousCl+Q1swHL0LwBWmYxkAMxdYlnLsMDSxcXQhd5OcccQTaUnbzl5I+UWfZ3mnfmhruW8zYNS2lwi4DD7/xcG66O+V1kvbavd5xP3hZEw14diJGjgHwBcBHrqJlHElgMfdjSOLTaQtnqFKnWlg715jTLgyOLPpV8kVjabvxPcM5I5Gn8bySLeQlito1jFFqlATaROJSxWkRqib34kregSnla5LrvqGeG+LqG1nlkTbiuveBK4XE3z/iQXbguHYXwG+SEx0YErAuFiTujjY9mGCwtEHwHiCffpZ1dn997bHbtyU60KTz1s6Jr2xcx/28ZEadBzAxwOxT+nhlyJdVBu6db4Xdes2kbZ4B/MxHiuUQqvfB0LRC1Pxhkc91tqj6Tmq21dErAgbx9rjjc8Hw9HHAXh2fDhS2PF+RPGukPJPB2uZ0kFdPGVAhciBodvLO6hDpIkY5M2O4JCyxNPdH2MwKE8aGVTC+B0IhZBI96WagUtAuARaQZeWIxiObgTofQY2EDgDcAegHDD32v9OQHZnfZ/OzZ2V8AE7/v9G/P84zkH6IgA/z/sZ7YJNpC2eQWCJ0cCTiLAqGGp+gAh3dXPmvk3xG9oEdPcsfP7RX0OZJ8xYRFRwifSm1MSJr0iLZuvphRIXn/yNwmhiI22eQkCpiJixmx65wUAAQGRmXH35+LL7Ojd3poA851l4TyXAlTs+IQgAC3xkqK/CJtKWIqNKSIdANJuB2SVU4gTDzc8B9DITXlPA6yB+P8MqiW5/0tZSjhi5CXVUnBPqUpvKfx+c0PkBgH1Mx9KHNe7XJ+YA03ShPHpj8vTka1ghojUqIdLTxeZzGnBXOTB0e3kHOo4XFWUz5Ubr7p27NRhuXgTQf5rQL3iIpwdnxo5Krqh3dXPBJtIWzyBGBYuepgEAfABNBTCVuGd+MxN8YKAkjWA4ygDakXVZ6ARhCxjdBGxmIL39iAloB5iJOKWZNJg2kmIHjA4Q0gBvVowuZrVVgzt9Sm9NK7Szj9s7ujo6EI9kxJ+5lzBNkzmppPcSLQs+EBByn2fmphGO/QTg75oOZTtGLuhMoJjUIJbVdhBLnsj1PqTHbHOek7aPEd1xz6K5nIy5yGRKddTf7VsAs02HhUu26fAGN5e0ibTFOwg5NxQIQsgee2WPvnpyQ97p2zv+xdwzr317Vt77bYLu+ToB0KzgcwA4QJACQDi6lYAPGfwRgPUM+oCAtQS8rR31zth0+q33n1hQyJZpO5gdK0MnnyAjVtyNYyUlJT/OpLu/Jea3PQRMSnx3PxhuOgrwyZxGUXEM7ilwpBLp50x85hE700CCOzqEl72cojcUHX9bkAyGoz8BsMBUDAUN85cxO/ZtN4cC2UTa4hkMrDcdg0HGMHAIQIcAO0q/GAD5NLb6fDoYjr4F0AvE/AIDz2joJ9vjje3mQu6f4DacAEK5jFpx1kf3sv7Baz6uDkd/B+AS07EA4Ax3y9tDsk+qrAPQxdeYWkj0NBHLlCKZuukhkp1oyOZv7roz9MNSP18OoMZ0LAVITbBTn5sEfu/WgjaRtngGMz9LkjsBxYUCcDjAhzNhTvYLSgfD0dcIWAmmexJIxguiRIS0XMe7Ku5EGgCYaTGICyGRftNI4y2J7XCamdg4mhBsImZzNz2y1ncFMJV18yP1GwLhaAMBvzEdS0HC+CpcTKTtZEOLZ5B2VgKw9Yu5owAcxcA1TPxQkAIfBcPNP66e0XSk2bBkOt4J6JrgVD0noeUlyXj9k2AYn7THMOMcAEAmOSO8ZmJi4yhDLMlk5RPfqRXdce+BdGG4yKRaG+5koj+ajqMgITo7cGZ0f7eWs4m0xTOSq77xHtj20+dBNUBz2adeDoajf60JR6cYikPkYsvAc2vjV3RKaHkNES82HYOJnbHAmUsrARwhIlYAR+hFj9j0SXzY3nL9P4W0diBp25mlPRFKvCGsOSAKmesBWDvY3VHk4MuuLebWQhZLfzCp7wJi5kqjFQJwjgbWBMLRX40P3SJW91Zz1qLJAFy7cx8ULv6yjl4S5epuGO4RYO3ID2LRXadA6rpSpH7jBcOcSClIqInY3JAl6YmGTxaSi0yiZcEHzPg8gKKaFCvElYhEXPmssom0xVNSrfMeA/Ar03GMEhQBl5VQyXOBUPQ0CUGdcSR3dEZPYnR/fRcTfmYwgi3t2Ph3cVXNgjW38p7Eo4nqtqoTAJkmYiZj/1fCO9KF95pMxRseZeAK2DLLXTmwOh6sc2Mhm0hbPKekpPs6AC+YjmMUsS8RWoN1sfmeK8kd/UIr/+hJpAH4fGoJgLQJbWasMdKoKtdo2JGqnfSqkNaohEnJJZnKwE3y7FgZAUK2nT0UQKNhf6RaG+4E4SoA8sOZChQiPAef3ujGWjaRtnjO+ge/uQVM5wIomNqxUYAfzE3BULTBUxUS22E0U0PpIW0PzVsHwp+MiBu5oDMBOFlGCquNTGwcTQgOYqkYU/aMkNZ2gttwgrCfOzvdfuNNxgORbGm4nYALAGw1HYth3mGif0nMSE1NrJjvyv+XTaQtIiTj9e/7HJwLYFQ0kxUMhKZgOHqhJ2tPWVoC0ImerL0bxT2IZSA0eJEJXZ8BP+7qGc1HAAiKiBXozl9xwUKJNL+w7t658skbaemyjlc2PnptSlZzeCRaG/5Ejp4Kwp54mtPGTP+WLKejUi31v3Wzlt0m0hYRguHmsx0fHoZQTd4eBAFYstfM5oluL1xdte14ABVur9sfDPkJfBK0t8xfBQNlTUpBfBAL+5WclRoVhsVYsVJzetMkAAdIaDGbem/LlaVlKY7m18SqxldRRrd9QQkAAAq+SURBVNMYWIQ9o9TjHRA1+th/UCpef5ObEw17sYm0xVMmn7d0TDAc/QVAD0DK/WHPozqt1f+6vqoe5TWUUjBErfAIePvjFfPlHUNYbIIcZ4jsIJY8YL9P7r1Npk6bpCcaFs+pWvL++o5Ua0O9In0yIH/TLQAzKE6ELyTPSB2WbKlv3hC/brNXYjaRtnhGbWjhoZ2bO59AtmPY4iEE/lJ13UJXBw8w9KiuoZRiTJfzGwAJMUFjo5ilSgXwxqYV18v9Pkchgu9taJ8Wv0nO2nbyfqKiJP8886WtpfHZ5BmpTxHjKwC9bDoeF/iAQd/3OfhEqrU+nGhp+IOEHaFNpC2eEAw3n+2Qbw2AY03HsodQwqyudndJqR0dQzWUQrz/xIJtAP9CTNDAKOaaU28aD8ZRImLGdjhHEWJuPPzxxocb35HR2oGwbScAdCTP6CjOuuNIRCfiDf+XbJ33SRCdDeABFNXsB/4YwC+Y1DnJmkkHpFrrv71hVcObkhH4JcUsewaBUPRiZL2jS0zHskdB9HkA33FjqcrTlgSAtAbg+UWQif7mtYZpHMd3m8+nLxDRgn5MQqcvXFp2FAAR1xUCtUjojFoiEYWVCEDgvQ1Q3HuN3WGogwkslsBTgQ1iGRnEyRY8CODBmnDzJxi4gEHnA5iKwtt0fZFBfyHGvclQao3p3z2ZFLeMPgJ10a8T41YU3htvT4BVRu/T9kjjh6YDsVgsFkvxU3N60yRdQueC1VkATwVwkHAI7QCtBvRqBq3OKN/qQivtsom0xTV6kujbXF62nYEfEDALwAzYXe4h4C8mW+f/3nQUFovFYhl9TDh7YdCfUVOYaYpifJIZ+4GwDwH75Onb3QnCP8B4hxgvMfh5RXi+rbXhDYAKutTEJtIWVwjWNc8B028B+FxcNk3A7ERrwwoA2Hf6wootY/xTFevjGOpAgA8AY39kbZxct38rRgjUkGitj5mOw2KxWCx7FhNn3bZXt9O1t3LUXuzTBEYVNBSIKvs+jhhdTLxZMScc7U/4ONNWzCepNpG25E113aI6sL7P9SlSxFcnW+b/NNeHV562JKDK0+ORwQTy6fHQNAGECQCqoDEBisYTuBxMxEBVH6FK9JaisB4Hot5d7zHY8ZzKev4NAGORHTxRcLvjDPwg1drwLdNxWCwWi8WyJ2CbDS15UXN60yTNzm8BcjWJJuA3iWEk0QDQM1VKbLJUbejWcY7P2R+sj4bGsSB8GqApMHiDSswiA1QsFovFYrHYRNqSD5GI0ivp1wDt5eayDHpLdW+7xs01vaDH4P2Vnj/LAfxHMBTbFwrzwfx1ZHeuZSHaJK5psVgsFsseinVWsIyY6pWBGwGqc3tdBb6h7bEbizIhTMbr30+21N8ApiNgYmIUoUNc02KxWCyWPRSbSFtGRHDGj/Zj4D9cX5jxVKK1/s+urytMMl7/PvvKz4aQt24vxPyxpJ7FYrFYLHsyNpG2jAjy+78PwPV6XCZECt3qJldSD8/dyEw/kNSk0THm1WKxWCyWosAm0pZhUxNaNJUZl7i9LgEbUjWTRtmUO5acMueUjisvzjG1FovFYrEUITaRtgwbTfqb8MCZgoE/Y/mFjtvrmqRifLnYmFoAb6+7d+5WQT2LxWKxWPZobCJtGRZ7zWyeCOBzXqzNwD1erGuS7vatlUM/yi24VU7LYrFYLBaLTaQtwyLNdAWAUi/WznB6jRfrmoRLfPsJyj0kqGWxWCwWyx6PTaQtw4KAf/Fo6Y82xW9o82htY2jGGUJSjmZeIaRlsVgsFosFNpG2DIPa0K17g3GMR8u3e7SuQZgIfKmQ2N/a442j8HdosVgsFkvhYhNpS85klBOGV+OvCaPC8q4vgbpF5wI4VkKLiX4soWOxWCwWi2UHNpG25Awxwp4tzjgQkcioeT3Whm4dR8wxIbl/pqr3vk9Iy2KxWCwWSw+jJnGxCOBdWQcAVAQeCZ7q4fpyRCIqo5w7ABwoIUeghaPNNtBisVgslmLAJtKW3CE+3NP1NX/D0/UlCEX8gZWBXxKzJxaB/fBGoqPsNiEti8VisVgsfbCJtCUnxs9cXA2g2ksNAs4PhJqlmvNcZ6+ZzRODFHiAgMukNJnoBjwzNy2lZ7FYLBaLZQc2kbbkRCnrQyR0FNHPgnWxWRJa7sEUCDVfmtH0AoCZUqpE+Euqpf5eKT2LxWKxWCw7YxNpS06QdsZI6DBQBua/VNdF5wHsjUOIazAFQ9FPB8OxJ4joDgATBcXXdaXpSkE9i8VisVgsu1DgiYqlUKiZGQ1rjRZh2TUEfCvRWt8CUMHY41XWxQ5RGl8k4isBeFs33j+OUjirbUWDHQlusVgsFotBbCJtyYmqUNPxitRzhuRfIcadGvhTKpR6BZGIlpNmqqxbdLDSmAZgGhGfCeAIOf3dIfC3E63zv28yBovFYrFYLDaRtuRI5WlLAr6SdNJ0HAA2gfE8FJ4F8AI0PmQfr/N184a2vff5eLg2cONnLq4ugZ5ITHtrzZOI9F4gtQ8x783gTwB0JICx3jyVEUD4WbKl4Wumw7BYLBaLxWITacswCIZj7wK8n+k4BkED2Njz93YADKAbQGnP1yqR7QsoAyBS8+0yDyQ5dR7ikYzpQCwWi8VisQB+0wFYigl+CEAhN7gpAIGevwcGe2DxwS0+Lpljk2iLxWKxWAoH69phGQa8zHQEeya0PFmuztkQv26z6UgsFovFYrHswCbSlpxJtjY8CNDLpuPYk2Cmxckzkhfj/vou07FYLBaLxWLZGVsjbRkWwXDz2QA9YDqOPYDNxDQvEa//pelALBaLxWKx9I/PdACW4mLb2gfeHnPg7L1BmGo6ltEKg571Kd+sROu8FaZjsVgsFovFMjC2tMMybMZjQiMRTHlKj2a6GfT9VE1yetuK698wHYzFYrFYLJbBsaUdlhFReWbTwT5HPQJgsulYRgn3+RzM37Cq4U3TgVgsFovFYskNm0hbRkztjOhhjg8tAPY1HUsR8zoTfTPVUn+v6UAsFovFYrEMD5tIW/Kisi52iI/5PgCHm46lqCC8xBrfT9VOWj7caYwWi8VisVgKA5tIW/Km5tSbxnNZ+RJmXGo6liJgNbH+YSI+/08AselgLBaLxWKxjBybSFtcIxBqvpSI/hfAJNOxFBgJEH7NxL9IrZj/oulgLBaLxWKxuINNpC2uMnHWzWPT6bJvAPxNAONMx2OQrQw89P/bu39X2uM4juPP99cJOUh+DiSDumy6g0lRZFE2g9FiU/IX2Fn8BTbDvZNYb938yGJwduUknZJ8D0rC93zeBjeDyeD4uLwe03f69Ppuz+FTH4ONtN429aCKiIjI16OQlqpoGlttz1ntHDBveH/sPR+kBGy7+1b+Pvw5O1i6iz1IREREqkchLVXm1jq+NkGwWWAaaIu96B2VwHbNfL8Swu7V38WC7j2LiIh8Hwpp+Tgzv2raLs9H3cMUMAL8BHKRV73VNVAAPzKzwyxL9q53Fk5ijxIREZF4FNISTdfkSr5SqR0OwYfABnAGMf8B1hlpkgMl8KJhRTeODQpZlhwpmkVEROQ1hbR8On1j6/W3lHseLdddY96L0xOgO3F6AzSa0YzRgFMHtAB1QJ7nEL76d8zLt2PB8BSsDCE1rOzuKUZqnpSBs4SseNFxc8rv5YcY/ywiIiL/nyfZjN/lfTww6gAAAABJRU5ErkJggg==;perimeterSpacing=1;strokeWidth=1;imageBackground=#ffffff;" vertex="1" parent="wbGkfZSJKg4nD9_Trj5R-13">
          <mxGeometry x="8.71999999999997" y="11.879999999999995" width="68.56" height="16.24" as="geometry" />
        </mxCell>
        <mxCell id="wbGkfZSJKg4nD9_Trj5R-16" value="" style="group" vertex="1" connectable="0" parent="5XE9SqGnpC9WFnmvLsv9-1">
          <mxGeometry x="60.01571428571421" y="-650" width="30.158730158730158" height="30.15" as="geometry" />
        </mxCell>
        <mxCell id="wbGkfZSJKg4nD9_Trj5R-17" value="" style="group" vertex="1" connectable="0" parent="wbGkfZSJKg4nD9_Trj5R-16">
          <mxGeometry width="30.158730158730158" height="30.15" as="geometry" />
        </mxCell>
        <mxCell id="wbGkfZSJKg4nD9_Trj5R-18" value="" style="whiteSpace=wrap;html=1;aspect=fixed;fillColor=#001135;strokeColor=none;connectable=1;allowArrows=1;fontFamily=Manrope;fontSource=https%3A%2F%2Ffonts.googleapis.com%2Fcss%3Ffamily%3DManrope;" vertex="1" parent="wbGkfZSJKg4nD9_Trj5R-17">
          <mxGeometry width="30.148963159878864" height="30.148963159878864" as="geometry" />
        </mxCell>
        <mxCell id="wbGkfZSJKg4nD9_Trj5R-19" value="" style="endArrow=open;html=1;edgeStyle=orthogonalEdgeStyle;rounded=0;endFill=0;startSize=6;endSize=2;strokeColor=#FFFFFF;fontFamily=Manrope;fontSource=https%3A%2F%2Ffonts.googleapis.com%2Fcss%3Ffamily%3DManrope;" edge="1" parent="wbGkfZSJKg4nD9_Trj5R-17">
          <mxGeometry y="13.774714454509649" width="50.26455026455025" height="50.25" as="geometry">
            <mxPoint x="3.0158730158730167" y="25.83471445450964" as="sourcePoint" />
            <mxPoint x="11.05820105820106" y="16.789714454509646" as="targetPoint" />
            <Array as="points">
              <mxPoint x="11.05820105820106" y="25.83471445450964" />
            </Array>
          </mxGeometry>
        </mxCell>
        <mxCell id="wbGkfZSJKg4nD9_Trj5R-20" value="" style="endArrow=open;html=1;edgeStyle=orthogonalEdgeStyle;rounded=0;endFill=0;startSize=6;endSize=2;strokeColor=#FFFFFF;fontFamily=Manrope;fontSource=https%3A%2F%2Ffonts.googleapis.com%2Fcss%3Ffamily%3DManrope;" edge="1" parent="wbGkfZSJKg4nD9_Trj5R-17">
          <mxGeometry y="-14.724694761717211" width="50.26455026455025" height="50.25" as="geometry">
            <mxPoint x="11.05820105820106" y="12.410305238282787" as="sourcePoint" />
            <mxPoint x="3.0158730158730167" y="4.370305238282789" as="targetPoint" />
            <Array as="points">
              <mxPoint x="11.05820105820106" y="4.370305238282789" />
            </Array>
          </mxGeometry>
        </mxCell>
        <mxCell id="wbGkfZSJKg4nD9_Trj5R-21" value="" style="endArrow=open;html=1;edgeStyle=orthogonalEdgeStyle;rounded=0;endFill=0;startSize=6;endSize=2;strokeColor=#FFFFFF;fontFamily=Manrope;fontSource=https%3A%2F%2Ffonts.googleapis.com%2Fcss%3Ffamily%3DManrope;" edge="1" parent="wbGkfZSJKg4nD9_Trj5R-17">
          <mxGeometry y="13.774714454509649" width="50.26455026455025" height="50.25" as="geometry">
            <mxPoint x="18.0952380952381" y="16.789714454509646" as="sourcePoint" />
            <mxPoint x="27.142857142857135" y="25.83471445450964" as="targetPoint" />
            <Array as="points">
              <mxPoint x="18.0952380952381" y="25.83471445450964" />
            </Array>
          </mxGeometry>
        </mxCell>
        <mxCell id="wbGkfZSJKg4nD9_Trj5R-22" value="" style="endArrow=open;html=1;edgeStyle=orthogonalEdgeStyle;rounded=0;endFill=0;startSize=6;endSize=2;strokeColor=#FFFFFF;fontFamily=Manrope;fontSource=https%3A%2F%2Ffonts.googleapis.com%2Fcss%3Ffamily%3DManrope;" edge="1" parent="wbGkfZSJKg4nD9_Trj5R-17">
          <mxGeometry y="-14.724694761717211" width="50.26455026455025" height="50.25" as="geometry">
            <mxPoint x="27.142857142857135" y="4.370305238282789" as="sourcePoint" />
            <mxPoint x="18.0952380952381" y="12.410305238282787" as="targetPoint" />
            <Array as="points">
              <mxPoint x="18.0952380952381" y="4.370305238282789" />
            </Array>
          </mxGeometry>
        </mxCell>
        <mxCell id="wbGkfZSJKg4nD9_Trj5R-23" value="" style="group" vertex="1" connectable="0" parent="5XE9SqGnpC9WFnmvLsv9-1">
          <mxGeometry x="60.00571428571422" y="-695.07" width="30.158730158730158" height="30.15" as="geometry" />
        </mxCell>
        <mxCell id="wbGkfZSJKg4nD9_Trj5R-24" value="" style="group" vertex="1" connectable="0" parent="wbGkfZSJKg4nD9_Trj5R-23">
          <mxGeometry width="30.158730158730158" height="30.15" as="geometry" />
        </mxCell>
        <mxCell id="wbGkfZSJKg4nD9_Trj5R-25" value="" style="whiteSpace=wrap;html=1;aspect=fixed;fillColor=#001135;strokeColor=none;connectable=1;allowArrows=1;fontFamily=Manrope;fontSource=https%3A%2F%2Ffonts.googleapis.com%2Fcss%3Ffamily%3DManrope;" vertex="1" parent="wbGkfZSJKg4nD9_Trj5R-24">
          <mxGeometry width="30.148963159878864" height="30.148963159878864" as="geometry" />
        </mxCell>
        <mxCell id="wbGkfZSJKg4nD9_Trj5R-26" value="" style="endArrow=open;html=1;edgeStyle=orthogonalEdgeStyle;rounded=0;endFill=0;startSize=6;endSize=2;strokeColor=#FFFFFF;fontFamily=Manrope;fontSource=https%3A%2F%2Ffonts.googleapis.com%2Fcss%3Ffamily%3DManrope;" edge="1" parent="wbGkfZSJKg4nD9_Trj5R-24">
          <mxGeometry y="13.774714454509649" width="50.26455026455025" height="50.25" as="geometry">
            <mxPoint x="3.0158730158730167" y="25.83471445450964" as="sourcePoint" />
            <mxPoint x="11.05820105820106" y="16.789714454509646" as="targetPoint" />
            <Array as="points">
              <mxPoint x="11.05820105820106" y="25.83471445450964" />
            </Array>
          </mxGeometry>
        </mxCell>
        <mxCell id="wbGkfZSJKg4nD9_Trj5R-27" value="" style="endArrow=open;html=1;edgeStyle=orthogonalEdgeStyle;rounded=0;endFill=0;startSize=6;endSize=2;strokeColor=#FFFFFF;fontFamily=Manrope;fontSource=https%3A%2F%2Ffonts.googleapis.com%2Fcss%3Ffamily%3DManrope;" edge="1" parent="wbGkfZSJKg4nD9_Trj5R-24">
          <mxGeometry y="-14.724694761717211" width="50.26455026455025" height="50.25" as="geometry">
            <mxPoint x="11.05820105820106" y="12.410305238282787" as="sourcePoint" />
            <mxPoint x="3.0158730158730167" y="4.370305238282789" as="targetPoint" />
            <Array as="points">
              <mxPoint x="11.05820105820106" y="4.370305238282789" />
            </Array>
          </mxGeometry>
        </mxCell>
        <mxCell id="wbGkfZSJKg4nD9_Trj5R-28" value="" style="endArrow=open;html=1;edgeStyle=orthogonalEdgeStyle;rounded=0;endFill=0;startSize=6;endSize=2;strokeColor=#FFFFFF;fontFamily=Manrope;fontSource=https%3A%2F%2Ffonts.googleapis.com%2Fcss%3Ffamily%3DManrope;" edge="1" parent="wbGkfZSJKg4nD9_Trj5R-24">
          <mxGeometry y="13.774714454509649" width="50.26455026455025" height="50.25" as="geometry">
            <mxPoint x="18.0952380952381" y="16.789714454509646" as="sourcePoint" />
            <mxPoint x="27.142857142857135" y="25.83471445450964" as="targetPoint" />
            <Array as="points">
              <mxPoint x="18.0952380952381" y="25.83471445450964" />
            </Array>
          </mxGeometry>
        </mxCell>
        <mxCell id="wbGkfZSJKg4nD9_Trj5R-29" value="" style="endArrow=open;html=1;edgeStyle=orthogonalEdgeStyle;rounded=0;endFill=0;startSize=6;endSize=2;strokeColor=#FFFFFF;fontFamily=Manrope;fontSource=https%3A%2F%2Ffonts.googleapis.com%2Fcss%3Ffamily%3DManrope;" edge="1" parent="wbGkfZSJKg4nD9_Trj5R-24">
          <mxGeometry y="-14.724694761717211" width="50.26455026455025" height="50.25" as="geometry">
            <mxPoint x="27.142857142857135" y="4.370305238282789" as="sourcePoint" />
            <mxPoint x="18.0952380952381" y="12.410305238282787" as="targetPoint" />
            <Array as="points">
              <mxPoint x="18.0952380952381" y="4.370305238282789" />
            </Array>
          </mxGeometry>
        </mxCell>
        <mxCell id="wbGkfZSJKg4nD9_Trj5R-30" style="edgeStyle=orthogonalEdgeStyle;rounded=0;orthogonalLoop=1;jettySize=auto;html=1;exitX=0;exitY=0.5;exitDx=0;exitDy=0;entryX=1;entryY=0.5;entryDx=0;entryDy=0;" edge="1" parent="5XE9SqGnpC9WFnmvLsv9-1" source="wbGkfZSJKg4nD9_Trj5R-14" target="wbGkfZSJKg4nD9_Trj5R-8">
          <mxGeometry relative="1" as="geometry">
            <Array as="points">
              <mxPoint x="120.02000000000001" y="-680" />
              <mxPoint x="120.02000000000001" y="-725" />
            </Array>
          </mxGeometry>
        </mxCell>
        <mxCell id="wbGkfZSJKg4nD9_Trj5R-31" style="edgeStyle=orthogonalEdgeStyle;rounded=0;orthogonalLoop=1;jettySize=auto;html=1;exitX=0;exitY=0.5;exitDx=0;exitDy=0;entryX=1;entryY=0.5;entryDx=0;entryDy=0;" edge="1" parent="5XE9SqGnpC9WFnmvLsv9-1" source="wbGkfZSJKg4nD9_Trj5R-14" target="wbGkfZSJKg4nD9_Trj5R-25">
          <mxGeometry relative="1" as="geometry" />
        </mxCell>
        <mxCell id="wbGkfZSJKg4nD9_Trj5R-32" style="edgeStyle=orthogonalEdgeStyle;rounded=0;orthogonalLoop=1;jettySize=auto;html=1;exitX=0;exitY=0.5;exitDx=0;exitDy=0;entryX=1;entryY=0.5;entryDx=0;entryDy=0;" edge="1" parent="5XE9SqGnpC9WFnmvLsv9-1" source="wbGkfZSJKg4nD9_Trj5R-14" target="wbGkfZSJKg4nD9_Trj5R-18">
          <mxGeometry relative="1" as="geometry">
            <Array as="points">
              <mxPoint x="120.02000000000001" y="-680" />
              <mxPoint x="120.02000000000001" y="-635" />
            </Array>
          </mxGeometry>
        </mxCell>
        <mxCell id="wbGkfZSJKg4nD9_Trj5R-33" value="" style="group" vertex="1" connectable="0" parent="5XE9SqGnpC9WFnmvLsv9-1">
          <mxGeometry x="230.02000000000007" y="-820" width="90" height="40" as="geometry" />
        </mxCell>
        <mxCell id="wbGkfZSJKg4nD9_Trj5R-34" value="&lt;font face=&quot;Manrope&quot;&gt;File&lt;/font&gt;" style="rounded=1;whiteSpace=wrap;html=1;" vertex="1" parent="wbGkfZSJKg4nD9_Trj5R-33">
          <mxGeometry width="90" height="40" as="geometry" />
        </mxCell>
        <mxCell id="wbGkfZSJKg4nD9_Trj5R-35" value="gNMI Subscribe" style="text;html=1;strokeColor=none;fillColor=none;align=center;verticalAlign=middle;whiteSpace=wrap;rounded=0;" vertex="1" parent="5XE9SqGnpC9WFnmvLsv9-1">
          <mxGeometry x="140.02" y="-709.85" width="40" height="20" as="geometry" />
        </mxCell>
        <mxCell id="wbGkfZSJKg4nD9_Trj5R-36" style="edgeStyle=orthogonalEdgeStyle;rounded=0;orthogonalLoop=1;jettySize=auto;html=1;exitX=0.5;exitY=0;exitDx=0;exitDy=0;entryX=0.5;entryY=1;entryDx=0;entryDy=0;" edge="1" parent="5XE9SqGnpC9WFnmvLsv9-1" source="wbGkfZSJKg4nD9_Trj5R-14" target="wbGkfZSJKg4nD9_Trj5R-34">
          <mxGeometry relative="1" as="geometry" />
        </mxCell>
        <mxCell id="wbGkfZSJKg4nD9_Trj5R-37" value="periodically read the file" style="text;html=1;strokeColor=none;fillColor=none;align=center;verticalAlign=middle;whiteSpace=wrap;rounded=0;" vertex="1" parent="5XE9SqGnpC9WFnmvLsv9-1">
          <mxGeometry x="290" y="-747" width="70" height="20" as="geometry" />
        </mxCell>
      </root>
    </mxGraphModel>
  </diagram>
  <diagram name="Consul" id="V9Pngm3cnaMO28GKwYzR">
    <mxGraphModel dx="742" dy="1306" grid="1" gridSize="10" guides="1" tooltips="1" connect="1" arrows="1" fold="1" page="1" pageScale="1" pageWidth="413" pageHeight="291" math="0" shadow="0">
      <root>
        <mxCell id="uk3EmByN9aPvMEIkgGHb-0" />
        <mxCell id="uk3EmByN9aPvMEIkgGHb-1" parent="uk3EmByN9aPvMEIkgGHb-0" />
        <mxCell id="uk3EmByN9aPvMEIkgGHb-2" value="" style="group" vertex="1" connectable="0" parent="uk3EmByN9aPvMEIkgGHb-1">
          <mxGeometry x="59.9957142857142" y="-750" width="30.158730158730158" height="40.15" as="geometry" />
        </mxCell>
        <mxCell id="uk3EmByN9aPvMEIkgGHb-3" value="" style="group" vertex="1" connectable="0" parent="uk3EmByN9aPvMEIkgGHb-2">
          <mxGeometry width="30.158730158730158" height="40.15" as="geometry" />
        </mxCell>
        <mxCell id="uk3EmByN9aPvMEIkgGHb-4" value="" style="endArrow=open;html=1;edgeStyle=orthogonalEdgeStyle;rounded=0;endFill=0;startSize=6;endSize=2;strokeColor=#FFFFFF;fontFamily=Manrope;fontSource=https%3A%2F%2Ffonts.googleapis.com%2Fcss%3Ffamily%3DManrope;" edge="1" parent="uk3EmByN9aPvMEIkgGHb-3">
          <mxGeometry y="13.774714454509649" width="50.26455026455025" height="50.25" as="geometry">
            <mxPoint x="3.0158730158730167" y="25.83471445450964" as="sourcePoint" />
            <mxPoint x="11.05820105820106" y="16.789714454509646" as="targetPoint" />
            <Array as="points">
              <mxPoint x="11.05820105820106" y="25.83471445450964" />
            </Array>
          </mxGeometry>
        </mxCell>
        <mxCell id="uk3EmByN9aPvMEIkgGHb-5" value="" style="endArrow=open;html=1;edgeStyle=orthogonalEdgeStyle;rounded=0;endFill=0;startSize=6;endSize=2;strokeColor=#FFFFFF;fontFamily=Manrope;fontSource=https%3A%2F%2Ffonts.googleapis.com%2Fcss%3Ffamily%3DManrope;" edge="1" parent="uk3EmByN9aPvMEIkgGHb-3">
          <mxGeometry y="-14.724694761717211" width="50.26455026455025" height="50.25" as="geometry">
            <mxPoint x="11.05820105820106" y="12.410305238282787" as="sourcePoint" />
            <mxPoint x="3.0158730158730167" y="4.370305238282789" as="targetPoint" />
            <Array as="points">
              <mxPoint x="11.05820105820106" y="4.370305238282789" />
            </Array>
          </mxGeometry>
        </mxCell>
        <mxCell id="uk3EmByN9aPvMEIkgGHb-6" value="" style="endArrow=open;html=1;edgeStyle=orthogonalEdgeStyle;rounded=0;endFill=0;startSize=6;endSize=2;strokeColor=#FFFFFF;fontFamily=Manrope;fontSource=https%3A%2F%2Ffonts.googleapis.com%2Fcss%3Ffamily%3DManrope;startArrow=none;" edge="1" parent="uk3EmByN9aPvMEIkgGHb-3">
          <mxGeometry y="13.774714454509649" width="50.26455026455025" height="50.25" as="geometry">
            <mxPoint x="27.142857142857167" y="26.024080505198754" as="sourcePoint" />
            <mxPoint x="27.142857142857135" y="25.83471445450964" as="targetPoint" />
            <Array as="points">
              <mxPoint x="18.0952380952381" y="25.83471445450964" />
            </Array>
          </mxGeometry>
        </mxCell>
        <mxCell id="uk3EmByN9aPvMEIkgGHb-7" value="" style="endArrow=open;html=1;edgeStyle=orthogonalEdgeStyle;rounded=0;endFill=0;startSize=6;endSize=2;strokeColor=#FFFFFF;fontFamily=Manrope;fontSource=https%3A%2F%2Ffonts.googleapis.com%2Fcss%3Ffamily%3DManrope;" edge="1" parent="uk3EmByN9aPvMEIkgGHb-3">
          <mxGeometry y="-14.724694761717211" width="50.26455026455025" height="50.25" as="geometry">
            <mxPoint x="27.142857142857135" y="4.370305238282789" as="sourcePoint" />
            <mxPoint x="18.0952380952381" y="12.410305238282787" as="targetPoint" />
            <Array as="points">
              <mxPoint x="18.0952380952381" y="4.370305238282789" />
            </Array>
          </mxGeometry>
        </mxCell>
        <mxCell id="uk3EmByN9aPvMEIkgGHb-8" value="" style="group" vertex="1" connectable="0" parent="uk3EmByN9aPvMEIkgGHb-3">
          <mxGeometry y="10" width="30.158730158730158" height="30.15" as="geometry" />
        </mxCell>
        <mxCell id="uk3EmByN9aPvMEIkgGHb-9" value="" style="group" vertex="1" connectable="0" parent="uk3EmByN9aPvMEIkgGHb-8">
          <mxGeometry width="30.158730158730158" height="30.15" as="geometry" />
        </mxCell>
        <mxCell id="uk3EmByN9aPvMEIkgGHb-10" value="" style="whiteSpace=wrap;html=1;aspect=fixed;fillColor=#001135;strokeColor=none;connectable=1;allowArrows=1;fontFamily=Manrope;fontSource=https%3A%2F%2Ffonts.googleapis.com%2Fcss%3Ffamily%3DManrope;" vertex="1" parent="uk3EmByN9aPvMEIkgGHb-9">
          <mxGeometry width="30.148963159878864" height="30.148963159878864" as="geometry" />
        </mxCell>
        <mxCell id="uk3EmByN9aPvMEIkgGHb-11" value="" style="endArrow=open;html=1;edgeStyle=orthogonalEdgeStyle;rounded=0;endFill=0;startSize=6;endSize=2;strokeColor=#FFFFFF;fontFamily=Manrope;fontSource=https%3A%2F%2Ffonts.googleapis.com%2Fcss%3Ffamily%3DManrope;" edge="1" parent="uk3EmByN9aPvMEIkgGHb-9">
          <mxGeometry y="13.774714454509649" width="50.26455026455025" height="50.25" as="geometry">
            <mxPoint x="3.0158730158730167" y="25.83471445450964" as="sourcePoint" />
            <mxPoint x="11.05820105820106" y="16.789714454509646" as="targetPoint" />
            <Array as="points">
              <mxPoint x="11.05820105820106" y="25.83471445450964" />
            </Array>
          </mxGeometry>
        </mxCell>
        <mxCell id="uk3EmByN9aPvMEIkgGHb-12" value="" style="endArrow=open;html=1;edgeStyle=orthogonalEdgeStyle;rounded=0;endFill=0;startSize=6;endSize=2;strokeColor=#FFFFFF;fontFamily=Manrope;fontSource=https%3A%2F%2Ffonts.googleapis.com%2Fcss%3Ffamily%3DManrope;" edge="1" parent="uk3EmByN9aPvMEIkgGHb-9">
          <mxGeometry y="-14.724694761717211" width="50.26455026455025" height="50.25" as="geometry">
            <mxPoint x="11.05820105820106" y="12.410305238282787" as="sourcePoint" />
            <mxPoint x="3.0158730158730167" y="4.370305238282789" as="targetPoint" />
            <Array as="points">
              <mxPoint x="11.05820105820106" y="4.370305238282789" />
            </Array>
          </mxGeometry>
        </mxCell>
        <mxCell id="uk3EmByN9aPvMEIkgGHb-13" value="" style="endArrow=open;html=1;edgeStyle=orthogonalEdgeStyle;rounded=0;endFill=0;startSize=6;endSize=2;strokeColor=#FFFFFF;fontFamily=Manrope;fontSource=https%3A%2F%2Ffonts.googleapis.com%2Fcss%3Ffamily%3DManrope;" edge="1" parent="uk3EmByN9aPvMEIkgGHb-9">
          <mxGeometry y="13.774714454509649" width="50.26455026455025" height="50.25" as="geometry">
            <mxPoint x="18.0952380952381" y="16.789714454509646" as="sourcePoint" />
            <mxPoint x="27.142857142857135" y="25.83471445450964" as="targetPoint" />
            <Array as="points">
              <mxPoint x="18.0952380952381" y="25.83471445450964" />
            </Array>
          </mxGeometry>
        </mxCell>
        <mxCell id="uk3EmByN9aPvMEIkgGHb-14" value="" style="endArrow=open;html=1;edgeStyle=orthogonalEdgeStyle;rounded=0;endFill=0;startSize=6;endSize=2;strokeColor=#FFFFFF;fontFamily=Manrope;fontSource=https%3A%2F%2Ffonts.googleapis.com%2Fcss%3Ffamily%3DManrope;" edge="1" parent="uk3EmByN9aPvMEIkgGHb-9">
          <mxGeometry y="-14.724694761717211" width="50.26455026455025" height="50.25" as="geometry">
            <mxPoint x="27.142857142857135" y="4.370305238282789" as="sourcePoint" />
            <mxPoint x="18.0952380952381" y="12.410305238282787" as="targetPoint" />
            <Array as="points">
              <mxPoint x="18.0952380952381" y="4.370305238282789" />
            </Array>
          </mxGeometry>
        </mxCell>
        <mxCell id="uk3EmByN9aPvMEIkgGHb-15" value="" style="group" vertex="1" connectable="0" parent="uk3EmByN9aPvMEIkgGHb-1">
          <mxGeometry x="230.02000000000007" y="-700" width="90" height="40" as="geometry" />
        </mxCell>
        <mxCell id="uk3EmByN9aPvMEIkgGHb-16" value="" style="rounded=1;whiteSpace=wrap;html=1;" vertex="1" parent="uk3EmByN9aPvMEIkgGHb-15">
          <mxGeometry width="90" height="40" as="geometry" />
        </mxCell>
        <mxCell id="uk3EmByN9aPvMEIkgGHb-17" value="" style="shape=image;verticalLabelPosition=bottom;labelBackgroundColor=#ffffff;verticalAlign=top;aspect=fixed;imageAspect=0;image=data:image/png,iVBORw0KGgoAAAANSUhEUgAAAtIAAACrCAYAAABL2HuKAAAACXBIWXMAAC4jAAAuIwF4pT92AAAAGXRFWHRTb2Z0d2FyZQB3d3cuaW5rc2NhcGUub3Jnm+48GgAAIABJREFUeJzsnXl4m9WV/7/nSt6y2ZJtQsK+lq1sCZAUCJIDoaFQ2tIAHZYWSklZYscpHWba30zVmU5bBhpbSghNNzqlpZC0dKEFCsRWwpqwQ9mXpiyBEEtynM229N7z+0N24iReZOt9z5Wc+3mePE9iy/d75Eh6z3vvOd9DsFgsFsPsO31hxdZyXzuAUilNBm5NtTZcL6UnSTAUvQqEn8qo8aeTrfP/JqOVpSrUdLwi9ZykZi/E6shEfN5rJrSLgkhEBVcGHgQw04D648nWhlOlRQN10X8jxg+k9IjwXKKl4UQpPcvgKNMBWCwWy5Yx/qkQTKIBgIDLg7NjEyQ1xSBME1JiJ126RkhrO6R806U1e9GkP2tKuxgIrgxEYCaJBoieMKLLYu+3Xj0zz9PSLzaRtlgs5tHCF6Is47mL/8WArgAk8/skvLbx0WtTIlp9kU5c+kDAeaa0C52aUFMIwLeMBaDxpAlZAk4RFjTyPC39YxNpi8ViHII2khgR06gr7cjusvORImKGdsYIbCyRBjB9fOiWGoP6BcnEWbftpUndCcBnMAzxBLPyzKaDAewtqakyNpEuJGwibbFYCgCS3dHZDh8dCEVPM6PtEV2YBqnPdmLxC/r4mYurARwmrdsHX6kqmW1Qv/CIRFS6u/vXACYZjGJdMl7/vrSocpT0TV1iw6r6t4Q1LYNgE2mLxWKUqrrFBwDYx5S+IlxjStsTBMseWMvXpPq1ngaApHX7wky2vKMP1auC3wLhLLNR0GNGZJlE6/WJ8ARALKlpGRybSFssFqOQdow1jgEAA1/ca2bzRJMxuAqLlclsStVOelVIazsk9/wGgWdjdqzMdBSFQGBm7HRm/o7pOAD50xEAIBJ+PRqqA7cMjE2kLRaLUUiZaxzrodTR+KrhGFyCCUQnC4mtxvILHSGtHZDsDuAAjAt26xmmgzDNhLMXBknzrwH4TccCpcVPR/advrACoGNFRZWyjh0Fhk2kLRaLWQw6MOwIgeZizjKTTVKuUBOOHg6gWkhO/oIeiSgAJ4nr9gPrPb28g8nX7b8dwP6mIwHQPcGpEvcVN2DbqbmMnxbUs+SATaQtFos5ZsfKCDjedBgA9g8kPjrHdBD5wqzEdmvZgENCoKX6aAAF4f1NwPmmYzBJILzoBgIXiqf2c2vjV3SKq8rbdv49eX99h7CmZQhsIm2xWIwR7OIpDBRErSlpXfRNhyxXr8kZTssPYvHpQijr6GX/wIxFnzQdhAmq62InE/h7puPYDrMZG0Zm4dejmedpGRybSFssFnNo6QvRIBB9unZG1KStmgsIDWIB3tgUv6FNSKsvxsuA+qLUnjflsCrUVMXMd0F4EukQmGnAI9lBLMTKNhoWIDaRtlgs5lBiiV8ukOPjr5kOYqRMnHXzWABHC8mZuqAXzo0XAKY9bcohk4L6BYCDTEfSF/bL2zD22HZOltQkkm+otAyNTaQtFos5CqDRcGfoygNDt5ebjmIkZDLlp0DIPYENjCiuCjVVAThcWncITqoN3So61c4kwVCsHoTPm45jFz5MPdzwrrSoAdvO9rbWhjeENS05YBNpi8VihJqzFk0GsK/pOHahehNtvNB0ECOCHblBLCy/A6ig5CY25o5yyCn6JtVcqAlHpxDhJtNx7I6h+mhp205mO4ilQCm0DyWLxbKHoB3nVNMx9AeDirPpkMXKZLa0c/JlIa0dUAHV0/dhTyjvqA3dOk4DvymUxuCdIPmbOgAAC5cZmXqeliGxibTFYjGDXOI3XKbVhKNTTAcxXJggNIiFVyMeycho9aUwXy/EPGvyeUvHmI7DSzRllgL4hOk4+oNNTPrL2nYeJ6qpzExutAyNTaQtFosZuCAm1PWLJnzddAzDobIudggAkTHnDBPOAUwokEEs/TBm2+bOkOkgvCJQF/06A/9iOo4BSFeML39WWtSAbadmqhC3m7Tkhk2kLRaLPHMipSA+wXQYA8K4ZMLZC4Omw8gVpQX9lQ00GgbDTUcBCEjr5ori0VneEQhFjyHGQtNxDAjj+XX3zt0qritv2/lK6uG5G4U1LTliE2mLxSJOdVvVCQAK2R2jwp/2X246iJwhsbIHTqcNHKWzKsiyjl6Y8NmeXfNRw8RZN48lhWUAKkzHMhAm3GMAyNt2mnqelpywibTFYhGHSW6U9UhhxnXFkhyR0KASBr29+ZH6DRJaO0GFWwbUw+SauubCPWEZAd3psiVgHGk6jkEx12go7NhhGw0LGZtIWywWeQrOP3p3CHxodThWZzqOodh3+sIKAMfKqJkaUVyYjYZ90VCjZsphsC56BYEL/kRGZ0i+zGjGj/aDtG2nsjvShYxNpC0WiwEK08psVxgoeCu8zRXqJAAlMmryzgHB2bEJABf2zigAZhoVddI1MxcfDkbUdBxDwx9vXDXvH+Kyfp/0TV178vTka8KalmFgE2mLxSJKzelNkwDsbzqOHDk/GIoV2tCYnSBBG0F2lPyOdBcKcRDLbhD4hEJ/rQzFgaHby7V2lgEYbzqWoWBSjxsSFk6kaTUiES2raRkOBf/hZLFYRhfs9xXFbnQPfii+ynQQg0FyZTJb21XyJSGtHRRBGVAPxMBnTAeRDx3UsRjS/sgjxYR/NCBv20nWP7rQsYm0xWIRhbk4yjq2w7gaU5YKlU6MAMIpMjJ4yswgluJ5vRBx0ZZ3BMPRCwF81XQcucJKy5+OzI6Vidt2sqm+BEuu2ETaYrHIQkWzw9jLpOD4rvNNB9EfVXWLDwAwWUSMYeCCzgRITWzMHwLOrA3dOs50HMOlNrTwUAA/NR3HMMiU+dPPSIsGt0HatpOddKkdxFLg2ETaYrHIkd3ZPdF0GMOGdEE2HZJ2RvUglurQ4k8AKJrBOAyUacrMNB3HsJgdK8uQ/24AE0yHkisMenH9g9/cIi6shDcBCK9tfPTalKimZdjYRNpisYhRXbXteABjTMcxfKguGF54tOkodoUEL+yK/aultHphJTix0SUYxTXlsLqTFxK4yG5uDZU7iPtHmzgFsgwXm0hbLBY5xDve3URdbTqC3ZC7sL+zIX7dR0JaOyieRsM+8HmIRIri2hoMN1/AwLWm4xg2bKoBT7he3zYaFgVF8Wa3WCyjg6JrNNwJ+vLEWTePNR3FdmbHygg4XkKKYMghgVCErxfaq3pl1UmmoxiKwJnR/QH6iek4RoJW8jaMNWctmgxh207WdqJhMWATaYvFIkgx70ijMp0uvcR0EL0Eu3gKA2UiYgbqo2tOvWk8GEdJ67qBpgIfzjJlaQll6C4UUf15H9o2tsx7R1pUZwT7EbJsStVOelVY0zICbCJtsVhEmDjrtr0AHGQ6jjwpnGNwwbIH0vI7gFxafjIAn7SuGxBQ0OPCgxM6bwIV5+kQMZ7IWnYLI1+WthrLL3SENS0jwG86AIul2Jk46+axnVvHlpK/q5L9u9+cso/baUs5b3z0mnYjF4ACIdPd+SlQ0d+7Hxec2TQ9uaKxAI5caRog8nLa1labeFFCaCeIpoOL9O3C+GTljEUHGRlhPQSBcPQcAPNNxzFiyFADnrxtZwF8xhQe26+3pXoCq/T2G+1yVb65W6uu1MNzN0rHZBNpi2UIakO37s2+zJGa+VBiOpQZh4EwCcDeAPZKpzHGV5IGoID+9g8cACVpBMMxANF2ACkASSJ8CI33mbCOCGsBet3Rzhvt8cZ2sScniaJpMnmft7BW16AwLnIyF3bG01ge6RbR6ivLXMxlQPD7nc8AWGw6jr5kR5jz/wEg07GMFFIG6vWnLC0BOkWdTdhUX4JBKk9bEvD7M1OY+GAm7A/G/gQcgGxt+kQAFek04CtJZ/cQnB0bM2mnGwSgOhztYmADwB8B6h8Av8ZErxLhheSKea96sZllE2mLpQ+Vpy0JqJLMp4j4JNI4kQlTHGQmQwMAZfPA/C5BVT1/DmLesVZ2442hSCEYjq4H0zsgvZZBa8H0TyK9lhx+l5zu99seu3FTXhGYoqgdO3aggAsnzrrthvUPXvOxqRhqzlo0WWf0fiJiRpwDmICYyMRGr2Cm81BIiXQo4gfpuwCqMR1KHjjk+J+SFq2u2nY8a5K07eQMp0f3IJY5kdKqRNU0BToZTFMZmEJIH9qb5Y403e3pG9kXoH0BnppdiwEGqsOxDZpijynoFUrrBzbEF7zlxlOxibRlj6Yq1FRFyjebWJ8BqNOA9JEAFLhnppoZJoJ4IkDTCej5RCGwj8C+cgTD0S0A1jNIE1jkGIscfVliVePIG19CET8DU1wMyRgMlHV3p68AcJOpGHSaPyW1p0hQ4ol07YzYoQ5QzAkfAIQDZy6tNHHU3B/VCPw3A6eajiNPXtoQv26zuKr8JsAbm+I3tAlres74mYurSzhTx0znURvOQ3ZTCQCLfJwxUEvMn2PQ5xzyIRiOvgPgYRA/7NMl94/0tWUTacseR3DGj/YjX8nnGfxZADPAXJLdGi6auoOxAA4muXg7E2N9eXXJ16jKYzWj6EYnDwQRX4M5y24x1gykIFcmQxnxQSzax9OLuPqglxLKdJ0F4HemAwmGop9mwr+ajiNfiM2UO2RtO0Vfj6OmrKMq1FRFRP9CrC6Fdk4BSBXQO/tgAFeD6WqHMluC4egyMP0kGa8f1u/fJtKWPYPZsbJgl/4sgS5nxqcZbF/7ufM07q/vymcBh2ma4IdnGkCJxxoHBNo+PDsF3OexTv8wS5U9vJtoWfCBkFYfRkcZEBPOg+FEeq+ZzRMzGrdjNLh0kaGJhsKvR+Zi949mqqqLnk5MVxHwRQAVRdBnPxbAFSC+IhiOvkiMn2h/+a9zOVEq/jeWxTIIVXWLDwiGmpuCnfwhmJYx41zYG8hhkv/FSxFJWW1tA7BIQkgRrpHQ2Y0pS0sgVSZDeFxEZxcYxTiIZXcIfC5CEXOfN5GIymj6DbKN0UUPKb/4Tq0J20424NvuClOWllSHYl8JhmOvKqaVBFwGoMJ0WCPgWCYsJqfzH4Fw9F/3nb5w0OdgE2nLqCQwY9EnA+HorxQ7b4JoPoCA6ZiKFQI9lu8aWq7G8Cn2IQog47UQM86pnLFI3Be7umrb8ZC6OGn5C3rP9MhjpHU9IhhAwNjuenBl1XcAzDSl7zKJthXXvSktmunu/JSw5JZ2Tr4srJkfcyKlwbrmrwUndL7OxLcD+ITpkFwiQMBNW8t9bwTDsSsxZ1m/vvY2kbaMKirPbDo4GI7+jnz6hZ67Ya+P+Ec9PpWfa8P40C01BD7ErXgGg4AnUw83vAvGvQJyyq/01QI6O6OV2G4tGXDs6EqXTcUoOjVS2fIOcarrFtUB9G2PZRIer9+X1UZ8+JV0mRGvRjzi+UaAK0QiKhiOXRlsC7wJpp+g+AduDcS+AP880PbRwz2j4nfCJtKWUcHEWTePDdZFIz5HvQzgAoyCTqWCgPDmxyvmr89nCb8qnQ6p/4+eI1HlkynvYMJVB4ZuL5fQ2q4JLXJhJ6ArUa6el9Dqiw8svQPoKWxgyuHEWbftxazvgLeTIdME/MjD9XeCyEzdMLNYWVpWz4BLzkioCUenBFcGHgf458j6PI96CBzijH4+ULdodt+v20TaUvQEQ9FPp9Olb4DxHQCiSc1ox5WmF8lR1j61GgDaVjS0ApCYxlezEZsuENDpg8wOGQPP5NtkOhI0INVImUb/I5Tc5oja0MJDBXSyRCIqne6+A8BuO2duQqAbNEhu59RAmVFPfbusbSfrgm40rDxtSSAYbo5qYDXk3qsFQ9ZCT/+1uq75h4hEFDCKjs/wLNcijfkAzgJQbTocywAwukH4b5xCd+a71IGh28s3qY0RZnwT9qbQEwicd300mKcL7UevbXto3rodsrSEiH/stSiRvgbAb7zWAbI7jel0t8zxqaEdQJKa2Ag82/N5dLrXQg6p8wA0ea0DANXxwL8zYZbHMssSrfWxYCh6j9B7W3MFxAeU9Nh2jhWU5LSjxO0mcyUQjp5D6L4doL1Mx2IYYqYbq1cFjnZCTZeNjkR6De+HNB5BdpSkpZDJfugG812mOrToiA7qWA6m0dKUVJCwo/JLpuYs81Hbhye5FM7g7NLpXjG+7I7OzZ3fhwuvtyGET62pazqxraXxWW91ehqfSOie0cAOYGVd7BAwTxQRY34ChHcB8jyR7ply6HkiHQzFpjHxdzyWeQPl9DUAAAntSBJeTt5f3yGi1QfWSmoTIKsHenvzI/Ub5BRzZE6kNNgW+CGA+QDZsskemHGuInV38e/iPcrjexqLbBJdHDyCf+K2fBYIhBedyqQfwejp7C9UOlJ1iby6x6vaPjoGEBrEskvit+7euVsB/FJEmkmo6VBJHqWKJ9JKy5UBAXhSM/8BApOYiDBj/MzFnp6UVp62JADiu+Btg/UWwPlC8v76jqq6xQfA4/KR7TDMlDso0dcj3LAadZvKGYsOCrYFVgJohO092pX1Clxf3In0MvahBL8BcJzpUCw50Y4MLsOFNOK6xOpQ7CsE3YLiHx9cDDyOSETnswARG3WYcIiWAMjrOeSofkngzKWV3suI+SuvS8br3xfS2oHg64X99ER7vHEtgBcE5Hx+1h6WWzCpkvTt8HhDicDXJlsXvAwApB25JjxTvsos7Wcu75IzGMFw89k+n34BcuVWxUQbFNW1tc5/vbgT6QPQDJixFrKMAMY1OJX+OdIfD4RiN/Z4VJa6GJVlQPKvkSWhRsOBHCY2ttS/DeB+gRDGKd15uacKc5b5WKzxKX/v8BGpyl2w16Uebni3R/UPEoLE2rNrVbAu9g0CzvdqfQBg4NZE6/xf9f6bBHdrSedZYjYCxoduqeHsCGkx8i6lc5HqUPTLAN0LYLzpWAqQDsVqdnJF/StAMTdoreZGANebDsOSI4yfYhrdNdIfr66LziPiH7oZkmVwXGk0FJpQN7jDBMtY4QHXAOzZ0WfV+o+OhVSZjIGdsZ7pYccKyW1PWNiRSaQBOqdnKqWrVM9sPgmM/3F73V1Ykyqnb+z0FTk3nvZEKPGGkNZ2RG07s2xtV8mXBPUGJLtphdth5zD0x1ZNfF5bfN7TvV8ozkR6NX8GwM2mw7DkzFvYhgUj/eFgOHo1M6JuBuQy3QC2mg7CZRzq7syrS37C2QuDAA5zKZ6hGDDxS7Y2PAjgNc8jYBxZE2o+w6vlyafljpmVvAXX5gp1EqQu3H1KBVKr5r0EQCJRq6yp6jzNzQWrQk1VrOlueHtKl3QcdfFON6qzY2UEHO+hZl+ezLfEbEQI2nYCAAFPmR/EwhQMN/+4Z9PK1kPvAgFdIPp8e8v8VX2/XnyJ9BN8IoC74a3RvMU9uqBwIcK0eSQ/HAw3XwDgNph/U28CsAKMW5jpUnbUscqv9ikfVz422dpQlmxtGJusSZWVlJROVOAjAFwExi0ErASwzXDsI+Gltsdu3JTPAr5u3zSIDWIZbAeVmAhLJMLQpK7xbnWxCWvdE5yq54S0tkNyY+TBvMsROuPPErpau1uKqIh+Dm+nyWkmdenGVfP+0feLwS6ewkCZh7o7YFP10XL1+lk9Qw2VfQjWLboZoLmm4yhQHCa+LNlS/+Cu3ygu+7vVXA3gL4Cor6MlHwiNOIlGdFEOzowdBc23w9wN3ysE/IUUHmhrL38Uz8xND/ro5ZHu9cDHyP55HcAyIOt3vZE66gi4EsDnIHETyHiIfXwDaUwC0WRo7A+ifQDeB1k7uJKeP72lApXY+ffckm8IxDxdzCkp4wx6saWuzl9yafn3AEzwOJIvVNct3CfRsuADtxcmwjTv/SUAAM+tjV/RKaLUF6LpYJEnmB7bmX421fcrCn8A4wYB7fOBkZ/O9aW6LjqPGV9wY60BIfx3qmXe7j0Gkru1yoCfuaRtZy+mGip7CISj3wfzN4Z+5B4JA3R1sqVheX/fLK5E2odaOHgXMjt8FZCbkrdrEjMaeAOMb+EU+v1Ifjg4OzYBnXwPzDQ6rIDim5Ir5j/kxmI9Scl9AO4LhKLHKMJiBjwrAQAAEM4iTQuSrQ1f8VRn0BjEdhjXJVd9473BHtD22I2bAuHoHQRc53Esfmb/VwH8l5uLjp+5uBrakZmOx2YsuIj5ZBEhxvPvP7Fgp2tIckbqyeDKwIcAJnmsfnD1jKYjE6saX81nkcDM5mNZ4ya3ghqAFcnqSf/d/7domoBrIACw0+1/SkKoL1UbPvgkSAn1I2RR7Dc2iKU6FP02A/9uSr/AYSa6LtVS/4uBHlBcifRUeg3WhmXkLGMfJnm+IwdUQGMqbcxrjU7+BYBPuBNQzqwmxfMSK+Z79sGdijf8HZFIXTBe9V0Q/T+vdHr4crAuujLZ0nC7xzq7E4korITUIJbHc3mY30HU8eFaeF5uwnMxZekPhjzBGAZ+JzMdJDYIQXxnrCrUdCCkPImpnxuFSEQj3PxniWNt7VPnARhxIl0bunWcozPLkN3s8Qh6rzuDL2H5hQNZlQpdh+mVjY9emxr6cS6rKiV1+tPLOxvi130kqthDdSj2FSb+ngntEbINQAZCm2wMujHVUj/o7IviSqQt+ZH1bxb/UBougXDsMwBfICjJYHw3WTvpe4NcONwjEtFJ4D+C4WgKwI881WI0V9ctfNCLUoPBCLRUHw2f9t5XGQB0bg4TG1Y1vBkMRR8G4SyPI5pcXdl5bgJwzQ2CIDRBDll/ZSmtXkj5pMo6wDzg8/sDAM8Tacpatv7vSH9eU+bH8HaTIc2gL21+ZF6/E/Zqzlo0WWf0fh7q98GMr7KUbed2PQM3rwBQHW4+BeAfm9AeBAfASyA8zcAzStNbRPq98k797k4nSXOW+SZ0vF9JDlX5tO9QYj2VmaaCMA1unSwxfy8VbxjS2MIm0pbCYk6klBLcJLUbQEAXgy9JxuePqAQlH5KtDQuDddHpYHzRQ5kJmn03Aqj3UGM3yO9M89AJbieYfDlfhFjRImL2OpEGa1wDFxNpEEk1Pn24w19ZDmI9TaovlaH7fb0kOypaghM6UwACHocwfXzolppN8RvahvuDwXD0agYu8SKoXoh4QbJl3oDWlzrNnxJr/TbVaChk27kdA/XRNac3TdKgeyDVNDoI2esw/sLMf8wg80BO743lFzodQBLZP+8A6GkCZKquW3SSZv4cAV/ASG86CdFk6/z/yOWho60u11LkBNoC88EylmkEdGnQBclW+SS6F631N5G1z/MMAr42cdZte3mpsRsslvilx3amn831wakZyb8i+6HrLYQza8LN7uwaRiIKECqTMTWiWO71sr5nmuHuPDM3TTLDe3yl5D9nuD8UCEWPAdDkQTx9oLsTLfMXD/oQybHZ5MgPYsmOcpey7QRgYODM7FiZ9qt7IFVONTD/BFFjN6f3TbY2fDEVn//rkdxg7gxxoqV+Taq14VvJ1oYjlEIdgN8jWw6SK79IttQ35vpgm0hbCoaaU28aT8C35RT56lRr/V/l9HanPd64lr2/eJd3Z7q97e7fFRK72D63a+PYoEQiGoRB691cgrRL9baBluqj4b3bSBaSL+s4MHR7OQjHiYjx4PX0zDLDWZhoWDZ4E2fdPJYUlgEY41FIAPAGynH1kI9iLfXe7kie0ZFXU+ZI8GstZ9uZZVtbbeJFQT0Eu/gmGO03o/fA+Fqyo/ywZEt9c/7J88C0rWhoTbY2fFGzPoyA2wgYYHDXdpYlayZdDVDO5+I2kbYUDFxSfjmkEgZwrO+4W5ModrEEYADI2/KRnagKNVWBpRpFh19DqbX+GYAtHgSzK1dMnHVz3ladkoNYWMsfMW+kzVPg7UCR7fAQR+g++B6AhCsU49OYHcv5SD2dLr0VjCM9jGgL4HwheX99x6CPmrK0BKATPYyjL0YGsZDcjUIWxtNYHvH0VLIvNTOjYTDmSentQpqA/y0p6ToyGW/4mZsN2UPRHm9cm2htuJaZDiXGvQM87K/JjvJLh9srZRNpS4HAxIRrRaQIb5aPqygYq5+MVquGflR+EHBazwhmz1FQ0yD02cKkhp34tccb2wG604t4dqEq3V1ysQvrSF3Y0xXjy3Muk3ELIsmJjYPvuG+IX7eZGA8LRDIu2JWbBWZ1KPYVAF/2MhgiXJNsXfDykLFUbTsenrqF9MVMo6GgbWePntzzDM6OTdAapmYzvK5Zn5xobbhx/YPflNjI6JdkvP79RLzhs0S4HMB2dzFmtI7pdOaMJLm3ibSlIKgOx+oAHCUixvzv6+6dWzAjvTeuun4thle/NWwYKOssIxnnB8EaSp2hEV6EMlFIGOESXZ//GkK/T8bzRt4Xcg4J6YoxZc8M9SBW3p8QAQDnMOWwdkb0MCaOeRoH0+JES8MdOT1YK7nTkWE0EbuGaD9CFsLwNwNGTCc3AThATK8HAn7jY//U9njj89LaA5FoabiDfTiWQXEAq33pzvOHVSbYB5tIWwoC7fGOSx/+nmxtuEdIK0eIkR1B7imalMyRLEt1vPPHu44uzpVk64KXCfD8JADA8dV1sREPGpEskxmq7MFDhBJpfiGXG4U0+f4Mj29sAYCIP4tBrG0ODN1e7viwDN765a5JVeQ+0ZEhVvbATklafEBJTz+CjG1nL5QReZ7BcPPZyE7XFYb/K9Faf9mG+HWb5bUHJ/Vww7upM5Izfew/s+2xG0d8DbaJtMU8kYgi8NkSUgT66XCaCATxfuw9s4D3KxOEdnSYVE6DWAb8efAit2IZXEdfM9KfVUSnQOpz2kCjYeDM6P4A9pHQYs5t52/TiusTDHrU63gA7B+YGf3kQN/soE0xAMd7qJ/UrC/C/fVDNV/1Qazs4fWOvy1ICmltR7IfoYd/inj8z1nmA+gWz3V2hplwTbJ1/ncK9JqbJRLR+Sb5NpG2GKdmZeAEgCTs2Zxu7paojR0WgTOXVkKg2YqIar3WCM5cdCS89+HNkmdjXLJm8h8B/NOlaAaG6aIeS63hI+cfnUeZzMghR9JKLXdrP+WmB/hgOk7/7h3BcPRCgL/mobQY/sJlAAAgAElEQVQG45IBrQD7ocdC8yDvQtoJMzaM0k4WJPM8g4l1VwI4RkKrl+xEwIZCG/biCTaRthiHiWYLCa3x0mZnpJDuPFpChz32qwYAOIIOE/mWIiy/0CHwT1wKZzAqSti5YkQ/yVI7gCMvk8kTuXp6X/+DWPqDGfdAoIaeafc66drQwkMB/NRbYfxXMt7wwHB+JNPd+SmvwukHQ42Gwom0gEvOxFk3jwVTxGudnWBuTrXWDzkRcLRgE2mLeZjPFJFR3CKhM1wYOFZIx/tGMiV29JspYd+QjWND0c2ZnwDodCGeQSHG13samYYBE8Ajrq8enlJ+ZTJ5IFdP/3BjzoN4kvH69wHO+/WVAyfVhm7de/u/ZsfKMuS/G97agK5I1k763rB/Su69DXaEB5RA2rYzCw3hIuMG6XTZNyA6eIUfS6L9m3J65rGJtMU4UokkQEPaO5mAmEISOgr0huciQhPqGPSiG80rPScUd7sQ0qAwcEhwZdWwRpNXz2g+AkVSJjMiZsfKCDhBQoox/ISFZMo7lIP0Z3r/EdiGWwjsYVMwvZfm9MXD9ckFIHg6gk2piRNfEdLajqRtJ5CdrJsowwteatScetN4gBd4qbELCbC6GPGI5826hYR/0O+u4TPAuAjAQeAhHmvZcyB0gXAHTqa8E5Ca05smaaFkQQFvS+gMi0hE0UquE+nEIPq7l8sHZ8cmoJO9HBqxHeWix6x2KKp87LlrDIOuAfC3nB/v802XcOgDAFZafAcw2O2cyFA5DyXJCx7Bzp/Df4CP/seDaHaiZ8rhzwN1sfOI+ToPpdIM+tKIytvmLPNx24dTPIipP9aMKNHPF4VpQm83AAADzwyv0XP46NKyqyDqQkL/mj3N2bMYODlezT8E48bt/5YcmGkpfBjHwYWdPKfUdyhpmU+vDJAQERoG1SsDYQY8bwIEsK1iW9rbZKlbnwKQkMOEezuo7avqnwuGYk+A2NPddALOrQo1HTiMBi+xMpkyf1qijGFntGCpwAheL4lVja8Gw9HXABzhQUjbIWBWdWjREcz6l/DwSkuMxmR83mMj+dmq9R8dCx/GuR1Tv3DuTaHu6kqVGfXgtUvOnGU+tH2Yv4997jyabJ13O1AvKFkY9H/Re5KvBvok0RbLrjDiLq1T5co6OVCqfcamKQ0EA5cJST0yUrP5nBEc1qAy7pYiMPFiN9cbAB8pdVXOjyYWSTQZ9KKZSWNKZkAQkCkr6Xp6JD9IjD+6HUw/VDA5KwEEPVMg3JWIN9w64h/3yzXhMSDuHy1p27kdj8upghs++jyAg73U6ANrh+oL2ubOQ3ZPpJ/i2SCM+A1n2WPIbRLWUGhPm2p2oltrodG2udHTZHSRkFzOJQUjhsWGNSQ2rKp/y80FUx3lywF47ueqGFdjdmzIcoaaU28aDxaa9AlDO4CAiAtEXjcKikRs8Dy2/3wDZTQ3rxXY29OavkoZZMTr9UVtO3fg7fMkbvR0/Z3gP7Svqn9OTq+w2DmRfoqPgcZvMVTttGXPhrAO72KFG0spsNhrzV/i1Ehp5YJD6X8HUC6k5nEizQQiEYcJIjzh+s7HM3PTIPzM1TX7gYHawDb+/JCPKy0/GYDP63iyYu7Vm+dKzVmLJgMSA4KAfG4UEi3zngLoPTejEWYL4HwheX99Rz6LkJwt3JtGLEoFbTuz0Hte1hJXhxYdAaEbVQDMCt8V0ipIdiTSj/JkaNwH6fGYluKD8WtcSK40gzCx2NhQ1mrAKWLSBGYs+iSyzWcSPJlsXeCpY0l1aPEnAIxs6Mhw8ehIVKX1Ugh4bRNh6P93yUEsSt5qTKdZzpM4rxsFYgb/2b1gZCHCNfm+98fPXFwNxqFuxTQYDPmhQABErf168PR5Mjlf8nL9XViRWjH/RUG9giObSD/NY1CCPwIQ2iGwFDUOfu3aWgp57ZQMDz5HTmtgakO3jiOfvgNAiYQeMwnU/8rU8wJwtdGwL22PNH4I8O+9WHsXZmRvpAaGWez32baxZV7O/squoQQHseR5oyA15dBtmGlxoqUh7xI8v5OZDim7AY/e20MiZNvZR9Dj50kXe7t+X3iPmF44GArMCg7uhHShvaU4ITyLT9FLrq2n9TrX1hqa8yvPbJJqvuifKUtLNDJ3AjhOSPGjVG1yudciTGL10ZrL6SnPVle8yLO1+8r49NcH/i4TAJFGPGIPymRyQa6ePu8bhQSnVgIouImoQ7AmVYEbXFlJchCLduRtGGfHJgAytp3b8dBusroudjKAw71afxc+SnZUFO2JjVsorMHNAM43HYilSNBodnO5ZE3HmwCkzNv9yvE1CWntzuxYWWBC5/L+xgJ7yBIsj3g/GhxiOzp/z7feczCSKxqfAMO7RL0HBi7PXsB3p3ZG7FAAMvX8BPlGwylLSwDycOjIDly5UYhHMgy6z6WQJEhq1he55VFMLHZ6sKUdGz31uu+Xbn0KhAexTHCqPGvMY63FyjoY+D2emZuW0itU/ADOQNb1f9ejmy0QqBfMkQ4A8gbt/ZMyHUAPGoyNYmqE9QB+h2nkrh3U8kg3wtG34LFXay8E/mww3NyYbJ0vmlAHZ/xoP3Ty7wCINOT18KGP/Z4/z5pTbxqvgaO91unB86NfAi1h8O0ey4zjTn0pgCW7fkP7eLrYSbqSP0qvruw6gRkyDjou3Sgodv7ApC53Yy2P0WBcMgyv8sGJRBRWypxWM2ONkYl4WokNPgIABp5bG7+i0zMBRZ+Rejo+1r+TUSps/DiFppoOwrKnww8CJJJIZ6FbquuimURLg8AxPlMwFPsqCDcDcp7ZAEDgf3NjjPZQiDpMCNRQJirw22An3+SxJRkIdB3At+2+Y0pS/soOOX7Pd993hTVPlxrw5daNQkUX/21rObYAGOvGep7B+K9kvOEBt5YLtFQfDZ+WsSg1Vh+tp4EEJ8556JITODO6Pxwc5tX6fSFgQ1vtPo9IaBU6YscZFsuAUP6jxoeJYkYsUBf7Q1Wo6UAvBPadvrAiGI5eHayLvQzCTyGcRAO4L9E6/1ciSnJHv6CM9v5ie399F4N+7rkOcFRg5qLTdvsqiU1Ye0niRms35BoNXbtReP+JBdvAeNCNtTxkRbJ20vfcXJB8crZwPs8b8PpDzrazD549T3LoTK/W3hUGtRgZ5V6A2ETaYpxkS/0TBLwtrUvMn1OkXg+Goz8LhmLTepq8Rkw2eW4+OxhqbtpW7vsngKVgyDaxZPlIZXTuE/TyRS4xak/UbXxdQkiRcysAz2v/SOudrPAmn7d0DDNEbBqJTe0Air1eXL1RIFXI7h30XprTF3uQ2IjdJCslP9FQ1LazB/Z7NxqcwDO9WntXmDgupVXo2MErlgKAGBT9LhgyO6g7UwrgqyD+ajAc+wiIrSTC35n1q4B+zcdlCVW6ddP2yWhzIqUTOiaMK+tCUKuS/bXmw4j4cADHbQVOBVAOkqy42420Bl2cfKTxQxk5JnBMqhThSUQiWkIo0bLgg2A4+mcAF3irRBfsNbN54scr5q8HgK2bu05SUp/LJD/RcK+ZzRMzGgdKaBHcbaR0tL5XkepG9jOjkEgz6EueDDIhTJP4MCPg7d73gCyCtp1Z1qUebnjXm6WZGLGwN2vvjo+5VUqr0LGJtKUgSFRPujPY9tGNAEs1rfXH3gBfxIyLss1ePjiUgZMuRTAcZQAZtGW9nx0CwFq0tC4HmMBXtbc2rJQSrJ0RO9QBakXEhHdQNWiRAnucSKPUcegqAP8DAEQ8XeoujJRffEfaYZIbxOJyqUB7vLE9GI6uAiB2fJ4LxGhMxuc95va6VaGmKjA+4fa6/WLCPQYAk9jo8148e56VZzYfBEdN8mr9XUi1tTa8AcwXkitsbGmHpTBYfqED4qshZ4U3XAhCA1RGCIPRKFYX3UPWYUIIkq2hbG+tXwnA84ldTDQXc5ZlmzXlyh4SbSuue1NIaweC9fTKcf8IncEFVt5BdyfiDbd6sbKCmgapHMGjaaU5ILsj7WFDpV8rqdkEYMbzRvznCxSbSFsKhmRLw+PEiJiOowjRIJ6bjDdE5aXFhjWwky5dI6TVF0+SlJ3h/Wra1n0GAEhoEAuAJ01cCJnFGikTG1bVv+X2oj6/748wWrm1E6+jHFd7trrg9Eky4NhRc+pN4yFn2wkAYA9vGFjjWK/W3hUCvyClVQzYRNpSUCRCqR8wuexVPbpJM9GlyZb5PzWiTmIX21c3PnqtuId7+bjyXwNIeq2jQddUzlh0EIC9vdYCACKS3wGcsrQEhCkSUkTeTGxse2jeOgAmbuh2ZTMUfcHL4URgsZvkbW0d5Z6f/OyKqG1nlnTF+PJnPVudZJqUe5AfnFPA2ETaUlhEIjpVnbwIzPebDqUISEDxZ1It9b81IT5x1s1jpRwmIDCIpT/W3Tt3K4i8Hs4CAGf7lJYb+MHyjYY1EzqPBTBGRMzLnT8m4+UdRLg2uaL+Fe8UmACWsoV7ysh0PMEyox6959fdO3erd8uTWGkHEa2V0ioGbCJtKTyWR7pVie8qAPIet8XD85r11OSK+Q+ZCqArXTYVcg3L4tZYvTjKWQLAa7cQAuHfPNboRXM5yQ9ikWzsUsqzGwW/5nu8WjsXGFiUaGm4w0uN6hnNRwAIeKnRCxlwjwEAlvNrz+Lh8zwwdHs5gQ/2av3dYPWBmFYRYBNpS8FRU9d0os7oRwGMMx1LgXJ7+bjyU10bAzxCfGAxBwZ2vEuMhmLjw43vEOOvAlLlAhoA4WVPSwIGQq5UQHMZP+3V4htWNbwJwMPd4EFZk6pJ3eC1CPt8ckmmNjSIRa4foUdRefY8U/72yRDM5xTU+1JaxYC1v7MUFNXh5ss101JIJRXFxQcMmptqrZdI6oZEg6aRTN/VptTEiaYSFwAAK1oM5vNMxuAabMhqDGI7gH/3/EaB+R4QHeWpxu4kNeuLsDzSLaAl566CUvFEuse2s0ZSU2e860tQGTUZclas2shE1ALG7khbCoZgOPafDPolbBK9Kwzg5+wrP7pQkmgAILDUjs5q06Noky3zHgLwmskYXMOAQ8LEWbftBUDo6Nn7UgGlxG3wNBiXiJ1CkdigkrUb4td9JKS1HVHbTgAAf7xx1bx/eLU6ESZ7tXY/eFbnXazYRNpinjnLfMFw9OcAfxcQvK8uDlYo4KRka8NVqYfnbjQdTC+VZzYdDGCiiBibOPrdFWIiFrDC8x7S8mUyTrpLzkqNvTtC76WtpfFZAJ4lRrtD303GGx6QUKo59abxYAjttpupjxa07QQAMKnHvVyfQCJuPz10CWoVBba0Yzis4b3BuBzAwaA9IOHTWA8/YphK7o+e7SUU8Qfb1v0KoC95plGEEOE5DfXtVMu8gnQvURnfdCkbYi9rC4cDdXX9H5eWfw9ApelY8qA9EUq8gbisKDNNl/rEJNIyyRnhz2A0CCitSNbs/T8COgAALqk4BWARWziCmfe2YJlRFo8Hzmjw3oIJiYzzThFhE+lceZLDYNwDoApA4VjyewkBcHAwgEs9WX/K0pIgdf0G4DmerF98OAD/STEvamttjJsOZgjEBrFkuNuYY0df2h67cVMgHP0VAfNMx5IHTyIS8dqBZDc0idXTJ6VGF2umPyiwx4k0vZfm7otFS5sUpold35TQTU8fJs66eWw6jWMkNdnj50nMFSCxVLoCU5aWGLEsLFBsaUcuPM5BEO5GbxK9Z+FRXSNTYELnz20SDQBYC+bvafIdkmydf0FbvOCTaJCUlRnhrU3xG7w7ERkmfgeL4L0VnnewAT/uOct8BJ4qpCY2sbG9Zu9HCdjgoUQaxBdLv/6ZxeqjOxPBdvEJeU63/yTIbiJmyvzpZ7wUYCLJwTKoCXbXSuoVOjaRzgUfbgKwp75wPvZi0WA49iMCLnNxyW4CfgOg3cU1vaQNhJ9p4jOSrfUHJ+Pz/6O95fp/mg4qF/advrACkBlHy0zGbO/6I2t9Rsa8u/NGyf8+q9Z/dCzkrCzlbhSWX+gwcK9XyzN4frKlwdPa2n5UBW3h+BkhB5KdVUmJlnUw6MX1D35zi5caSnZCI6D1J0T1ChybSA/FU3wygCtNh2EQ1zuqg+HoAgCNLi6ZJtYXJVobLh3T6Uxm4BIi/AXANhc13OBFBn7AUKclaybtnWxp+Fp7y/xVUjtobrFljH8qgBIRMQMOE0PBrBebjmGEsNPtFx/EQn45KzUSvvFi9si9g3BXqnX+Ek/WHoTaGbFDIWULZ+gmWQs3Gko0VLJQTft2PUeqGbU4sDXSg9HKfmgsxZ58w0FY7+Zywbrop8D4oZtrgvmmRLzxjwDw/hMLtgG4E8Cdk89bOmbblq6ZxPrMni7tEyCUABLQxcDzAB4n1qu6HN9jmx+p9/IYWA4tZx3FmcJLpFPxhr8Gw7E3ABxuOpbhQa9sfPTalLis3Chmrf1lojcKlah8eBNtvMnNNTUrx699P3BzzZy1/YL10SAjvQ+Ctp1ZCsJ1yF2YEAYwKlyM3MAm0oMxBo0AjjcdhmFcS6THz1xcDa3vAtjFZJbeKx9f3u9FZ929c7cie/R6L5AtSegsKznaIX04AUcwcCAx9gZhEgETefjlO90EvMfAWgBrCXgbrF9VWr28YeKkd0x7H3sFMaYJOTBsaVfJl0SUhgUxEF0K4EemIxkeZi7oRDxdJDkjvCxtEbk2fkUnIDba3XtYzs2CVEZ8R7qyLnYImGVsO3vQHo6r74WhEkLNvL2cjdmxMtxfb63wYBPpgVnD+4Hxn6bDKABcK+0oZaeZgf3cWg8AGPqHPQnzkPTsVj/d82d3piwtqa7cspfWvoCPUMZMAQ1dTlDl1Ft7TXqTYp1wKvwfGxmzXAiQTA0lg55CPJKR0BoumvUvFKn/AjDWdCw5Y6DRMHvz7BwqIsbeTY7bYyCxHel3Ey0LPhBR6oPSYpsAvbRtbJn3DlDvqQgxfyz8vMYFtvHnU8BdoqoFik2kB0KjGSTWIFO4OHDlwy4Yik1j5kvcWKsPyYpxFb907az6mbnpBPAB4M5zHo1UhZoOBGSmaKkCPhJtjze2B8PNvwZorulYcoYc8R1Av5OZDhLy5SJTwz1GBz22cJ8UkjP13hatjybGExI9MKzoY2LZVhsi/BvAdxdbj48X7Lm1v0NBONF0CMZhrEEJnnVhIQJxFO5PLfxdrrvRFncgKLkLUQE2Gu6EUjEUj6N8R/KMjlfFVZVcYxdldGG/XgocUVs4MtNoKGbbuV0QIs9TgVztZcqR46rDUTedt4oWuyM9EFtxGMZgP6hhJn8OAnnpKlTlNTXRQSUorxukCWD4AKzHeNyPoylv0/VA3eJPg3FyvuvsCjN7Zj1l6R8SHNag2F8Qg1gGIrmi/pVAKBqnbONNoWNkEAvJNRq2J+o2vo5VQmqjEEepaWJ7ix5P+uuPfacvrNgqZNvZCymZ5+nozDuK5PdFGdQcDMVakvH698XFCwibSA9EmDIA/mE6jNEAsfakQIyVvwAb0UY5cs1I/9gQv85160W3UUSLGVwEibSBMplIRGElThJSM3KjMKoQuukhoCtRgecktPqyZYx/Kmk3G92HxCFHxm6yPd64NhiOJgBUS+j1IQDF91WetuQMI45AOVB52pKAb3zG8bKnyZZ2WDyldkb0MACzPFhat89oe8+DdS0DMTtWRsBxElIEmSPRfEnU7P0nZF1bChsDnr2BR6qOATBBRMzExMZRBgkNYmGmZ424PQjadvbw0ob4dZvF1NiNMswR6X7S50//reb0pklG9AegNrTw0EA4uthXkn4P2/TXvNSyibTFU7SfLoI3rzMVeHTSeA/WtQxAoJOmMlAmIlbo9dG9LL/QYcJS02EMAWfKnDXiqo7gBDkDExtHE5UzFh0EYG8RMUNNoYJlRlk94c0AAjwdQz6E+Enar56uCsfOMBYDAIQi/kCo+dxAOPpHh3yvE3AdgLEg8nSonk2kLZ7CrD/t1drK2XaEV2tbdofYEWw0LFzHjl3J6PTPUHhTNPvyesffFiSlRUlpqdeLkYmNownl03I3Pabe20K2nTuQfZ5k3rVmsgK3BsLRXwVn/MhVm9uhqArHjguGowuDFHifiO4l4HzsnN8eFayLfsorfVsjbfGMytOWBIC0dx9eTF8BUNANaaMKRVKNhp2JYPsLIkousCl+Q1swHL0LwBWmYxkAMxdYlnLsMDSxcXQhd5OcccQTaUnbzl5I+UWfZ3mnfmhruW8zYNS2lwi4DD7/xcG66O+V1kvbavd5xP3hZEw14diJGjgHwBcBHrqJlHElgMfdjSOLTaQtnqFKnWlg715jTLgyOLPpV8kVjabvxPcM5I5Gn8bySLeQlito1jFFqlATaROJSxWkRqib34kregSnla5LrvqGeG+LqG1nlkTbiuveBK4XE3z/iQXbguHYXwG+SEx0YErAuFiTujjY9mGCwtEHwHiCffpZ1dn997bHbtyU60KTz1s6Jr2xcx/28ZEadBzAxwOxT+nhlyJdVBu6db4Xdes2kbZ4B/MxHiuUQqvfB0LRC1Pxhkc91tqj6Tmq21dErAgbx9rjjc8Hw9HHAXh2fDhS2PF+RPGukPJPB2uZ0kFdPGVAhciBodvLO6hDpIkY5M2O4JCyxNPdH2MwKE8aGVTC+B0IhZBI96WagUtAuARaQZeWIxiObgTofQY2EDgDcAegHDD32v9OQHZnfZ/OzZ2V8AE7/v9G/P84zkH6IgA/z/sZ7YJNpC2eQWCJ0cCTiLAqGGp+gAh3dXPmvk3xG9oEdPcsfP7RX0OZJ8xYRFRwifSm1MSJr0iLZuvphRIXn/yNwmhiI22eQkCpiJixmx65wUAAQGRmXH35+LL7Ojd3poA851l4TyXAlTs+IQgAC3xkqK/CJtKWIqNKSIdANJuB2SVU4gTDzc8B9DITXlPA6yB+P8MqiW5/0tZSjhi5CXVUnBPqUpvKfx+c0PkBgH1Mx9KHNe7XJ+YA03ShPHpj8vTka1ghojUqIdLTxeZzGnBXOTB0e3kHOo4XFWUz5Ubr7p27NRhuXgTQf5rQL3iIpwdnxo5Krqh3dXPBJtIWzyBGBYuepgEAfABNBTCVuGd+MxN8YKAkjWA4ygDakXVZ6ARhCxjdBGxmIL39iAloB5iJOKWZNJg2kmIHjA4Q0gBvVowuZrVVgzt9Sm9NK7Szj9s7ujo6EI9kxJ+5lzBNkzmppPcSLQs+EBByn2fmphGO/QTg75oOZTtGLuhMoJjUIJbVdhBLnsj1PqTHbHOek7aPEd1xz6K5nIy5yGRKddTf7VsAs02HhUu26fAGN5e0ibTFOwg5NxQIQsgee2WPvnpyQ97p2zv+xdwzr317Vt77bYLu+ToB0KzgcwA4QJACQDi6lYAPGfwRgPUM+oCAtQS8rR31zth0+q33n1hQyJZpO5gdK0MnnyAjVtyNYyUlJT/OpLu/Jea3PQRMSnx3PxhuOgrwyZxGUXEM7ilwpBLp50x85hE700CCOzqEl72cojcUHX9bkAyGoz8BsMBUDAUN85cxO/ZtN4cC2UTa4hkMrDcdg0HGMHAIQIcAO0q/GAD5NLb6fDoYjr4F0AvE/AIDz2joJ9vjje3mQu6f4DacAEK5jFpx1kf3sv7Baz6uDkd/B+AS07EA4Ax3y9tDsk+qrAPQxdeYWkj0NBHLlCKZuukhkp1oyOZv7roz9MNSP18OoMZ0LAVITbBTn5sEfu/WgjaRtngGMz9LkjsBxYUCcDjAhzNhTvYLSgfD0dcIWAmmexJIxguiRIS0XMe7Ku5EGgCYaTGICyGRftNI4y2J7XCamdg4mhBsImZzNz2y1ncFMJV18yP1GwLhaAMBvzEdS0HC+CpcTKTtZEOLZ5B2VgKw9Yu5owAcxcA1TPxQkAIfBcPNP66e0XSk2bBkOt4J6JrgVD0noeUlyXj9k2AYn7THMOMcAEAmOSO8ZmJi4yhDLMlk5RPfqRXdce+BdGG4yKRaG+5koj+ajqMgITo7cGZ0f7eWs4m0xTOSq77xHtj20+dBNUBz2adeDoajf60JR6cYikPkYsvAc2vjV3RKaHkNES82HYOJnbHAmUsrARwhIlYAR+hFj9j0SXzY3nL9P4W0diBp25mlPRFKvCGsOSAKmesBWDvY3VHk4MuuLebWQhZLfzCp7wJi5kqjFQJwjgbWBMLRX40P3SJW91Zz1qLJAFy7cx8ULv6yjl4S5epuGO4RYO3ID2LRXadA6rpSpH7jBcOcSClIqInY3JAl6YmGTxaSi0yiZcEHzPg8gKKaFCvElYhEXPmssom0xVNSrfMeA/Ar03GMEhQBl5VQyXOBUPQ0CUGdcSR3dEZPYnR/fRcTfmYwgi3t2Ph3cVXNgjW38p7Eo4nqtqoTAJkmYiZj/1fCO9KF95pMxRseZeAK2DLLXTmwOh6sc2Mhm0hbPKekpPs6AC+YjmMUsS8RWoN1sfmeK8kd/UIr/+hJpAH4fGoJgLQJbWasMdKoKtdo2JGqnfSqkNaohEnJJZnKwE3y7FgZAUK2nT0UQKNhf6RaG+4E4SoA8sOZChQiPAef3ujGWjaRtnjO+ge/uQVM5wIomNqxUYAfzE3BULTBUxUS22E0U0PpIW0PzVsHwp+MiBu5oDMBOFlGCquNTGwcTQgOYqkYU/aMkNZ2gttwgrCfOzvdfuNNxgORbGm4nYALAGw1HYth3mGif0nMSE1NrJjvyv+XTaQtIiTj9e/7HJwLYFQ0kxUMhKZgOHqhJ2tPWVoC0ImerL0bxT2IZSA0eJEJXZ8BP+7qGc1HAAiKiBXozl9xwUKJNL+w7t658skbaemyjlc2PnptSlZzeCRaG/5Ejp4Kwp54mtPGTP+WLKejUi31v3Wzlt0m0hYRguHmsx0fHoZQTd4eBAFYstfM5oluL1xdte14ABVur9sfDPkJfBK0t8xfBQNlTUpBfBAL+5WclRoVhsVYsVJzetMkAAdIaDGbem/LlaVlKY7m18SqxldRRrd9QQkAAAq+SURBVNMYWIQ9o9TjHRA1+th/UCpef5ObEw17sYm0xVMmn7d0TDAc/QVAD0DK/WHPozqt1f+6vqoe5TWUUjBErfAIePvjFfPlHUNYbIIcZ4jsIJY8YL9P7r1Npk6bpCcaFs+pWvL++o5Ua0O9In0yIH/TLQAzKE6ELyTPSB2WbKlv3hC/brNXYjaRtnhGbWjhoZ2bO59AtmPY4iEE/lJ13UJXBw8w9KiuoZRiTJfzGwAJMUFjo5ilSgXwxqYV18v9Pkchgu9taJ8Wv0nO2nbyfqKiJP8886WtpfHZ5BmpTxHjKwC9bDoeF/iAQd/3OfhEqrU+nGhp+IOEHaFNpC2eEAw3n+2Qbw2AY03HsodQwqyudndJqR0dQzWUQrz/xIJtAP9CTNDAKOaaU28aD8ZRImLGdjhHEWJuPPzxxocb35HR2oGwbScAdCTP6CjOuuNIRCfiDf+XbJ33SRCdDeABFNXsB/4YwC+Y1DnJmkkHpFrrv71hVcObkhH4JcUsewaBUPRiZL2jS0zHskdB9HkA33FjqcrTlgSAtAbg+UWQif7mtYZpHMd3m8+nLxDRgn5MQqcvXFp2FAAR1xUCtUjojFoiEYWVCEDgvQ1Q3HuN3WGogwkslsBTgQ1iGRnEyRY8CODBmnDzJxi4gEHnA5iKwtt0fZFBfyHGvclQao3p3z2ZFLeMPgJ10a8T41YU3htvT4BVRu/T9kjjh6YDsVgsFkvxU3N60yRdQueC1VkATwVwkHAI7QCtBvRqBq3OKN/qQivtsom0xTV6kujbXF62nYEfEDALwAzYXe4h4C8mW+f/3nQUFovFYhl9TDh7YdCfUVOYaYpifJIZ+4GwDwH75Onb3QnCP8B4hxgvMfh5RXi+rbXhDYAKutTEJtIWVwjWNc8B028B+FxcNk3A7ERrwwoA2Hf6wootY/xTFevjGOpAgA8AY39kbZxct38rRgjUkGitj5mOw2KxWCx7FhNn3bZXt9O1t3LUXuzTBEYVNBSIKvs+jhhdTLxZMScc7U/4ONNWzCepNpG25E113aI6sL7P9SlSxFcnW+b/NNeHV562JKDK0+ORwQTy6fHQNAGECQCqoDEBisYTuBxMxEBVH6FK9JaisB4Hot5d7zHY8ZzKev4NAGORHTxRcLvjDPwg1drwLdNxWCwWi8WyJ2CbDS15UXN60yTNzm8BcjWJJuA3iWEk0QDQM1VKbLJUbejWcY7P2R+sj4bGsSB8GqApMHiDSswiA1QsFovFYrHYRNqSD5GI0ivp1wDt5eayDHpLdW+7xs01vaDH4P2Vnj/LAfxHMBTbFwrzwfx1ZHeuZSHaJK5psVgsFsseinVWsIyY6pWBGwGqc3tdBb6h7bEbizIhTMbr30+21N8ApiNgYmIUoUNc02KxWCyWPRSbSFtGRHDGj/Zj4D9cX5jxVKK1/s+urytMMl7/PvvKz4aQt24vxPyxpJ7FYrFYLHsyNpG2jAjy+78PwPV6XCZECt3qJldSD8/dyEw/kNSk0THm1WKxWCyWosAm0pZhUxNaNJUZl7i9LgEbUjWTRtmUO5acMueUjisvzjG1FovFYrEUITaRtgwbTfqb8MCZgoE/Y/mFjtvrmqRifLnYmFoAb6+7d+5WQT2LxWKxWPZobCJtGRZ7zWyeCOBzXqzNwD1erGuS7vatlUM/yi24VU7LYrFYLBaLTaQtwyLNdAWAUi/WznB6jRfrmoRLfPsJyj0kqGWxWCwWyx6PTaQtw4KAf/Fo6Y82xW9o82htY2jGGUJSjmZeIaRlsVgsFosFNpG2DIPa0K17g3GMR8u3e7SuQZgIfKmQ2N/a442j8HdosVgsFkvhYhNpS85klBOGV+OvCaPC8q4vgbpF5wI4VkKLiX4soWOxWCwWi2UHNpG25Awxwp4tzjgQkcioeT3Whm4dR8wxIbl/pqr3vk9Iy2KxWCwWSw+jJnGxCOBdWQcAVAQeCZ7q4fpyRCIqo5w7ABwoIUeghaPNNtBisVgslmLAJtKW3CE+3NP1NX/D0/UlCEX8gZWBXxKzJxaB/fBGoqPsNiEti8VisVgsfbCJtCUnxs9cXA2g2ksNAs4PhJqlmvNcZ6+ZzRODFHiAgMukNJnoBjwzNy2lZ7FYLBaLZQc2kbbkRCnrQyR0FNHPgnWxWRJa7sEUCDVfmtH0AoCZUqpE+Euqpf5eKT2LxWKxWCw7YxNpS06QdsZI6DBQBua/VNdF5wHsjUOIazAFQ9FPB8OxJ4joDgATBcXXdaXpSkE9i8VisVgsu1DgiYqlUKiZGQ1rjRZh2TUEfCvRWt8CUMHY41XWxQ5RGl8k4isBeFs33j+OUjirbUWDHQlusVgsFotBbCJtyYmqUNPxitRzhuRfIcadGvhTKpR6BZGIlpNmqqxbdLDSmAZgGhGfCeAIOf3dIfC3E63zv28yBovFYrFYLDaRtuRI5WlLAr6SdNJ0HAA2gfE8FJ4F8AI0PmQfr/N184a2vff5eLg2cONnLq4ugZ5ITHtrzZOI9F4gtQ8x783gTwB0JICx3jyVEUD4WbKl4Wumw7BYLBaLxWITacswCIZj7wK8n+k4BkED2Njz93YADKAbQGnP1yqR7QsoAyBS8+0yDyQ5dR7ikYzpQCwWi8VisQB+0wFYigl+CEAhN7gpAIGevwcGe2DxwS0+Lpljk2iLxWKxWAoH69phGQa8zHQEeya0PFmuztkQv26z6UgsFovFYrHswCbSlpxJtjY8CNDLpuPYk2Cmxckzkhfj/vou07FYLBaLxWLZGVsjbRkWwXDz2QA9YDqOPYDNxDQvEa//pelALBaLxWKx9I/PdACW4mLb2gfeHnPg7L1BmGo6ltEKg571Kd+sROu8FaZjsVgsFovFMjC2tMMybMZjQiMRTHlKj2a6GfT9VE1yetuK698wHYzFYrFYLJbBsaUdlhFReWbTwT5HPQJgsulYRgn3+RzM37Cq4U3TgVgsFovFYskNm0hbRkztjOhhjg8tAPY1HUsR8zoTfTPVUn+v6UAsFovFYrEMD5tIW/Kisi52iI/5PgCHm46lqCC8xBrfT9VOWj7caYwWi8VisVgKA5tIW/Km5tSbxnNZ+RJmXGo6liJgNbH+YSI+/08AselgLBaLxWKxjBybSFtcIxBqvpSI/hfAJNOxFBgJEH7NxL9IrZj/oulgLBaLxWKxuINNpC2uMnHWzWPT6bJvAPxNAONMx2OQrQw89P/bu39X2uM4juPP99cJOUh+DiSDumy6g0lRZFE2g9FiU/IX2Fn8BTbDvZNYb938yGJwduUknZJ8D0rC93zeBjeDyeD4uLwe03f69Ppuz+FTH4ONtN429aCKiIjI16OQlqpoGlttz1ntHDBveH/sPR+kBGy7+1b+Pvw5O1i6iz1IREREqkchLVXm1jq+NkGwWWAaaIu96B2VwHbNfL8Swu7V38WC7j2LiIh8Hwpp+Tgzv2raLs9H3cMUMAL8BHKRV73VNVAAPzKzwyxL9q53Fk5ijxIREZF4FNISTdfkSr5SqR0OwYfABnAGMf8B1hlpkgMl8KJhRTeODQpZlhwpmkVEROQ1hbR8On1j6/W3lHseLdddY96L0xOgO3F6AzSa0YzRgFMHtAB1QJ7nEL76d8zLt2PB8BSsDCE1rOzuKUZqnpSBs4SseNFxc8rv5YcY/ywiIiL/nyfZjN/lfTww6gAAAABJRU5ErkJggg==;perimeterSpacing=1;strokeWidth=1;imageBackground=#ffffff;" vertex="1" parent="uk3EmByN9aPvMEIkgGHb-15">
          <mxGeometry x="8.71999999999997" y="11.879999999999995" width="68.56" height="16.24" as="geometry" />
        </mxCell>
        <mxCell id="uk3EmByN9aPvMEIkgGHb-18" value="" style="group" vertex="1" connectable="0" parent="uk3EmByN9aPvMEIkgGHb-1">
          <mxGeometry x="60.01571428571421" y="-650" width="30.158730158730158" height="30.15" as="geometry" />
        </mxCell>
        <mxCell id="uk3EmByN9aPvMEIkgGHb-19" value="" style="group" vertex="1" connectable="0" parent="uk3EmByN9aPvMEIkgGHb-18">
          <mxGeometry width="30.158730158730158" height="30.15" as="geometry" />
        </mxCell>
        <mxCell id="uk3EmByN9aPvMEIkgGHb-20" value="" style="whiteSpace=wrap;html=1;aspect=fixed;fillColor=#001135;strokeColor=none;connectable=1;allowArrows=1;fontFamily=Manrope;fontSource=https%3A%2F%2Ffonts.googleapis.com%2Fcss%3Ffamily%3DManrope;" vertex="1" parent="uk3EmByN9aPvMEIkgGHb-19">
          <mxGeometry width="30.148963159878864" height="30.148963159878864" as="geometry" />
        </mxCell>
        <mxCell id="uk3EmByN9aPvMEIkgGHb-21" value="" style="endArrow=open;html=1;edgeStyle=orthogonalEdgeStyle;rounded=0;endFill=0;startSize=6;endSize=2;strokeColor=#FFFFFF;fontFamily=Manrope;fontSource=https%3A%2F%2Ffonts.googleapis.com%2Fcss%3Ffamily%3DManrope;" edge="1" parent="uk3EmByN9aPvMEIkgGHb-19">
          <mxGeometry y="13.774714454509649" width="50.26455026455025" height="50.25" as="geometry">
            <mxPoint x="3.0158730158730167" y="25.83471445450964" as="sourcePoint" />
            <mxPoint x="11.05820105820106" y="16.789714454509646" as="targetPoint" />
            <Array as="points">
              <mxPoint x="11.05820105820106" y="25.83471445450964" />
            </Array>
          </mxGeometry>
        </mxCell>
        <mxCell id="uk3EmByN9aPvMEIkgGHb-22" value="" style="endArrow=open;html=1;edgeStyle=orthogonalEdgeStyle;rounded=0;endFill=0;startSize=6;endSize=2;strokeColor=#FFFFFF;fontFamily=Manrope;fontSource=https%3A%2F%2Ffonts.googleapis.com%2Fcss%3Ffamily%3DManrope;" edge="1" parent="uk3EmByN9aPvMEIkgGHb-19">
          <mxGeometry y="-14.724694761717211" width="50.26455026455025" height="50.25" as="geometry">
            <mxPoint x="11.05820105820106" y="12.410305238282787" as="sourcePoint" />
            <mxPoint x="3.0158730158730167" y="4.370305238282789" as="targetPoint" />
            <Array as="points">
              <mxPoint x="11.05820105820106" y="4.370305238282789" />
            </Array>
          </mxGeometry>
        </mxCell>
        <mxCell id="uk3EmByN9aPvMEIkgGHb-23" value="" style="endArrow=open;html=1;edgeStyle=orthogonalEdgeStyle;rounded=0;endFill=0;startSize=6;endSize=2;strokeColor=#FFFFFF;fontFamily=Manrope;fontSource=https%3A%2F%2Ffonts.googleapis.com%2Fcss%3Ffamily%3DManrope;" edge="1" parent="uk3EmByN9aPvMEIkgGHb-19">
          <mxGeometry y="13.774714454509649" width="50.26455026455025" height="50.25" as="geometry">
            <mxPoint x="18.0952380952381" y="16.789714454509646" as="sourcePoint" />
            <mxPoint x="27.142857142857135" y="25.83471445450964" as="targetPoint" />
            <Array as="points">
              <mxPoint x="18.0952380952381" y="25.83471445450964" />
            </Array>
          </mxGeometry>
        </mxCell>
        <mxCell id="uk3EmByN9aPvMEIkgGHb-24" value="" style="endArrow=open;html=1;edgeStyle=orthogonalEdgeStyle;rounded=0;endFill=0;startSize=6;endSize=2;strokeColor=#FFFFFF;fontFamily=Manrope;fontSource=https%3A%2F%2Ffonts.googleapis.com%2Fcss%3Ffamily%3DManrope;" edge="1" parent="uk3EmByN9aPvMEIkgGHb-19">
          <mxGeometry y="-14.724694761717211" width="50.26455026455025" height="50.25" as="geometry">
            <mxPoint x="27.142857142857135" y="4.370305238282789" as="sourcePoint" />
            <mxPoint x="18.0952380952381" y="12.410305238282787" as="targetPoint" />
            <Array as="points">
              <mxPoint x="18.0952380952381" y="4.370305238282789" />
            </Array>
          </mxGeometry>
        </mxCell>
        <mxCell id="uk3EmByN9aPvMEIkgGHb-25" value="" style="group" vertex="1" connectable="0" parent="uk3EmByN9aPvMEIkgGHb-1">
          <mxGeometry x="60.00571428571422" y="-695.07" width="30.158730158730158" height="30.15" as="geometry" />
        </mxCell>
        <mxCell id="uk3EmByN9aPvMEIkgGHb-26" value="" style="group" vertex="1" connectable="0" parent="uk3EmByN9aPvMEIkgGHb-25">
          <mxGeometry width="30.158730158730158" height="30.15" as="geometry" />
        </mxCell>
        <mxCell id="uk3EmByN9aPvMEIkgGHb-27" value="" style="whiteSpace=wrap;html=1;aspect=fixed;fillColor=#001135;strokeColor=none;connectable=1;allowArrows=1;fontFamily=Manrope;fontSource=https%3A%2F%2Ffonts.googleapis.com%2Fcss%3Ffamily%3DManrope;" vertex="1" parent="uk3EmByN9aPvMEIkgGHb-26">
          <mxGeometry width="30.148963159878864" height="30.148963159878864" as="geometry" />
        </mxCell>
        <mxCell id="uk3EmByN9aPvMEIkgGHb-28" value="" style="endArrow=open;html=1;edgeStyle=orthogonalEdgeStyle;rounded=0;endFill=0;startSize=6;endSize=2;strokeColor=#FFFFFF;fontFamily=Manrope;fontSource=https%3A%2F%2Ffonts.googleapis.com%2Fcss%3Ffamily%3DManrope;" edge="1" parent="uk3EmByN9aPvMEIkgGHb-26">
          <mxGeometry y="13.774714454509649" width="50.26455026455025" height="50.25" as="geometry">
            <mxPoint x="3.0158730158730167" y="25.83471445450964" as="sourcePoint" />
            <mxPoint x="11.05820105820106" y="16.789714454509646" as="targetPoint" />
            <Array as="points">
              <mxPoint x="11.05820105820106" y="25.83471445450964" />
            </Array>
          </mxGeometry>
        </mxCell>
        <mxCell id="uk3EmByN9aPvMEIkgGHb-29" value="" style="endArrow=open;html=1;edgeStyle=orthogonalEdgeStyle;rounded=0;endFill=0;startSize=6;endSize=2;strokeColor=#FFFFFF;fontFamily=Manrope;fontSource=https%3A%2F%2Ffonts.googleapis.com%2Fcss%3Ffamily%3DManrope;" edge="1" parent="uk3EmByN9aPvMEIkgGHb-26">
          <mxGeometry y="-14.724694761717211" width="50.26455026455025" height="50.25" as="geometry">
            <mxPoint x="11.05820105820106" y="12.410305238282787" as="sourcePoint" />
            <mxPoint x="3.0158730158730167" y="4.370305238282789" as="targetPoint" />
            <Array as="points">
              <mxPoint x="11.05820105820106" y="4.370305238282789" />
            </Array>
          </mxGeometry>
        </mxCell>
        <mxCell id="uk3EmByN9aPvMEIkgGHb-30" value="" style="endArrow=open;html=1;edgeStyle=orthogonalEdgeStyle;rounded=0;endFill=0;startSize=6;endSize=2;strokeColor=#FFFFFF;fontFamily=Manrope;fontSource=https%3A%2F%2Ffonts.googleapis.com%2Fcss%3Ffamily%3DManrope;" edge="1" parent="uk3EmByN9aPvMEIkgGHb-26">
          <mxGeometry y="13.774714454509649" width="50.26455026455025" height="50.25" as="geometry">
            <mxPoint x="18.0952380952381" y="16.789714454509646" as="sourcePoint" />
            <mxPoint x="27.142857142857135" y="25.83471445450964" as="targetPoint" />
            <Array as="points">
              <mxPoint x="18.0952380952381" y="25.83471445450964" />
            </Array>
          </mxGeometry>
        </mxCell>
        <mxCell id="uk3EmByN9aPvMEIkgGHb-31" value="" style="endArrow=open;html=1;edgeStyle=orthogonalEdgeStyle;rounded=0;endFill=0;startSize=6;endSize=2;strokeColor=#FFFFFF;fontFamily=Manrope;fontSource=https%3A%2F%2Ffonts.googleapis.com%2Fcss%3Ffamily%3DManrope;" edge="1" parent="uk3EmByN9aPvMEIkgGHb-26">
          <mxGeometry y="-14.724694761717211" width="50.26455026455025" height="50.25" as="geometry">
            <mxPoint x="27.142857142857135" y="4.370305238282789" as="sourcePoint" />
            <mxPoint x="18.0952380952381" y="12.410305238282787" as="targetPoint" />
            <Array as="points">
              <mxPoint x="18.0952380952381" y="4.370305238282789" />
            </Array>
          </mxGeometry>
        </mxCell>
        <mxCell id="uk3EmByN9aPvMEIkgGHb-32" style="edgeStyle=orthogonalEdgeStyle;rounded=0;orthogonalLoop=1;jettySize=auto;html=1;exitX=0;exitY=0.5;exitDx=0;exitDy=0;entryX=1;entryY=0.5;entryDx=0;entryDy=0;" edge="1" parent="uk3EmByN9aPvMEIkgGHb-1" source="uk3EmByN9aPvMEIkgGHb-16" target="uk3EmByN9aPvMEIkgGHb-10">
          <mxGeometry relative="1" as="geometry">
            <Array as="points">
              <mxPoint x="120.02000000000001" y="-680" />
              <mxPoint x="120.02000000000001" y="-725" />
            </Array>
          </mxGeometry>
        </mxCell>
        <mxCell id="uk3EmByN9aPvMEIkgGHb-33" style="edgeStyle=orthogonalEdgeStyle;rounded=0;orthogonalLoop=1;jettySize=auto;html=1;exitX=0;exitY=0.5;exitDx=0;exitDy=0;entryX=1;entryY=0.5;entryDx=0;entryDy=0;" edge="1" parent="uk3EmByN9aPvMEIkgGHb-1" source="uk3EmByN9aPvMEIkgGHb-16" target="uk3EmByN9aPvMEIkgGHb-27">
          <mxGeometry relative="1" as="geometry" />
        </mxCell>
        <mxCell id="uk3EmByN9aPvMEIkgGHb-34" style="edgeStyle=orthogonalEdgeStyle;rounded=0;orthogonalLoop=1;jettySize=auto;html=1;exitX=0;exitY=0.5;exitDx=0;exitDy=0;entryX=1;entryY=0.5;entryDx=0;entryDy=0;" edge="1" parent="uk3EmByN9aPvMEIkgGHb-1" source="uk3EmByN9aPvMEIkgGHb-16" target="uk3EmByN9aPvMEIkgGHb-20">
          <mxGeometry relative="1" as="geometry">
            <Array as="points">
              <mxPoint x="120.02000000000001" y="-680" />
              <mxPoint x="120.02000000000001" y="-635" />
            </Array>
          </mxGeometry>
        </mxCell>
        <mxCell id="uk3EmByN9aPvMEIkgGHb-37" value="gNMI Subscribe" style="text;html=1;strokeColor=none;fillColor=none;align=center;verticalAlign=middle;whiteSpace=wrap;rounded=0;" vertex="1" parent="uk3EmByN9aPvMEIkgGHb-1">
          <mxGeometry x="140.02" y="-709.85" width="40" height="20" as="geometry" />
        </mxCell>
        <mxCell id="uk3EmByN9aPvMEIkgGHb-38" style="edgeStyle=orthogonalEdgeStyle;rounded=0;orthogonalLoop=1;jettySize=auto;html=1;exitX=0.5;exitY=0;exitDx=0;exitDy=0;entryX=0.504;entryY=0.986;entryDx=0;entryDy=0;entryPerimeter=0;" edge="1" parent="uk3EmByN9aPvMEIkgGHb-1" source="uk3EmByN9aPvMEIkgGHb-16" target="uk3EmByN9aPvMEIkgGHb-40">
          <mxGeometry relative="1" as="geometry">
            <mxPoint x="275" y="-780" as="targetPoint" />
          </mxGeometry>
        </mxCell>
        <mxCell id="uk3EmByN9aPvMEIkgGHb-39" value="Start a long watch on Services or KV updates" style="text;html=1;strokeColor=none;fillColor=none;align=center;verticalAlign=middle;whiteSpace=wrap;rounded=0;" vertex="1" parent="uk3EmByN9aPvMEIkgGHb-1">
          <mxGeometry x="290" y="-770" width="80" height="43" as="geometry" />
        </mxCell>
        <mxCell id="uk3EmByN9aPvMEIkgGHb-40" value="" style="shape=image;verticalLabelPosition=bottom;labelBackgroundColor=#ffffff;verticalAlign=top;aspect=fixed;imageAspect=0;image=data:image/svg+xml,PHN2ZyB4bWxucz0iaHR0cDovL3d3dy53My5vcmcvMjAwMC9zdmciIHhtbG5zOnhsaW5rPSJodHRwOi8vd3d3LnczLm9yZy8xOTk5L3hsaW5rIiB2ZXJzaW9uPSIxLjEiIGlkPSJsYXllciIgeD0iMHB4IiB5PSIwcHgiIHZpZXdCb3g9Ii0xNTMgLTQ2IDY1MiA2NTIiIHN0eWxlPSJlbmFibGUtYmFja2dyb3VuZDpuZXcgLTE1MyAtNDYgNjUyIDY1MjsiIHhtbDpzcGFjZT0icHJlc2VydmUiPiYjeGE7PHN0eWxlIHR5cGU9InRleHQvY3NzIj4mI3hhOwkuc3Qwe2ZpbGw6IzhDMUM1OTt9JiN4YTsJLnN0MXtmaWxsOiNDNjJBNzE7fSYjeGE7PC9zdHlsZT4mI3hhOzxnPiYjeGE7CTxwYXRoIGQ9Ik05My42LDI1MS4xYzAtMTksMTEuMS0yOS45LDM2LjctMjkuOWM5LjcsMCwxOS41LDEuMiwyOC4xLDMuM2wtMi4xLDE2LjljLTguNC0xLjYtMTguMS0yLjYtMjUuMy0yLjYgICBjLTEzLjUsMC0xNy44LDQuNi0xNy44LDE1LjZ2MzkuN2MwLDExLjEsNC40LDE1LjYsMTcuOCwxNS42YzcuMiwwLDE2LjktMS4xLDI1LjMtMi42bDIuMSwxNi45Yy04LjQsMi4xLTE4LjUsMy4zLTI4LjEsMy4zICAgYy0yNS43LDAtMzYuNy0xMS4xLTM2LjctMjkuOVYyNTEuMXogTTE5Ni45LDMyNy42Yy0yNS44LDAtMzIuOS0xNC4yLTMyLjktMjkuN3YtMTljMC0xNS41LDctMjkuNywzMi45LTI5LjdzMzIuOSwxNC4yLDMyLjksMjkuNyAgIHYxOUMyMjkuOCwzMTMuNCwyMjIuOSwzMjcuNiwxOTYuOSwzMjcuNnogTTE5Ni45LDI2NWMtMTAsMC0xMy45LDQuNi0xMy45LDEzdjIwLjJjMCw4LjQsMy45LDEzLDEzLjksMTNzMTMuOS00LjYsMTMuOS0xM1YyNzggICBDMjExLDI2OS42LDIwNy4xLDI2NSwxOTYuOSwyNjV6IE0yODQuMywzMjZ2LTUyLjdjMC00LTEuOC02LTYtNmMtNC42LDAtMTIuOCwyLjgtMTkuNyw2LjNWMzI2aC0xOXYtNzUuNEgyNTRsMS45LDYuMyAgIGM5LjUtNC42LDIxLjQtNy45LDMwLjItNy45YzEyLjUsMCwxNyw4LjgsMTcsMjIuM1YzMjZDMzAzLjIsMzI2LDI4NC4zLDMyNiwyODQuMywzMjZ6IE0zMzguOSwzMjcuNmMtOC4xLDAtMTktMS45LTI2LTQuNGwyLjYtMTQuNCAgIGM2LjMsMS45LDE0LjgsMy4zLDIyLjUsMy4zYzguNCwwLDkuNy0xLjksOS43LTcuNmMwLTQuNi0wLjktNy0xMy4yLTkuOGMtMTguNS00LjYtMjAuNi05LjEtMjAuNi0yMy43YzAtMTUuMSw2LjctMjEuOCwyOC4xLTIxLjggICBjNywwLDE2LjIsMC45LDIyLjcsMi42bC0xLjksMTUuMWMtNS44LTEuMS0xNC45LTIuMS0yMC43LTIuMWMtOC4zLDAtOS43LDEuOS05LjcsNi41YzAsNiwwLjUsNi41LDEwLjcsOS4xICAgYzIxLjEsNS42LDIzLDguNCwyMywyMy45QzM2Ni4yLDMxOC42LDM2MS44LDMyNy42LDMzOC45LDMyNy42TDMzOC45LDMyNy42eiBNMzk0LjUsMjUwLjZ2NTIuN2MwLDQsMS44LDYsNiw2ICAgYzQuNiwwLDEyLjgtMi44LDE5LjctNi4zdi01Mi40aDE5VjMyNmgtMTQuNGwtMS45LTYuM2MtOS41LDQuNi0yMS40LDcuOS0zMC4yLDcuOWMtMTIuNSwwLTE3LTguOC0xNy0yMi4zdi01NC43SDM5NC41eiBNNDQ5LjEsMzI2ICAgVjIxOS43bDE5LTIuNnYxMDkiLz4mI3hhOwk8cGF0aCBjbGFzcz0ic3QwIiBkPSJNLTM5LjMsMjk0LjljLTExLjEsMC0yMC05LTIwLTIwYzAtMTEuMSw5LTIwLDIwLTIwczIwLDksMjAsMjBTLTI4LjIsMjk0LjktMzkuMywyOTQuOSIvPiYjeGE7CTxwYXRoIGNsYXNzPSJzdDEiIGQ9Ik0tMC4zLDI4NC4yYy01LjEsMC05LjMtNC05LjMtOS4zYzAtNS4xLDQtOS4zLDkuMy05LjNjNS4xLDAsOS4zLDQsOS4zLDkuM0M5LDI4MCw0LjgsMjg0LjItMC4zLDI4NC4yICAgIE0zMy41LDI5Mi44Yy0xLjIsNC45LTYuMyw3LjktMTEuMiw2LjdzLTcuOS02LjMtNi43LTExLjJjMS4yLTQuOSw2LjMtNy45LDExLjItNi43YzQuNywxLjIsNy43LDUuOCw2LjksMTAuNSAgIEMzMy42LDI5Mi40LDMzLjYsMjkyLjYsMzMuNSwyOTIuOCBNMjcsMjY5LjFjLTQuOSwxLjItMTAtMS45LTExLjEtNi45Yy0xLjEtNC45LDEuOS0xMCw2LjktMTEuMWM0LjktMS4yLDEwLDEuOSwxMS4xLDYuOSAgIGMwLjIsMS4yLDAuNCwyLjUsMC4yLDMuN0MzMy41LDI2NS4yLDMwLjgsMjY4LjIsMjcsMjY5LjEgTTU5LjgsMjkxLjljLTAuOSw1LjEtNS42LDguNC0xMC43LDcuNnMtOC40LTUuNi03LjYtMTAuNyAgIGMwLjktNS4xLDUuNi04LjQsMTAuNy03LjZjNC43LDAuOSw4LjEsNS4xLDcuNyw5LjhDNjAsMjkxLjIsNTkuOCwyOTEuNiw1OS44LDI5MS45IE01Mi4zLDI2OC43Yy01LjEsMC45LTkuOC0yLjYtMTAuNS03LjYgICBjLTAuOS01LjEsMi42LTkuOCw3LjYtMTAuNWM1LjEtMC45LDkuOCwyLjYsMTAuNSw3LjZjMC4yLDAuOSwwLjIsMS42LDAuMiwyLjVDNTkuNywyNjQuNSw1Ni41LDI2OCw1Mi4zLDI2OC43IE00NS45LDMyMy45ICAgYy0yLjYsNC40LTguMSw2LTEyLjcsMy41Yy00LjQtMi42LTYtOC4xLTMuNS0xMi43YzIuNi00LjQsOC4xLTYsMTIuNy0zLjVjMy4yLDEuOCw0LjksNS4zLDQuNiw4LjhDNDcsMzIxLjQsNDYuNywzMjIuNyw0NS45LDMyMy45ICAgIE00Mi42LDIzOC44Yy00LjQsMi41LTEwLDAuOS0xMi43LTMuNWMtMi41LTQuNC0wLjktMTAsMy41LTEyLjdjNC40LTIuNSwxMC0wLjksMTIuNywzLjVjMS4xLDEuOCwxLjQsMy41LDEuMSw1LjMgICBDNDcsMjM0LjYsNDUuMiwyMzcuNCw0Mi42LDIzOC44Ii8+JiN4YTsJPHBhdGggY2xhc3M9InN0MSIgZD0iTS0zOC45LDM2OGMtMjUsMC00OC4yLTkuNy02NS43LTI3LjJjLTE3LjYtMTcuNi0yNy4yLTQwLjktMjcuMi02NS43czkuNy00OC4yLDI3LjItNjUuN3M0MC45LTI3LjIsNjUuNy0yNy4yICAgYzIwLjYsMCw0MC4xLDYuNyw1Ni40LDE5LjJMNi4xLDIxNmMtMTMtMTAtMjguNi0xNS4zLTQ1LTE1LjNjLTE5LjksMC0zOC41LDcuNy01Mi41LDIxLjhzLTIxLjYsMzIuNy0yMS42LDUyLjVzNy43LDM4LjUsMjEuOCw1Mi41ICAgczMyLjcsMjEuNiw1Mi41LDIxLjZjMTYuNSwwLDMyLTUuMyw0NS0xNS4zbDExLjQsMTQuOEMxLjEsMzYxLjUtMTguNCwzNjgtMzguOSwzNjh6Ii8+JiN4YTs8L2c+JiN4YTs8L3N2Zz4=;fontFamily=Manrope;fontSource=https%3A%2F%2Ffonts.googleapis.com%2Fcss%3Ffamily%3DManrope;" vertex="1" parent="uk3EmByN9aPvMEIkgGHb-1">
          <mxGeometry x="247.51999999999998" y="-830" width="55" height="55" as="geometry" />
        </mxCell>
      </root>
    </mxGraphModel>
  </diagram>
  <diagram name="Docker" id="8qBFuuuzk4out3WuK6vu">
    <mxGraphModel dx="618" dy="1233" grid="1" gridSize="10" guides="1" tooltips="1" connect="1" arrows="1" fold="1" page="1" pageScale="1" pageWidth="413" pageHeight="291" math="0" shadow="0">
      <root>
        <mxCell id="oh1WVrc3EDfpSiOXZRZg-0" />
        <mxCell id="oh1WVrc3EDfpSiOXZRZg-1" parent="oh1WVrc3EDfpSiOXZRZg-0" />
        <mxCell id="oh1WVrc3EDfpSiOXZRZg-40" value="" style="rounded=1;whiteSpace=wrap;html=1;fontFamily=Manrope;fontSource=https%3A%2F%2Ffonts.googleapis.com%2Fcss%3Ffamily%3DManrope;labelBackgroundColor=none;fillColor=#f5f5f5;strokeColor=#666666;fontColor=#333333;" vertex="1" parent="oh1WVrc3EDfpSiOXZRZg-1">
          <mxGeometry x="10" y="-830" width="110" height="220" as="geometry" />
        </mxCell>
        <mxCell id="oh1WVrc3EDfpSiOXZRZg-2" value="" style="group" vertex="1" connectable="0" parent="oh1WVrc3EDfpSiOXZRZg-1">
          <mxGeometry x="59.9957142857142" y="-750" width="30.158730158730158" height="40.15" as="geometry" />
        </mxCell>
        <mxCell id="oh1WVrc3EDfpSiOXZRZg-3" value="" style="group" vertex="1" connectable="0" parent="oh1WVrc3EDfpSiOXZRZg-2">
          <mxGeometry width="30.158730158730158" height="40.15" as="geometry" />
        </mxCell>
        <mxCell id="oh1WVrc3EDfpSiOXZRZg-4" value="" style="endArrow=open;html=1;edgeStyle=orthogonalEdgeStyle;rounded=0;endFill=0;startSize=6;endSize=2;strokeColor=#FFFFFF;fontFamily=Manrope;fontSource=https%3A%2F%2Ffonts.googleapis.com%2Fcss%3Ffamily%3DManrope;" edge="1" parent="oh1WVrc3EDfpSiOXZRZg-3">
          <mxGeometry y="13.774714454509649" width="50.26455026455025" height="50.25" as="geometry">
            <mxPoint x="3.0158730158730167" y="25.83471445450964" as="sourcePoint" />
            <mxPoint x="11.05820105820106" y="16.789714454509646" as="targetPoint" />
            <Array as="points">
              <mxPoint x="11.05820105820106" y="25.83471445450964" />
            </Array>
          </mxGeometry>
        </mxCell>
        <mxCell id="oh1WVrc3EDfpSiOXZRZg-5" value="" style="endArrow=open;html=1;edgeStyle=orthogonalEdgeStyle;rounded=0;endFill=0;startSize=6;endSize=2;strokeColor=#FFFFFF;fontFamily=Manrope;fontSource=https%3A%2F%2Ffonts.googleapis.com%2Fcss%3Ffamily%3DManrope;" edge="1" parent="oh1WVrc3EDfpSiOXZRZg-3">
          <mxGeometry y="-14.724694761717211" width="50.26455026455025" height="50.25" as="geometry">
            <mxPoint x="11.05820105820106" y="12.410305238282787" as="sourcePoint" />
            <mxPoint x="3.0158730158730167" y="4.370305238282789" as="targetPoint" />
            <Array as="points">
              <mxPoint x="11.05820105820106" y="4.370305238282789" />
            </Array>
          </mxGeometry>
        </mxCell>
        <mxCell id="oh1WVrc3EDfpSiOXZRZg-6" value="" style="endArrow=open;html=1;edgeStyle=orthogonalEdgeStyle;rounded=0;endFill=0;startSize=6;endSize=2;strokeColor=#FFFFFF;fontFamily=Manrope;fontSource=https%3A%2F%2Ffonts.googleapis.com%2Fcss%3Ffamily%3DManrope;startArrow=none;" edge="1" parent="oh1WVrc3EDfpSiOXZRZg-3">
          <mxGeometry y="13.774714454509649" width="50.26455026455025" height="50.25" as="geometry">
            <mxPoint x="27.142857142857167" y="26.024080505198754" as="sourcePoint" />
            <mxPoint x="27.142857142857135" y="25.83471445450964" as="targetPoint" />
            <Array as="points">
              <mxPoint x="18.0952380952381" y="25.83471445450964" />
            </Array>
          </mxGeometry>
        </mxCell>
        <mxCell id="oh1WVrc3EDfpSiOXZRZg-7" value="" style="endArrow=open;html=1;edgeStyle=orthogonalEdgeStyle;rounded=0;endFill=0;startSize=6;endSize=2;strokeColor=#FFFFFF;fontFamily=Manrope;fontSource=https%3A%2F%2Ffonts.googleapis.com%2Fcss%3Ffamily%3DManrope;" edge="1" parent="oh1WVrc3EDfpSiOXZRZg-3">
          <mxGeometry y="-14.724694761717211" width="50.26455026455025" height="50.25" as="geometry">
            <mxPoint x="27.142857142857135" y="4.370305238282789" as="sourcePoint" />
            <mxPoint x="18.0952380952381" y="12.410305238282787" as="targetPoint" />
            <Array as="points">
              <mxPoint x="18.0952380952381" y="4.370305238282789" />
            </Array>
          </mxGeometry>
        </mxCell>
        <mxCell id="oh1WVrc3EDfpSiOXZRZg-8" value="" style="group" vertex="1" connectable="0" parent="oh1WVrc3EDfpSiOXZRZg-3">
          <mxGeometry y="10" width="30.158730158730158" height="30.15" as="geometry" />
        </mxCell>
        <mxCell id="oh1WVrc3EDfpSiOXZRZg-9" value="" style="group" vertex="1" connectable="0" parent="oh1WVrc3EDfpSiOXZRZg-8">
          <mxGeometry width="30.158730158730158" height="30.15" as="geometry" />
        </mxCell>
        <mxCell id="oh1WVrc3EDfpSiOXZRZg-10" value="" style="whiteSpace=wrap;html=1;aspect=fixed;fillColor=#001135;strokeColor=none;connectable=1;allowArrows=1;fontFamily=Manrope;fontSource=https%3A%2F%2Ffonts.googleapis.com%2Fcss%3Ffamily%3DManrope;" vertex="1" parent="oh1WVrc3EDfpSiOXZRZg-9">
          <mxGeometry width="30.148963159878864" height="30.148963159878864" as="geometry" />
        </mxCell>
        <mxCell id="oh1WVrc3EDfpSiOXZRZg-11" value="" style="endArrow=open;html=1;edgeStyle=orthogonalEdgeStyle;rounded=0;endFill=0;startSize=6;endSize=2;strokeColor=#FFFFFF;fontFamily=Manrope;fontSource=https%3A%2F%2Ffonts.googleapis.com%2Fcss%3Ffamily%3DManrope;" edge="1" parent="oh1WVrc3EDfpSiOXZRZg-9">
          <mxGeometry y="13.774714454509649" width="50.26455026455025" height="50.25" as="geometry">
            <mxPoint x="3.0158730158730167" y="25.83471445450964" as="sourcePoint" />
            <mxPoint x="11.05820105820106" y="16.789714454509646" as="targetPoint" />
            <Array as="points">
              <mxPoint x="11.05820105820106" y="25.83471445450964" />
            </Array>
          </mxGeometry>
        </mxCell>
        <mxCell id="oh1WVrc3EDfpSiOXZRZg-12" value="" style="endArrow=open;html=1;edgeStyle=orthogonalEdgeStyle;rounded=0;endFill=0;startSize=6;endSize=2;strokeColor=#FFFFFF;fontFamily=Manrope;fontSource=https%3A%2F%2Ffonts.googleapis.com%2Fcss%3Ffamily%3DManrope;" edge="1" parent="oh1WVrc3EDfpSiOXZRZg-9">
          <mxGeometry y="-14.724694761717211" width="50.26455026455025" height="50.25" as="geometry">
            <mxPoint x="11.05820105820106" y="12.410305238282787" as="sourcePoint" />
            <mxPoint x="3.0158730158730167" y="4.370305238282789" as="targetPoint" />
            <Array as="points">
              <mxPoint x="11.05820105820106" y="4.370305238282789" />
            </Array>
          </mxGeometry>
        </mxCell>
        <mxCell id="oh1WVrc3EDfpSiOXZRZg-13" value="" style="endArrow=open;html=1;edgeStyle=orthogonalEdgeStyle;rounded=0;endFill=0;startSize=6;endSize=2;strokeColor=#FFFFFF;fontFamily=Manrope;fontSource=https%3A%2F%2Ffonts.googleapis.com%2Fcss%3Ffamily%3DManrope;" edge="1" parent="oh1WVrc3EDfpSiOXZRZg-9">
          <mxGeometry y="13.774714454509649" width="50.26455026455025" height="50.25" as="geometry">
            <mxPoint x="18.0952380952381" y="16.789714454509646" as="sourcePoint" />
            <mxPoint x="27.142857142857135" y="25.83471445450964" as="targetPoint" />
            <Array as="points">
              <mxPoint x="18.0952380952381" y="25.83471445450964" />
            </Array>
          </mxGeometry>
        </mxCell>
        <mxCell id="oh1WVrc3EDfpSiOXZRZg-14" value="" style="endArrow=open;html=1;edgeStyle=orthogonalEdgeStyle;rounded=0;endFill=0;startSize=6;endSize=2;strokeColor=#FFFFFF;fontFamily=Manrope;fontSource=https%3A%2F%2Ffonts.googleapis.com%2Fcss%3Ffamily%3DManrope;" edge="1" parent="oh1WVrc3EDfpSiOXZRZg-9">
          <mxGeometry y="-14.724694761717211" width="50.26455026455025" height="50.25" as="geometry">
            <mxPoint x="27.142857142857135" y="4.370305238282789" as="sourcePoint" />
            <mxPoint x="18.0952380952381" y="12.410305238282787" as="targetPoint" />
            <Array as="points">
              <mxPoint x="18.0952380952381" y="4.370305238282789" />
            </Array>
          </mxGeometry>
        </mxCell>
        <mxCell id="oh1WVrc3EDfpSiOXZRZg-15" value="" style="group" vertex="1" connectable="0" parent="oh1WVrc3EDfpSiOXZRZg-1">
          <mxGeometry x="230.02000000000007" y="-700" width="90" height="40" as="geometry" />
        </mxCell>
        <mxCell id="oh1WVrc3EDfpSiOXZRZg-16" value="" style="rounded=1;whiteSpace=wrap;html=1;" vertex="1" parent="oh1WVrc3EDfpSiOXZRZg-15">
          <mxGeometry width="90" height="40" as="geometry" />
        </mxCell>
        <mxCell id="oh1WVrc3EDfpSiOXZRZg-17" value="" style="shape=image;verticalLabelPosition=bottom;labelBackgroundColor=#ffffff;verticalAlign=top;aspect=fixed;imageAspect=0;image=data:image/png,iVBORw0KGgoAAAANSUhEUgAAAtIAAACrCAYAAABL2HuKAAAACXBIWXMAAC4jAAAuIwF4pT92AAAAGXRFWHRTb2Z0d2FyZQB3d3cuaW5rc2NhcGUub3Jnm+48GgAAIABJREFUeJzsnXl4m9WV/7/nSt6y2ZJtQsK+lq1sCZAUCJIDoaFQ2tIAHZYWSklZYscpHWba30zVmU5bBhpbSghNNzqlpZC0dKEFCsRWwpqwQ9mXpiyBEEtynM229N7z+0N24iReZOt9z5Wc+3mePE9iy/d75Eh6z3vvOd9DsFgsFsPsO31hxdZyXzuAUilNBm5NtTZcL6UnSTAUvQqEn8qo8aeTrfP/JqOVpSrUdLwi9ZykZi/E6shEfN5rJrSLgkhEBVcGHgQw04D648nWhlOlRQN10X8jxg+k9IjwXKKl4UQpPcvgKNMBWCwWy5Yx/qkQTKIBgIDLg7NjEyQ1xSBME1JiJ126RkhrO6R806U1e9GkP2tKuxgIrgxEYCaJBoieMKLLYu+3Xj0zz9PSLzaRtlgs5tHCF6Is47mL/8WArgAk8/skvLbx0WtTIlp9kU5c+kDAeaa0C52aUFMIwLeMBaDxpAlZAk4RFjTyPC39YxNpi8ViHII2khgR06gr7cjusvORImKGdsYIbCyRBjB9fOiWGoP6BcnEWbftpUndCcBnMAzxBLPyzKaDAewtqakyNpEuJGwibbFYCgCS3dHZDh8dCEVPM6PtEV2YBqnPdmLxC/r4mYurARwmrdsHX6kqmW1Qv/CIRFS6u/vXACYZjGJdMl7/vrSocpT0TV1iw6r6t4Q1LYNgE2mLxWKUqrrFBwDYx5S+IlxjStsTBMseWMvXpPq1ngaApHX7wky2vKMP1auC3wLhLLNR0GNGZJlE6/WJ8ARALKlpGRybSFssFqOQdow1jgEAA1/ca2bzRJMxuAqLlclsStVOelVIazsk9/wGgWdjdqzMdBSFQGBm7HRm/o7pOAD50xEAIBJ+PRqqA7cMjE2kLRaLUUiZaxzrodTR+KrhGFyCCUQnC4mtxvILHSGtHZDsDuAAjAt26xmmgzDNhLMXBknzrwH4TccCpcVPR/advrACoGNFRZWyjh0Fhk2kLRaLWQw6MOwIgeZizjKTTVKuUBOOHg6gWkhO/oIeiSgAJ4nr9gPrPb28g8nX7b8dwP6mIwHQPcGpEvcVN2DbqbmMnxbUs+SATaQtFos5ZsfKCDjedBgA9g8kPjrHdBD5wqzEdmvZgENCoKX6aAAF4f1NwPmmYzBJILzoBgIXiqf2c2vjV3SKq8rbdv49eX99h7CmZQhsIm2xWIwR7OIpDBRErSlpXfRNhyxXr8kZTssPYvHpQijr6GX/wIxFnzQdhAmq62InE/h7puPYDrMZG0Zm4dejmedpGRybSFssFnNo6QvRIBB9unZG1KStmgsIDWIB3tgUv6FNSKsvxsuA+qLUnjflsCrUVMXMd0F4EukQmGnAI9lBLMTKNhoWIDaRtlgs5lBiiV8ukOPjr5kOYqRMnHXzWABHC8mZuqAXzo0XAKY9bcohk4L6BYCDTEfSF/bL2zD22HZOltQkkm+otAyNTaQtFos5CqDRcGfoygNDt5ebjmIkZDLlp0DIPYENjCiuCjVVAThcWncITqoN3So61c4kwVCsHoTPm45jFz5MPdzwrrSoAdvO9rbWhjeENS05YBNpi8VihJqzFk0GsK/pOHahehNtvNB0ECOCHblBLCy/A6ig5CY25o5yyCn6JtVcqAlHpxDhJtNx7I6h+mhp205mO4ilQCm0DyWLxbKHoB3nVNMx9AeDirPpkMXKZLa0c/JlIa0dUAHV0/dhTyjvqA3dOk4DvymUxuCdIPmbOgAAC5cZmXqeliGxibTFYjGDXOI3XKbVhKNTTAcxXJggNIiFVyMeycho9aUwXy/EPGvyeUvHmI7DSzRllgL4hOk4+oNNTPrL2nYeJ6qpzExutAyNTaQtFosZuCAm1PWLJnzddAzDobIudggAkTHnDBPOAUwokEEs/TBm2+bOkOkgvCJQF/06A/9iOo4BSFeML39WWtSAbadmqhC3m7Tkhk2kLRaLPHMipSA+wXQYA8K4ZMLZC4Omw8gVpQX9lQ00GgbDTUcBCEjr5ori0VneEQhFjyHGQtNxDAjj+XX3zt0qritv2/lK6uG5G4U1LTliE2mLxSJOdVvVCQAK2R2jwp/2X246iJwhsbIHTqcNHKWzKsiyjl6Y8NmeXfNRw8RZN48lhWUAKkzHMhAm3GMAyNt2mnqelpywibTFYhGHSW6U9UhhxnXFkhyR0KASBr29+ZH6DRJaO0GFWwbUw+SauubCPWEZAd3psiVgHGk6jkEx12go7NhhGw0LGZtIWywWeQrOP3p3CHxodThWZzqOodh3+sIKAMfKqJkaUVyYjYZ90VCjZsphsC56BYEL/kRGZ0i+zGjGj/aDtG2nsjvShYxNpC0WiwEK08psVxgoeCu8zRXqJAAlMmryzgHB2bEJABf2zigAZhoVddI1MxcfDkbUdBxDwx9vXDXvH+Kyfp/0TV178vTka8KalmFgE2mLxSJKzelNkwDsbzqOHDk/GIoV2tCYnSBBG0F2lPyOdBcKcRDLbhD4hEJ/rQzFgaHby7V2lgEYbzqWoWBSjxsSFk6kaTUiES2raRkOBf/hZLFYRhfs9xXFbnQPfii+ynQQg0FyZTJb21XyJSGtHRRBGVAPxMBnTAeRDx3UsRjS/sgjxYR/NCBv20nWP7rQsYm0xWIRhbk4yjq2w7gaU5YKlU6MAMIpMjJ4yswgluJ5vRBx0ZZ3BMPRCwF81XQcucJKy5+OzI6Vidt2sqm+BEuu2ETaYrHIQkWzw9jLpOD4rvNNB9EfVXWLDwAwWUSMYeCCzgRITWzMHwLOrA3dOs50HMOlNrTwUAA/NR3HMMiU+dPPSIsGt0HatpOddKkdxFLg2ETaYrHIkd3ZPdF0GMOGdEE2HZJ2RvUglurQ4k8AKJrBOAyUacrMNB3HsJgdK8uQ/24AE0yHkisMenH9g9/cIi6shDcBCK9tfPTalKimZdjYRNpisYhRXbXteABjTMcxfKguGF54tOkodoUEL+yK/aultHphJTix0SUYxTXlsLqTFxK4yG5uDZU7iPtHmzgFsgwXm0hbLBY5xDve3URdbTqC3ZC7sL+zIX7dR0JaOyieRsM+8HmIRIri2hoMN1/AwLWm4xg2bKoBT7he3zYaFgVF8Wa3WCyjg6JrNNwJ+vLEWTePNR3FdmbHygg4XkKKYMghgVCErxfaq3pl1UmmoxiKwJnR/QH6iek4RoJW8jaMNWctmgxh207WdqJhMWATaYvFIkgx70ijMp0uvcR0EL0Eu3gKA2UiYgbqo2tOvWk8GEdJ67qBpgIfzjJlaQll6C4UUf15H9o2tsx7R1pUZwT7EbJsStVOelVY0zICbCJtsVhEmDjrtr0AHGQ6jjwpnGNwwbIH0vI7gFxafjIAn7SuGxBQ0OPCgxM6bwIV5+kQMZ7IWnYLI1+WthrLL3SENS0jwG86AIul2Jk46+axnVvHlpK/q5L9u9+cso/baUs5b3z0mnYjF4ACIdPd+SlQ0d+7Hxec2TQ9uaKxAI5caRog8nLa1labeFFCaCeIpoOL9O3C+GTljEUHGRlhPQSBcPQcAPNNxzFiyFADnrxtZwF8xhQe26+3pXoCq/T2G+1yVb65W6uu1MNzN0rHZBNpi2UIakO37s2+zJGa+VBiOpQZh4EwCcDeAPZKpzHGV5IGoID+9g8cACVpBMMxANF2ACkASSJ8CI33mbCOCGsBet3Rzhvt8cZ2sScniaJpMnmft7BW16AwLnIyF3bG01ge6RbR6ivLXMxlQPD7nc8AWGw6jr5kR5jz/wEg07GMFFIG6vWnLC0BOkWdTdhUX4JBKk9bEvD7M1OY+GAm7A/G/gQcgGxt+kQAFek04CtJZ/cQnB0bM2mnGwSgOhztYmADwB8B6h8Av8ZErxLhheSKea96sZllE2mLpQ+Vpy0JqJLMp4j4JNI4kQlTHGQmQwMAZfPA/C5BVT1/DmLesVZ2442hSCEYjq4H0zsgvZZBa8H0TyK9lhx+l5zu99seu3FTXhGYoqgdO3aggAsnzrrthvUPXvOxqRhqzlo0WWf0fiJiRpwDmICYyMRGr2Cm81BIiXQo4gfpuwCqMR1KHjjk+J+SFq2u2nY8a5K07eQMp0f3IJY5kdKqRNU0BToZTFMZmEJIH9qb5Y403e3pG9kXoH0BnppdiwEGqsOxDZpijynoFUrrBzbEF7zlxlOxibRlj6Yq1FRFyjebWJ8BqNOA9JEAFLhnppoZJoJ4IkDTCej5RCGwj8C+cgTD0S0A1jNIE1jkGIscfVliVePIG19CET8DU1wMyRgMlHV3p68AcJOpGHSaPyW1p0hQ4ol07YzYoQ5QzAkfAIQDZy6tNHHU3B/VCPw3A6eajiNPXtoQv26zuKr8JsAbm+I3tAlres74mYurSzhTx0znURvOQ3ZTCQCLfJwxUEvMn2PQ5xzyIRiOvgPgYRA/7NMl94/0tWUTacseR3DGj/YjX8nnGfxZADPAXJLdGi6auoOxAA4muXg7E2N9eXXJ16jKYzWj6EYnDwQRX4M5y24x1gykIFcmQxnxQSzax9OLuPqglxLKdJ0F4HemAwmGop9mwr+ajiNfiM2UO2RtO0Vfj6OmrKMq1FRFRP9CrC6Fdk4BSBXQO/tgAFeD6WqHMluC4egyMP0kGa8f1u/fJtKWPYPZsbJgl/4sgS5nxqcZbF/7ufM07q/vymcBh2ma4IdnGkCJxxoHBNo+PDsF3OexTv8wS5U9vJtoWfCBkFYfRkcZEBPOg+FEeq+ZzRMzGrdjNLh0kaGJhsKvR+Zi949mqqqLnk5MVxHwRQAVRdBnPxbAFSC+IhiOvkiMn2h/+a9zOVEq/jeWxTIIVXWLDwiGmpuCnfwhmJYx41zYG8hhkv/FSxFJWW1tA7BIQkgRrpHQ2Y0pS0sgVSZDeFxEZxcYxTiIZXcIfC5CEXOfN5GIymj6DbKN0UUPKb/4Tq0J20424NvuClOWllSHYl8JhmOvKqaVBFwGoMJ0WCPgWCYsJqfzH4Fw9F/3nb5w0OdgE2nLqCQwY9EnA+HorxQ7b4JoPoCA6ZiKFQI9lu8aWq7G8Cn2IQog47UQM86pnLFI3Be7umrb8ZC6OGn5C3rP9MhjpHU9IhhAwNjuenBl1XcAzDSl7zKJthXXvSktmunu/JSw5JZ2Tr4srJkfcyKlwbrmrwUndL7OxLcD+ITpkFwiQMBNW8t9bwTDsSsxZ1m/vvY2kbaMKirPbDo4GI7+jnz6hZ67Ya+P+Ec9PpWfa8P40C01BD7ErXgGg4AnUw83vAvGvQJyyq/01QI6O6OV2G4tGXDs6EqXTcUoOjVS2fIOcarrFtUB9G2PZRIer9+X1UZ8+JV0mRGvRjzi+UaAK0QiKhiOXRlsC7wJpp+g+AduDcS+AP880PbRwz2j4nfCJtKWUcHEWTePDdZFIz5HvQzgAoyCTqWCgPDmxyvmr89nCb8qnQ6p/4+eI1HlkynvYMJVB4ZuL5fQ2q4JLXJhJ6ArUa6el9Dqiw8svQPoKWxgyuHEWbftxazvgLeTIdME/MjD9XeCyEzdMLNYWVpWz4BLzkioCUenBFcGHgf458j6PI96CBzijH4+ULdodt+v20TaUvQEQ9FPp9Olb4DxHQCiSc1ox5WmF8lR1j61GgDaVjS0ApCYxlezEZsuENDpg8wOGQPP5NtkOhI0INVImUb/I5Tc5oja0MJDBXSyRCIqne6+A8BuO2duQqAbNEhu59RAmVFPfbusbSfrgm40rDxtSSAYbo5qYDXk3qsFQ9ZCT/+1uq75h4hEFDCKjs/wLNcijfkAzgJQbTocywAwukH4b5xCd+a71IGh28s3qY0RZnwT9qbQEwicd300mKcL7UevbXto3rodsrSEiH/stSiRvgbAb7zWAbI7jel0t8zxqaEdQJKa2Ag82/N5dLrXQg6p8wA0ea0DANXxwL8zYZbHMssSrfWxYCh6j9B7W3MFxAeU9Nh2jhWU5LSjxO0mcyUQjp5D6L4doL1Mx2IYYqYbq1cFjnZCTZeNjkR6De+HNB5BdpSkpZDJfugG812mOrToiA7qWA6m0dKUVJCwo/JLpuYs81Hbhye5FM7g7NLpXjG+7I7OzZ3fhwuvtyGET62pazqxraXxWW91ehqfSOie0cAOYGVd7BAwTxQRY34ChHcB8jyR7ply6HkiHQzFpjHxdzyWeQPl9DUAAAntSBJeTt5f3yGi1QfWSmoTIKsHenvzI/Ub5BRzZE6kNNgW+CGA+QDZsskemHGuInV38e/iPcrjexqLbBJdHDyCf+K2fBYIhBedyqQfwejp7C9UOlJ1iby6x6vaPjoGEBrEskvit+7euVsB/FJEmkmo6VBJHqWKJ9JKy5UBAXhSM/8BApOYiDBj/MzFnp6UVp62JADiu+Btg/UWwPlC8v76jqq6xQfA4/KR7TDMlDso0dcj3LAadZvKGYsOCrYFVgJohO092pX1Clxf3In0MvahBL8BcJzpUCw50Y4MLsOFNOK6xOpQ7CsE3YLiHx9cDDyOSETnswARG3WYcIiWAMjrOeSofkngzKWV3suI+SuvS8br3xfS2oHg64X99ER7vHEtgBcE5Hx+1h6WWzCpkvTt8HhDicDXJlsXvAwApB25JjxTvsos7Wcu75IzGMFw89k+n34BcuVWxUQbFNW1tc5/vbgT6QPQDJixFrKMAMY1OJX+OdIfD4RiN/Z4VJa6GJVlQPKvkSWhRsOBHCY2ttS/DeB+gRDGKd15uacKc5b5WKzxKX/v8BGpyl2w16Uebni3R/UPEoLE2rNrVbAu9g0CzvdqfQBg4NZE6/xf9f6bBHdrSedZYjYCxoduqeHsCGkx8i6lc5HqUPTLAN0LYLzpWAqQDsVqdnJF/StAMTdoreZGANebDsOSI4yfYhrdNdIfr66LziPiH7oZkmVwXGk0FJpQN7jDBMtY4QHXAOzZ0WfV+o+OhVSZjIGdsZ7pYccKyW1PWNiRSaQBOqdnKqWrVM9sPgmM/3F73V1Ykyqnb+z0FTk3nvZEKPGGkNZ2RG07s2xtV8mXBPUGJLtphdth5zD0x1ZNfF5bfN7TvV8ozkR6NX8GwM2mw7DkzFvYhgUj/eFgOHo1M6JuBuQy3QC2mg7CZRzq7syrS37C2QuDAA5zKZ6hGDDxS7Y2PAjgNc8jYBxZE2o+w6vlyafljpmVvAXX5gp1EqQu3H1KBVKr5r0EQCJRq6yp6jzNzQWrQk1VrOlueHtKl3QcdfFON6qzY2UEHO+hZl+ezLfEbEQI2nYCAAFPmR/EwhQMN/+4Z9PK1kPvAgFdIPp8e8v8VX2/XnyJ9BN8IoC74a3RvMU9uqBwIcK0eSQ/HAw3XwDgNph/U28CsAKMW5jpUnbUscqv9ikfVz422dpQlmxtGJusSZWVlJROVOAjAFwExi0ErASwzXDsI+Gltsdu3JTPAr5u3zSIDWIZbAeVmAhLJMLQpK7xbnWxCWvdE5yq54S0tkNyY+TBvMsROuPPErpau1uKqIh+Dm+nyWkmdenGVfP+0feLwS6ewkCZh7o7YFP10XL1+lk9Qw2VfQjWLboZoLmm4yhQHCa+LNlS/+Cu3ygu+7vVXA3gL4Cor6MlHwiNOIlGdFEOzowdBc23w9wN3ysE/IUUHmhrL38Uz8xND/ro5ZHu9cDHyP55HcAyIOt3vZE66gi4EsDnIHETyHiIfXwDaUwC0WRo7A+ifQDeB1k7uJKeP72lApXY+ffckm8IxDxdzCkp4wx6saWuzl9yafn3AEzwOJIvVNct3CfRsuADtxcmwjTv/SUAAM+tjV/RKaLUF6LpYJEnmB7bmX421fcrCn8A4wYB7fOBkZ/O9aW6LjqPGV9wY60BIfx3qmXe7j0Gkru1yoCfuaRtZy+mGip7CISj3wfzN4Z+5B4JA3R1sqVheX/fLK5E2odaOHgXMjt8FZCbkrdrEjMaeAOMb+EU+v1Ifjg4OzYBnXwPzDQ6rIDim5Ir5j/kxmI9Scl9AO4LhKLHKMJiBjwrAQAAEM4iTQuSrQ1f8VRn0BjEdhjXJVd9473BHtD22I2bAuHoHQRc53Esfmb/VwH8l5uLjp+5uBrakZmOx2YsuIj5ZBEhxvPvP7Fgp2tIckbqyeDKwIcAJnmsfnD1jKYjE6saX81nkcDM5mNZ4ya3ghqAFcnqSf/d/7domoBrIACw0+1/SkKoL1UbPvgkSAn1I2RR7Dc2iKU6FP02A/9uSr/AYSa6LtVS/4uBHlBcifRUeg3WhmXkLGMfJnm+IwdUQGMqbcxrjU7+BYBPuBNQzqwmxfMSK+Z79sGdijf8HZFIXTBe9V0Q/T+vdHr4crAuujLZ0nC7xzq7E4korITUIJbHc3mY30HU8eFaeF5uwnMxZekPhjzBGAZ+JzMdJDYIQXxnrCrUdCCkPImpnxuFSEQj3PxniWNt7VPnARhxIl0bunWcozPLkN3s8Qh6rzuDL2H5hQNZlQpdh+mVjY9emxr6cS6rKiV1+tPLOxvi130kqthDdSj2FSb+ngntEbINQAZCm2wMujHVUj/o7IviSqQt+ZH1bxb/UBougXDsMwBfICjJYHw3WTvpe4NcONwjEtFJ4D+C4WgKwI881WI0V9ctfNCLUoPBCLRUHw2f9t5XGQB0bg4TG1Y1vBkMRR8G4SyPI5pcXdl5bgJwzQ2CIDRBDll/ZSmtXkj5pMo6wDzg8/sDAM8Tacpatv7vSH9eU+bH8HaTIc2gL21+ZF6/E/Zqzlo0WWf0fh7q98GMr7KUbed2PQM3rwBQHW4+BeAfm9AeBAfASyA8zcAzStNbRPq98k797k4nSXOW+SZ0vF9JDlX5tO9QYj2VmaaCMA1unSwxfy8VbxjS2MIm0pbCYk6klBLcJLUbQEAXgy9JxuePqAQlH5KtDQuDddHpYHzRQ5kJmn03Aqj3UGM3yO9M89AJbieYfDlfhFjRImL2OpEGa1wDFxNpEEk1Pn24w19ZDmI9TaovlaH7fb0kOypaghM6UwACHocwfXzolppN8RvahvuDwXD0agYu8SKoXoh4QbJl3oDWlzrNnxJr/TbVaChk27kdA/XRNac3TdKgeyDVNDoI2esw/sLMf8wg80BO743lFzodQBLZP+8A6GkCZKquW3SSZv4cAV/ASG86CdFk6/z/yOWho60u11LkBNoC88EylmkEdGnQBclW+SS6F631N5G1z/MMAr42cdZte3mpsRsslvilx3amn831wakZyb8i+6HrLYQza8LN7uwaRiIKECqTMTWiWO71sr5nmuHuPDM3TTLDe3yl5D9nuD8UCEWPAdDkQTx9oLsTLfMXD/oQybHZ5MgPYsmOcpey7QRgYODM7FiZ9qt7IFVONTD/BFFjN6f3TbY2fDEVn//rkdxg7gxxoqV+Taq14VvJ1oYjlEIdgN8jWw6SK79IttQ35vpgm0hbCoaaU28aT8C35RT56lRr/V/l9HanPd64lr2/eJd3Z7q97e7fFRK72D63a+PYoEQiGoRB691cgrRL9baBluqj4b3bSBaSL+s4MHR7OQjHiYjx4PX0zDLDWZhoWDZ4E2fdPJYUlgEY41FIAPAGynH1kI9iLfXe7kie0ZFXU+ZI8GstZ9uZZVtbbeJFQT0Eu/gmGO03o/fA+Fqyo/ywZEt9c/7J88C0rWhoTbY2fFGzPoyA2wgYYHDXdpYlayZdDVDO5+I2kbYUDFxSfjmkEgZwrO+4W5ModrEEYADI2/KRnagKNVWBpRpFh19DqbX+GYAtHgSzK1dMnHVz3ladkoNYWMsfMW+kzVPg7UCR7fAQR+g++B6AhCsU49OYHcv5SD2dLr0VjCM9jGgL4HwheX99x6CPmrK0BKATPYyjL0YGsZDcjUIWxtNYHvH0VLIvNTOjYTDmSentQpqA/y0p6ToyGW/4mZsN2UPRHm9cm2htuJaZDiXGvQM87K/JjvJLh9srZRNpS4HAxIRrRaQIb5aPqygYq5+MVquGflR+EHBazwhmz1FQ0yD02cKkhp34tccb2wG604t4dqEq3V1ysQvrSF3Y0xXjy3Muk3ELIsmJjYPvuG+IX7eZGA8LRDIu2JWbBWZ1KPYVAF/2MhgiXJNsXfDykLFUbTsenrqF9MVMo6GgbWePntzzDM6OTdAapmYzvK5Zn5xobbhx/YPflNjI6JdkvP79RLzhs0S4HMB2dzFmtI7pdOaMJLm3ibSlIKgOx+oAHCUixvzv6+6dWzAjvTeuun4thle/NWwYKOssIxnnB8EaSp2hEV6EMlFIGOESXZ//GkK/T8bzRt4Xcg4J6YoxZc8M9SBW3p8QAQDnMOWwdkb0MCaOeRoH0+JES8MdOT1YK7nTkWE0EbuGaD9CFsLwNwNGTCc3AThATK8HAn7jY//U9njj89LaA5FoabiDfTiWQXEAq33pzvOHVSbYB5tIWwoC7fGOSx/+nmxtuEdIK0eIkR1B7imalMyRLEt1vPPHu44uzpVk64KXCfD8JADA8dV1sREPGpEskxmq7MFDhBJpfiGXG4U0+f4Mj29sAYCIP4tBrG0ODN1e7viwDN765a5JVeQ+0ZEhVvbATklafEBJTz+CjG1nL5QReZ7BcPPZyE7XFYb/K9Faf9mG+HWb5bUHJ/Vww7upM5Izfew/s+2xG0d8DbaJtMU8kYgi8NkSUgT66XCaCATxfuw9s4D3KxOEdnSYVE6DWAb8efAit2IZXEdfM9KfVUSnQOpz2kCjYeDM6P4A9pHQYs5t52/TiusTDHrU63gA7B+YGf3kQN/soE0xAMd7qJ/UrC/C/fVDNV/1Qazs4fWOvy1ICmltR7IfoYd/inj8z1nmA+gWz3V2hplwTbJ1/ncK9JqbJRLR+Sb5NpG2GKdmZeAEgCTs2Zxu7paojR0WgTOXVkKg2YqIar3WCM5cdCS89+HNkmdjXLJm8h8B/NOlaAaG6aIeS63hI+cfnUeZzMghR9JKLXdrP+WmB/hgOk7/7h3BcPRCgL/mobQY/sJlAAAgAElEQVQG45IBrQD7ocdC8yDvQtoJMzaM0k4WJPM8g4l1VwI4RkKrl+xEwIZCG/biCTaRthiHiWYLCa3x0mZnpJDuPFpChz32qwYAOIIOE/mWIiy/0CHwT1wKZzAqSti5YkQ/yVI7gCMvk8kTuXp6X/+DWPqDGfdAoIaeafc66drQwkMB/NRbYfxXMt7wwHB+JNPd+SmvwukHQ42Gwom0gEvOxFk3jwVTxGudnWBuTrXWDzkRcLRgE2mLeZjPFJFR3CKhM1wYOFZIx/tGMiV29JspYd+QjWND0c2ZnwDodCGeQSHG13samYYBE8Ajrq8enlJ+ZTJ5IFdP/3BjzoN4kvH69wHO+/WVAyfVhm7de/u/ZsfKMuS/G97agK5I1k763rB/Su69DXaEB5RA2rYzCw3hIuMG6XTZNyA6eIUfS6L9m3J65rGJtMU4UokkQEPaO5mAmEISOgr0huciQhPqGPSiG80rPScUd7sQ0qAwcEhwZdWwRpNXz2g+AkVSJjMiZsfKCDhBQoox/ISFZMo7lIP0Z3r/EdiGWwjsYVMwvZfm9MXD9ckFIHg6gk2piRNfEdLajqRtJ5CdrJsowwteatScetN4gBd4qbELCbC6GPGI5826hYR/0O+u4TPAuAjAQeAhHmvZcyB0gXAHTqa8E5Ca05smaaFkQQFvS+gMi0hE0UquE+nEIPq7l8sHZ8cmoJO9HBqxHeWix6x2KKp87LlrDIOuAfC3nB/v802XcOgDAFZafAcw2O2cyFA5DyXJCx7Bzp/Df4CP/seDaHaiZ8rhzwN1sfOI+ToPpdIM+tKIytvmLPNx24dTPIipP9aMKNHPF4VpQm83AAADzwyv0XP46NKyqyDqQkL/mj3N2bMYODlezT8E48bt/5YcmGkpfBjHwYWdPKfUdyhpmU+vDJAQERoG1SsDYQY8bwIEsK1iW9rbZKlbnwKQkMOEezuo7avqnwuGYk+A2NPddALOrQo1HTiMBi+xMpkyf1qijGFntGCpwAheL4lVja8Gw9HXABzhQUjbIWBWdWjREcz6l/DwSkuMxmR83mMj+dmq9R8dCx/GuR1Tv3DuTaHu6kqVGfXgtUvOnGU+tH2Yv4997jyabJ13O1AvKFkY9H/Re5KvBvok0RbLrjDiLq1T5co6OVCqfcamKQ0EA5cJST0yUrP5nBEc1qAy7pYiMPFiN9cbAB8pdVXOjyYWSTQZ9KKZSWNKZkAQkCkr6Xp6JD9IjD+6HUw/VDA5KwEEPVMg3JWIN9w64h/3yzXhMSDuHy1p27kdj8upghs++jyAg73U6ANrh+oL2ubOQ3ZPpJ/i2SCM+A1n2WPIbRLWUGhPm2p2oltrodG2udHTZHSRkFzOJQUjhsWGNSQ2rKp/y80FUx3lywF47ueqGFdjdmzIcoaaU28aDxaa9AlDO4CAiAtEXjcKikRs8Dy2/3wDZTQ3rxXY29OavkoZZMTr9UVtO3fg7fMkbvR0/Z3gP7Svqn9OTq+w2DmRfoqPgcZvMVTttGXPhrAO72KFG0spsNhrzV/i1Ehp5YJD6X8HUC6k5nEizQQiEYcJIjzh+s7HM3PTIPzM1TX7gYHawDb+/JCPKy0/GYDP63iyYu7Vm+dKzVmLJgMSA4KAfG4UEi3zngLoPTejEWYL4HwheX99Rz6LkJwt3JtGLEoFbTuz0Hte1hJXhxYdAaEbVQDMCt8V0ipIdiTSj/JkaNwH6fGYluKD8WtcSK40gzCx2NhQ1mrAKWLSBGYs+iSyzWcSPJlsXeCpY0l1aPEnAIxs6Mhw8ehIVKX1Ugh4bRNh6P93yUEsSt5qTKdZzpM4rxsFYgb/2b1gZCHCNfm+98fPXFwNxqFuxTQYDPmhQABErf168PR5Mjlf8nL9XViRWjH/RUG9giObSD/NY1CCPwIQ2iGwFDUOfu3aWgp57ZQMDz5HTmtgakO3jiOfvgNAiYQeMwnU/8rU8wJwtdGwL22PNH4I8O+9WHsXZmRvpAaGWez32baxZV7O/squoQQHseR5oyA15dBtmGlxoqUh7xI8v5OZDim7AY/e20MiZNvZR9Dj50kXe7t+X3iPmF44GArMCg7uhHShvaU4ITyLT9FLrq2n9TrX1hqa8yvPbJJqvuifKUtLNDJ3AjhOSPGjVG1yudciTGL10ZrL6SnPVle8yLO1+8r49NcH/i4TAJFGPGIPymRyQa6ePu8bhQSnVgIouImoQ7AmVYEbXFlJchCLduRtGGfHJgAytp3b8dBusroudjKAw71afxc+SnZUFO2JjVsorMHNAM43HYilSNBodnO5ZE3HmwCkzNv9yvE1CWntzuxYWWBC5/L+xgJ7yBIsj3g/GhxiOzp/z7feczCSKxqfAMO7RL0HBi7PXsB3p3ZG7FAAMvX8BPlGwylLSwDycOjIDly5UYhHMgy6z6WQJEhq1he55VFMLHZ6sKUdGz31uu+Xbn0KhAexTHCqPGvMY63FyjoY+D2emZuW0itU/ADOQNb1f9ejmy0QqBfMkQ4A8gbt/ZMyHUAPGoyNYmqE9QB+h2nkrh3U8kg3wtG34LFXay8E/mww3NyYbJ0vmlAHZ/xoP3Ty7wCINOT18KGP/Z4/z5pTbxqvgaO91unB86NfAi1h8O0ey4zjTn0pgCW7fkP7eLrYSbqSP0qvruw6gRkyDjou3Sgodv7ApC53Yy2P0WBcMgyv8sGJRBRWypxWM2ONkYl4WokNPgIABp5bG7+i0zMBRZ+Rejo+1r+TUSps/DiFppoOwrKnww8CJJJIZ6FbquuimURLg8AxPlMwFPsqCDcDcp7ZAEDgf3NjjPZQiDpMCNRQJirw22An3+SxJRkIdB3At+2+Y0pS/soOOX7Pd993hTVPlxrw5daNQkUX/21rObYAGOvGep7B+K9kvOEBt5YLtFQfDZ+WsSg1Vh+tp4EEJ8556JITODO6Pxwc5tX6fSFgQ1vtPo9IaBU6YscZFsuAUP6jxoeJYkYsUBf7Q1Wo6UAvBPadvrAiGI5eHayLvQzCTyGcRAO4L9E6/1ciSnJHv6CM9v5ie399F4N+7rkOcFRg5qLTdvsqiU1Ye0niRms35BoNXbtReP+JBdvAeNCNtTxkRbJ20vfcXJB8crZwPs8b8PpDzrazD549T3LoTK/W3hUGtRgZ5V6A2ETaYpxkS/0TBLwtrUvMn1OkXg+Goz8LhmLTepq8Rkw2eW4+OxhqbtpW7vsngKVgyDaxZPlIZXTuE/TyRS4xak/UbXxdQkiRcysAz2v/SOudrPAmn7d0DDNEbBqJTe0Air1eXL1RIFXI7h30XprTF3uQ2IjdJCslP9FQ1LazB/Z7NxqcwDO9WntXmDgupVXo2MErlgKAGBT9LhgyO6g7UwrgqyD+ajAc+wiIrSTC35n1q4B+zcdlCVW6ddP2yWhzIqUTOiaMK+tCUKuS/bXmw4j4cADHbQVOBVAOkqy42420Bl2cfKTxQxk5JnBMqhThSUQiWkIo0bLgg2A4+mcAF3irRBfsNbN54scr5q8HgK2bu05SUp/LJD/RcK+ZzRMzGgdKaBHcbaR0tL5XkepG9jOjkEgz6EueDDIhTJP4MCPg7d73gCyCtp1Z1qUebnjXm6WZGLGwN2vvjo+5VUqr0LGJtKUgSFRPujPY9tGNAEs1rfXH3gBfxIyLss1ePjiUgZMuRTAcZQAZtGW9nx0CwFq0tC4HmMBXtbc2rJQSrJ0RO9QBakXEhHdQNWiRAnucSKPUcegqAP8DAEQ8XeoujJRffEfaYZIbxOJyqUB7vLE9GI6uAiB2fJ4LxGhMxuc95va6VaGmKjA+4fa6/WLCPQYAk9jo8148e56VZzYfBEdN8mr9XUi1tTa8AcwXkitsbGmHpTBYfqED4qshZ4U3XAhCA1RGCIPRKFYX3UPWYUIIkq2hbG+tXwnA84ldTDQXc5ZlmzXlyh4SbSuue1NIaweC9fTKcf8IncEFVt5BdyfiDbd6sbKCmgapHMGjaaU5ILsj7WFDpV8rqdkEYMbzRvznCxSbSFsKhmRLw+PEiJiOowjRIJ6bjDdE5aXFhjWwky5dI6TVF0+SlJ3h/Wra1n0GAEhoEAuAJ01cCJnFGikTG1bVv+X2oj6/748wWrm1E6+jHFd7trrg9Eky4NhRc+pN4yFn2wkAYA9vGFjjWK/W3hUCvyClVQzYRNpSUCRCqR8wuexVPbpJM9GlyZb5PzWiTmIX21c3PnqtuId7+bjyXwNIeq2jQddUzlh0EIC9vdYCACKS3wGcsrQEhCkSUkTeTGxse2jeOgAmbuh2ZTMUfcHL4URgsZvkbW0d5Z6f/OyKqG1nlnTF+PJnPVudZJqUe5AfnFPA2ETaUlhEIjpVnbwIzPebDqUISEDxZ1It9b81IT5x1s1jpRwmIDCIpT/W3Tt3K4i8Hs4CAGf7lJYb+MHyjYY1EzqPBTBGRMzLnT8m4+UdRLg2uaL+Fe8UmACWsoV7ysh0PMEyox6959fdO3erd8uTWGkHEa2V0ioGbCJtKTyWR7pVie8qAPIet8XD85r11OSK+Q+ZCqArXTYVcg3L4tZYvTjKWQLAa7cQAuHfPNboRXM5yQ9ikWzsUsqzGwW/5nu8WjsXGFiUaGm4w0uN6hnNRwAIeKnRCxlwjwEAlvNrz+Lh8zwwdHs5gQ/2av3dYPWBmFYRYBNpS8FRU9d0os7oRwGMMx1LgXJ7+bjyU10bAzxCfGAxBwZ2vEuMhmLjw43vEOOvAlLlAhoA4WVPSwIGQq5UQHMZP+3V4htWNbwJwMPd4EFZk6pJ3eC1CPt8ckmmNjSIRa4foUdRefY8U/72yRDM5xTU+1JaxYC1v7MUFNXh5ss101JIJRXFxQcMmptqrZdI6oZEg6aRTN/VptTEiaYSFwAAK1oM5vNMxuAabMhqDGI7gH/3/EaB+R4QHeWpxu4kNeuLsDzSLaAl566CUvFEuse2s0ZSU2e860tQGTUZclas2shE1ALG7khbCoZgOPafDPolbBK9Kwzg5+wrP7pQkmgAILDUjs5q06Noky3zHgLwmskYXMOAQ8LEWbftBUDo6Nn7UgGlxG3wNBiXiJ1CkdigkrUb4td9JKS1HVHbTgAAf7xx1bx/eLU6ESZ7tXY/eFbnXazYRNpinjnLfMFw9OcAfxcQvK8uDlYo4KRka8NVqYfnbjQdTC+VZzYdDGCiiBibOPrdFWIiFrDC8x7S8mUyTrpLzkqNvTtC76WtpfFZAJ4lRrtD303GGx6QUKo59abxYAjttpupjxa07QQAMKnHvVyfQCJuPz10CWoVBba0Yzis4b3BuBzAwaA9IOHTWA8/YphK7o+e7SUU8Qfb1v0KoC95plGEEOE5DfXtVMu8gnQvURnfdCkbYi9rC4cDdXX9H5eWfw9ApelY8qA9EUq8gbisKDNNl/rEJNIyyRnhz2A0CCitSNbs/T8COgAALqk4BWARWziCmfe2YJlRFo8Hzmjw3oIJiYzzThFhE+lceZLDYNwDoApA4VjyewkBcHAwgEs9WX/K0pIgdf0G4DmerF98OAD/STEvamttjJsOZgjEBrFkuNuYY0df2h67cVMgHP0VAfNMx5IHTyIS8dqBZDc0idXTJ6VGF2umPyiwx4k0vZfm7otFS5sUpold35TQTU8fJs66eWw6jWMkNdnj50nMFSCxVLoCU5aWGLEsLFBsaUcuPM5BEO5GbxK9Z+FRXSNTYELnz20SDQBYC+bvafIdkmydf0FbvOCTaJCUlRnhrU3xG7w7ERkmfgeL4L0VnnewAT/uOct8BJ4qpCY2sbG9Zu9HCdjgoUQaxBdLv/6ZxeqjOxPBdvEJeU63/yTIbiJmyvzpZ7wUYCLJwTKoCXbXSuoVOjaRzgUfbgKwp75wPvZi0WA49iMCLnNxyW4CfgOg3cU1vaQNhJ9p4jOSrfUHJ+Pz/6O95fp/mg4qF/advrACkBlHy0zGbO/6I2t9Rsa8u/NGyf8+q9Z/dCzkrCzlbhSWX+gwcK9XyzN4frKlwdPa2n5UBW3h+BkhB5KdVUmJlnUw6MX1D35zi5caSnZCI6D1J0T1ChybSA/FU3wygCtNh2EQ1zuqg+HoAgCNLi6ZJtYXJVobLh3T6Uxm4BIi/AXANhc13OBFBn7AUKclaybtnWxp+Fp7y/xVUjtobrFljH8qgBIRMQMOE0PBrBebjmGEsNPtFx/EQn45KzUSvvFi9si9g3BXqnX+Ek/WHoTaGbFDIWULZ+gmWQs3Gko0VLJQTft2PUeqGbU4sDXSg9HKfmgsxZ58w0FY7+Zywbrop8D4oZtrgvmmRLzxjwDw/hMLtgG4E8Cdk89bOmbblq6ZxPrMni7tEyCUABLQxcDzAB4n1qu6HN9jmx+p9/IYWA4tZx3FmcJLpFPxhr8Gw7E3ABxuOpbhQa9sfPTalLis3Chmrf1lojcKlah8eBNtvMnNNTUrx699P3BzzZy1/YL10SAjvQ+Ctp1ZCsJ1yF2YEAYwKlyM3MAm0oMxBo0AjjcdhmFcS6THz1xcDa3vAtjFZJbeKx9f3u9FZ929c7cie/R6L5AtSegsKznaIX04AUcwcCAx9gZhEgETefjlO90EvMfAWgBrCXgbrF9VWr28YeKkd0x7H3sFMaYJOTBsaVfJl0SUhgUxEF0K4EemIxkeZi7oRDxdJDkjvCxtEbk2fkUnIDba3XtYzs2CVEZ8R7qyLnYImGVsO3vQHo6r74WhEkLNvL2cjdmxMtxfb63wYBPpgVnD+4Hxn6bDKABcK+0oZaeZgf3cWg8AGPqHPQnzkPTsVj/d82d3piwtqa7cspfWvoCPUMZMAQ1dTlDl1Ft7TXqTYp1wKvwfGxmzXAiQTA0lg55CPJKR0BoumvUvFKn/AjDWdCw5Y6DRMHvz7BwqIsbeTY7bYyCxHel3Ey0LPhBR6oPSYpsAvbRtbJn3DlDvqQgxfyz8vMYFtvHnU8BdoqoFik2kB0KjGSTWIFO4OHDlwy4Yik1j5kvcWKsPyYpxFb907az6mbnpBPAB4M5zHo1UhZoOBGSmaKkCPhJtjze2B8PNvwZorulYcoYc8R1Av5OZDhLy5SJTwz1GBz22cJ8UkjP13hatjybGExI9MKzoY2LZVhsi/BvAdxdbj48X7Lm1v0NBONF0CMZhrEEJnnVhIQJxFO5PLfxdrrvRFncgKLkLUQE2Gu6EUjEUj6N8R/KMjlfFVZVcYxdldGG/XgocUVs4MtNoKGbbuV0QIs9TgVztZcqR46rDUTedt4oWuyM9EFtxGMZgP6hhJn8OAnnpKlTlNTXRQSUorxukCWD4AKzHeNyPoylv0/VA3eJPg3FyvuvsCjN7Zj1l6R8SHNag2F8Qg1gGIrmi/pVAKBqnbONNoWNkEAvJNRq2J+o2vo5VQmqjEEepaWJ7ix5P+uuPfacvrNgqZNvZCymZ5+nozDuK5PdFGdQcDMVakvH698XFCwibSA9EmDIA/mE6jNEAsfakQIyVvwAb0UY5cs1I/9gQv85160W3UUSLGVwEibSBMplIRGElThJSM3KjMKoQuukhoCtRgecktPqyZYx/Kmk3G92HxCFHxm6yPd64NhiOJgBUS+j1IQDF91WetuQMI45AOVB52pKAb3zG8bKnyZZ2WDyldkb0MACzPFhat89oe8+DdS0DMTtWRsBxElIEmSPRfEnU7P0nZF1bChsDnr2BR6qOATBBRMzExMZRBgkNYmGmZ424PQjadvbw0ob4dZvF1NiNMswR6X7S50//reb0pklG9AegNrTw0EA4uthXkn4P2/TXvNSyibTFU7SfLoI3rzMVeHTSeA/WtQxAoJOmMlAmIlbo9dG9LL/QYcJS02EMAWfKnDXiqo7gBDkDExtHE5UzFh0EYG8RMUNNoYJlRlk94c0AAjwdQz6E+Enar56uCsfOMBYDAIQi/kCo+dxAOPpHh3yvE3AdgLEg8nSonk2kLZ7CrD/t1drK2XaEV2tbdofYEWw0LFzHjl3J6PTPUHhTNPvyesffFiSlRUlpqdeLkYmNownl03I3Pabe20K2nTuQfZ5k3rVmsgK3BsLRXwVn/MhVm9uhqArHjguGowuDFHifiO4l4HzsnN8eFayLfsorfVsjbfGMytOWBIC0dx9eTF8BUNANaaMKRVKNhp2JYPsLIkousCl+Q1swHL0LwBWmYxkAMxdYlnLsMDSxcXQhd5OcccQTaUnbzl5I+UWfZ3mnfmhruW8zYNS2lwi4DD7/xcG66O+V1kvbavd5xP3hZEw14diJGjgHwBcBHrqJlHElgMfdjSOLTaQtnqFKnWlg715jTLgyOLPpV8kVjabvxPcM5I5Gn8bySLeQlito1jFFqlATaROJSxWkRqib34kregSnla5LrvqGeG+LqG1nlkTbiuveBK4XE3z/iQXbguHYXwG+SEx0YErAuFiTujjY9mGCwtEHwHiCffpZ1dn997bHbtyU60KTz1s6Jr2xcx/28ZEadBzAxwOxT+nhlyJdVBu6db4Xdes2kbZ4B/MxHiuUQqvfB0LRC1Pxhkc91tqj6Tmq21dErAgbx9rjjc8Hw9HHAXh2fDhS2PF+RPGukPJPB2uZ0kFdPGVAhciBodvLO6hDpIkY5M2O4JCyxNPdH2MwKE8aGVTC+B0IhZBI96WagUtAuARaQZeWIxiObgTofQY2EDgDcAegHDD32v9OQHZnfZ/OzZ2V8AE7/v9G/P84zkH6IgA/z/sZ7YJNpC2eQWCJ0cCTiLAqGGp+gAh3dXPmvk3xG9oEdPcsfP7RX0OZJ8xYRFRwifSm1MSJr0iLZuvphRIXn/yNwmhiI22eQkCpiJixmx65wUAAQGRmXH35+LL7Ojd3poA851l4TyXAlTs+IQgAC3xkqK/CJtKWIqNKSIdANJuB2SVU4gTDzc8B9DITXlPA6yB+P8MqiW5/0tZSjhi5CXVUnBPqUpvKfx+c0PkBgH1Mx9KHNe7XJ+YA03ShPHpj8vTka1ghojUqIdLTxeZzGnBXOTB0e3kHOo4XFWUz5Ubr7p27NRhuXgTQf5rQL3iIpwdnxo5Krqh3dXPBJtIWzyBGBYuepgEAfABNBTCVuGd+MxN8YKAkjWA4ygDakXVZ6ARhCxjdBGxmIL39iAloB5iJOKWZNJg2kmIHjA4Q0gBvVowuZrVVgzt9Sm9NK7Szj9s7ujo6EI9kxJ+5lzBNkzmppPcSLQs+EBByn2fmphGO/QTg75oOZTtGLuhMoJjUIJbVdhBLnsj1PqTHbHOek7aPEd1xz6K5nIy5yGRKddTf7VsAs02HhUu26fAGN5e0ibTFOwg5NxQIQsgee2WPvnpyQ97p2zv+xdwzr317Vt77bYLu+ToB0KzgcwA4QJACQDi6lYAPGfwRgPUM+oCAtQS8rR31zth0+q33n1hQyJZpO5gdK0MnnyAjVtyNYyUlJT/OpLu/Jea3PQRMSnx3PxhuOgrwyZxGUXEM7ilwpBLp50x85hE700CCOzqEl72cojcUHX9bkAyGoz8BsMBUDAUN85cxO/ZtN4cC2UTa4hkMrDcdg0HGMHAIQIcAO0q/GAD5NLb6fDoYjr4F0AvE/AIDz2joJ9vjje3mQu6f4DacAEK5jFpx1kf3sv7Baz6uDkd/B+AS07EA4Ax3y9tDsk+qrAPQxdeYWkj0NBHLlCKZuukhkp1oyOZv7roz9MNSP18OoMZ0LAVITbBTn5sEfu/WgjaRtngGMz9LkjsBxYUCcDjAhzNhTvYLSgfD0dcIWAmmexJIxguiRIS0XMe7Ku5EGgCYaTGICyGRftNI4y2J7XCamdg4mhBsImZzNz2y1ncFMJV18yP1GwLhaAMBvzEdS0HC+CpcTKTtZEOLZ5B2VgKw9Yu5owAcxcA1TPxQkAIfBcPNP66e0XSk2bBkOt4J6JrgVD0noeUlyXj9k2AYn7THMOMcAEAmOSO8ZmJi4yhDLMlk5RPfqRXdce+BdGG4yKRaG+5koj+ajqMgITo7cGZ0f7eWs4m0xTOSq77xHtj20+dBNUBz2adeDoajf60JR6cYikPkYsvAc2vjV3RKaHkNES82HYOJnbHAmUsrARwhIlYAR+hFj9j0SXzY3nL9P4W0diBp25mlPRFKvCGsOSAKmesBWDvY3VHk4MuuLebWQhZLfzCp7wJi5kqjFQJwjgbWBMLRX40P3SJW91Zz1qLJAFy7cx8ULv6yjl4S5epuGO4RYO3ID2LRXadA6rpSpH7jBcOcSClIqInY3JAl6YmGTxaSi0yiZcEHzPg8gKKaFCvElYhEXPmssom0xVNSrfMeA/Ar03GMEhQBl5VQyXOBUPQ0CUGdcSR3dEZPYnR/fRcTfmYwgi3t2Ph3cVXNgjW38p7Eo4nqtqoTAJkmYiZj/1fCO9KF95pMxRseZeAK2DLLXTmwOh6sc2Mhm0hbPKekpPs6AC+YjmMUsS8RWoN1sfmeK8kd/UIr/+hJpAH4fGoJgLQJbWasMdKoKtdo2JGqnfSqkNaohEnJJZnKwE3y7FgZAUK2nT0UQKNhf6RaG+4E4SoA8sOZChQiPAef3ujGWjaRtnjO+ge/uQVM5wIomNqxUYAfzE3BULTBUxUS22E0U0PpIW0PzVsHwp+MiBu5oDMBOFlGCquNTGwcTQgOYqkYU/aMkNZ2gttwgrCfOzvdfuNNxgORbGm4nYALAGw1HYth3mGif0nMSE1NrJjvyv+XTaQtIiTj9e/7HJwLYFQ0kxUMhKZgOHqhJ2tPWVoC0ImerL0bxT2IZSA0eJEJXZ8BP+7qGc1HAAiKiBXozl9xwUKJNL+w7t658skbaemyjlc2PnptSlZzeCRaG/5Ejp4Kwp54mtPGTP+WLKejUi31v3Wzlt0m0hYRguHmsx0fHoZQTd4eBAFYstfM5oluL1xdte14ABVur9sfDPkJfBK0t8xfBQNlTUpBfBAL+5WclRoVhsVYsVJzetMkAAdIaDGbem/LlaVlKY7m18SqxldRRrd9QQkAAAq+SURBVNMYWIQ9o9TjHRA1+th/UCpef5ObEw17sYm0xVMmn7d0TDAc/QVAD0DK/WHPozqt1f+6vqoe5TWUUjBErfAIePvjFfPlHUNYbIIcZ4jsIJY8YL9P7r1Npk6bpCcaFs+pWvL++o5Ua0O9In0yIH/TLQAzKE6ELyTPSB2WbKlv3hC/brNXYjaRtnhGbWjhoZ2bO59AtmPY4iEE/lJ13UJXBw8w9KiuoZRiTJfzGwAJMUFjo5ilSgXwxqYV18v9Pkchgu9taJ8Wv0nO2nbyfqKiJP8886WtpfHZ5BmpTxHjKwC9bDoeF/iAQd/3OfhEqrU+nGhp+IOEHaFNpC2eEAw3n+2Qbw2AY03HsodQwqyudndJqR0dQzWUQrz/xIJtAP9CTNDAKOaaU28aD8ZRImLGdjhHEWJuPPzxxocb35HR2oGwbScAdCTP6CjOuuNIRCfiDf+XbJ33SRCdDeABFNXsB/4YwC+Y1DnJmkkHpFrrv71hVcObkhH4JcUsewaBUPRiZL2jS0zHskdB9HkA33FjqcrTlgSAtAbg+UWQif7mtYZpHMd3m8+nLxDRgn5MQqcvXFp2FAAR1xUCtUjojFoiEYWVCEDgvQ1Q3HuN3WGogwkslsBTgQ1iGRnEyRY8CODBmnDzJxi4gEHnA5iKwtt0fZFBfyHGvclQao3p3z2ZFLeMPgJ10a8T41YU3htvT4BVRu/T9kjjh6YDsVgsFkvxU3N60yRdQueC1VkATwVwkHAI7QCtBvRqBq3OKN/qQivtsom0xTV6kujbXF62nYEfEDALwAzYXe4h4C8mW+f/3nQUFovFYhl9TDh7YdCfUVOYaYpifJIZ+4GwDwH75Onb3QnCP8B4hxgvMfh5RXi+rbXhDYAKutTEJtIWVwjWNc8B028B+FxcNk3A7ERrwwoA2Hf6wootY/xTFevjGOpAgA8AY39kbZxct38rRgjUkGitj5mOw2KxWCx7FhNn3bZXt9O1t3LUXuzTBEYVNBSIKvs+jhhdTLxZMScc7U/4ONNWzCepNpG25E113aI6sL7P9SlSxFcnW+b/NNeHV562JKDK0+ORwQTy6fHQNAGECQCqoDEBisYTuBxMxEBVH6FK9JaisB4Hot5d7zHY8ZzKev4NAGORHTxRcLvjDPwg1drwLdNxWCwWi8WyJ2CbDS15UXN60yTNzm8BcjWJJuA3iWEk0QDQM1VKbLJUbejWcY7P2R+sj4bGsSB8GqApMHiDSswiA1QsFovFYrHYRNqSD5GI0ivp1wDt5eayDHpLdW+7xs01vaDH4P2Vnj/LAfxHMBTbFwrzwfx1ZHeuZSHaJK5psVgsFsseinVWsIyY6pWBGwGqc3tdBb6h7bEbizIhTMbr30+21N8ApiNgYmIUoUNc02KxWCyWPRSbSFtGRHDGj/Zj4D9cX5jxVKK1/s+urytMMl7/PvvKz4aQt24vxPyxpJ7FYrFYLHsyNpG2jAjy+78PwPV6XCZECt3qJldSD8/dyEw/kNSk0THm1WKxWCyWosAm0pZhUxNaNJUZl7i9LgEbUjWTRtmUO5acMueUjisvzjG1FovFYrEUITaRtgwbTfqb8MCZgoE/Y/mFjtvrmqRifLnYmFoAb6+7d+5WQT2LxWKxWPZobCJtGRZ7zWyeCOBzXqzNwD1erGuS7vatlUM/yi24VU7LYrFYLBaLTaQtwyLNdAWAUi/WznB6jRfrmoRLfPsJyj0kqGWxWCwWyx6PTaQtw4KAf/Fo6Y82xW9o82htY2jGGUJSjmZeIaRlsVgsFosFNpG2DIPa0K17g3GMR8u3e7SuQZgIfKmQ2N/a442j8HdosVgsFkvhYhNpS85klBOGV+OvCaPC8q4vgbpF5wI4VkKLiX4soWOxWCwWi2UHNpG25Awxwp4tzjgQkcioeT3Whm4dR8wxIbl/pqr3vk9Iy2KxWCwWSw+jJnGxCOBdWQcAVAQeCZ7q4fpyRCIqo5w7ABwoIUeghaPNNtBisVgslmLAJtKW3CE+3NP1NX/D0/UlCEX8gZWBXxKzJxaB/fBGoqPsNiEti8VisVgsfbCJtCUnxs9cXA2g2ksNAs4PhJqlmvNcZ6+ZzRODFHiAgMukNJnoBjwzNy2lZ7FYLBaLZQc2kbbkRCnrQyR0FNHPgnWxWRJa7sEUCDVfmtH0AoCZUqpE+Euqpf5eKT2LxWKxWCw7YxNpS06QdsZI6DBQBua/VNdF5wHsjUOIazAFQ9FPB8OxJ4joDgATBcXXdaXpSkE9i8VisVgsu1DgiYqlUKiZGQ1rjRZh2TUEfCvRWt8CUMHY41XWxQ5RGl8k4isBeFs33j+OUjirbUWDHQlusVgsFotBbCJtyYmqUNPxitRzhuRfIcadGvhTKpR6BZGIlpNmqqxbdLDSmAZgGhGfCeAIOf3dIfC3E63zv28yBovFYrFYLDaRtuRI5WlLAr6SdNJ0HAA2gfE8FJ4F8AI0PmQfr/N184a2vff5eLg2cONnLq4ugZ5ITHtrzZOI9F4gtQ8x783gTwB0JICx3jyVEUD4WbKl4Wumw7BYLBaLxWITacswCIZj7wK8n+k4BkED2Njz93YADKAbQGnP1yqR7QsoAyBS8+0yDyQ5dR7ikYzpQCwWi8VisQB+0wFYigl+CEAhN7gpAIGevwcGe2DxwS0+Lpljk2iLxWKxWAoH69phGQa8zHQEeya0PFmuztkQv26z6UgsFovFYrHswCbSlpxJtjY8CNDLpuPYk2Cmxckzkhfj/vou07FYLBaLxWLZGVsjbRkWwXDz2QA9YDqOPYDNxDQvEa//pelALBaLxWKx9I/PdACW4mLb2gfeHnPg7L1BmGo6ltEKg571Kd+sROu8FaZjsVgsFovFMjC2tMMybMZjQiMRTHlKj2a6GfT9VE1yetuK698wHYzFYrFYLJbBsaUdlhFReWbTwT5HPQJgsulYRgn3+RzM37Cq4U3TgVgsFovFYskNm0hbRkztjOhhjg8tAPY1HUsR8zoTfTPVUn+v6UAsFovFYrEMD5tIW/Kisi52iI/5PgCHm46lqCC8xBrfT9VOWj7caYwWi8VisVgKA5tIW/Km5tSbxnNZ+RJmXGo6liJgNbH+YSI+/08AselgLBaLxWKxjBybSFtcIxBqvpSI/hfAJNOxFBgJEH7NxL9IrZj/oulgLBaLxWKxuINNpC2uMnHWzWPT6bJvAPxNAONMx2OQrQw89P/bu39X2uM4juPP99cJOUh+DiSDumy6g0lRZFE2g9FiU/IX2Fn8BTbDvZNYb938yGJwduUknZJ8D0rC93zeBjeDyeD4uLwe03f69Ppuz+FTH4ONtN429aCKiIjI16OQlqpoGlttz1ntHDBveH/sPR+kBGy7+1b+Pvw5O1i6iz1IREREqkchLVXm1jq+NkGwWWAaaIu96B2VwHbNfL8Swu7V38WC7j2LiIh8Hwpp+Tgzv2raLs9H3cMUMAL8BHKRV73VNVAAPzKzwyxL9q53Fk5ijxIREZF4FNISTdfkSr5SqR0OwYfABnAGMf8B1hlpkgMl8KJhRTeODQpZlhwpmkVEROQ1hbR8On1j6/W3lHseLdddY96L0xOgO3F6AzSa0YzRgFMHtAB1QJ7nEL76d8zLt2PB8BSsDCE1rOzuKUZqnpSBs4SseNFxc8rv5YcY/ywiIiL/nyfZjN/lfTww6gAAAABJRU5ErkJggg==;perimeterSpacing=1;strokeWidth=1;imageBackground=#ffffff;" vertex="1" parent="oh1WVrc3EDfpSiOXZRZg-15">
          <mxGeometry x="8.71999999999997" y="11.879999999999995" width="68.56" height="16.24" as="geometry" />
        </mxCell>
        <mxCell id="oh1WVrc3EDfpSiOXZRZg-18" value="" style="group" vertex="1" connectable="0" parent="oh1WVrc3EDfpSiOXZRZg-1">
          <mxGeometry x="60.01571428571421" y="-650" width="30.158730158730158" height="30.15" as="geometry" />
        </mxCell>
        <mxCell id="oh1WVrc3EDfpSiOXZRZg-19" value="" style="group" vertex="1" connectable="0" parent="oh1WVrc3EDfpSiOXZRZg-18">
          <mxGeometry width="30.158730158730158" height="30.15" as="geometry" />
        </mxCell>
        <mxCell id="oh1WVrc3EDfpSiOXZRZg-20" value="" style="whiteSpace=wrap;html=1;aspect=fixed;fillColor=#001135;strokeColor=none;connectable=1;allowArrows=1;fontFamily=Manrope;fontSource=https%3A%2F%2Ffonts.googleapis.com%2Fcss%3Ffamily%3DManrope;" vertex="1" parent="oh1WVrc3EDfpSiOXZRZg-19">
          <mxGeometry width="30.148963159878864" height="30.148963159878864" as="geometry" />
        </mxCell>
        <mxCell id="oh1WVrc3EDfpSiOXZRZg-21" value="" style="endArrow=open;html=1;edgeStyle=orthogonalEdgeStyle;rounded=0;endFill=0;startSize=6;endSize=2;strokeColor=#FFFFFF;fontFamily=Manrope;fontSource=https%3A%2F%2Ffonts.googleapis.com%2Fcss%3Ffamily%3DManrope;" edge="1" parent="oh1WVrc3EDfpSiOXZRZg-19">
          <mxGeometry y="13.774714454509649" width="50.26455026455025" height="50.25" as="geometry">
            <mxPoint x="3.0158730158730167" y="25.83471445450964" as="sourcePoint" />
            <mxPoint x="11.05820105820106" y="16.789714454509646" as="targetPoint" />
            <Array as="points">
              <mxPoint x="11.05820105820106" y="25.83471445450964" />
            </Array>
          </mxGeometry>
        </mxCell>
        <mxCell id="oh1WVrc3EDfpSiOXZRZg-22" value="" style="endArrow=open;html=1;edgeStyle=orthogonalEdgeStyle;rounded=0;endFill=0;startSize=6;endSize=2;strokeColor=#FFFFFF;fontFamily=Manrope;fontSource=https%3A%2F%2Ffonts.googleapis.com%2Fcss%3Ffamily%3DManrope;" edge="1" parent="oh1WVrc3EDfpSiOXZRZg-19">
          <mxGeometry y="-14.724694761717211" width="50.26455026455025" height="50.25" as="geometry">
            <mxPoint x="11.05820105820106" y="12.410305238282787" as="sourcePoint" />
            <mxPoint x="3.0158730158730167" y="4.370305238282789" as="targetPoint" />
            <Array as="points">
              <mxPoint x="11.05820105820106" y="4.370305238282789" />
            </Array>
          </mxGeometry>
        </mxCell>
        <mxCell id="oh1WVrc3EDfpSiOXZRZg-23" value="" style="endArrow=open;html=1;edgeStyle=orthogonalEdgeStyle;rounded=0;endFill=0;startSize=6;endSize=2;strokeColor=#FFFFFF;fontFamily=Manrope;fontSource=https%3A%2F%2Ffonts.googleapis.com%2Fcss%3Ffamily%3DManrope;" edge="1" parent="oh1WVrc3EDfpSiOXZRZg-19">
          <mxGeometry y="13.774714454509649" width="50.26455026455025" height="50.25" as="geometry">
            <mxPoint x="18.0952380952381" y="16.789714454509646" as="sourcePoint" />
            <mxPoint x="27.142857142857135" y="25.83471445450964" as="targetPoint" />
            <Array as="points">
              <mxPoint x="18.0952380952381" y="25.83471445450964" />
            </Array>
          </mxGeometry>
        </mxCell>
        <mxCell id="oh1WVrc3EDfpSiOXZRZg-24" value="" style="endArrow=open;html=1;edgeStyle=orthogonalEdgeStyle;rounded=0;endFill=0;startSize=6;endSize=2;strokeColor=#FFFFFF;fontFamily=Manrope;fontSource=https%3A%2F%2Ffonts.googleapis.com%2Fcss%3Ffamily%3DManrope;" edge="1" parent="oh1WVrc3EDfpSiOXZRZg-19">
          <mxGeometry y="-14.724694761717211" width="50.26455026455025" height="50.25" as="geometry">
            <mxPoint x="27.142857142857135" y="4.370305238282789" as="sourcePoint" />
            <mxPoint x="18.0952380952381" y="12.410305238282787" as="targetPoint" />
            <Array as="points">
              <mxPoint x="18.0952380952381" y="4.370305238282789" />
            </Array>
          </mxGeometry>
        </mxCell>
        <mxCell id="oh1WVrc3EDfpSiOXZRZg-25" value="" style="group" vertex="1" connectable="0" parent="oh1WVrc3EDfpSiOXZRZg-1">
          <mxGeometry x="60.00571428571422" y="-695.07" width="30.158730158730158" height="30.15" as="geometry" />
        </mxCell>
        <mxCell id="oh1WVrc3EDfpSiOXZRZg-26" value="" style="group" vertex="1" connectable="0" parent="oh1WVrc3EDfpSiOXZRZg-25">
          <mxGeometry width="30.158730158730158" height="30.15" as="geometry" />
        </mxCell>
        <mxCell id="oh1WVrc3EDfpSiOXZRZg-27" value="" style="whiteSpace=wrap;html=1;aspect=fixed;fillColor=#001135;strokeColor=none;connectable=1;allowArrows=1;fontFamily=Manrope;fontSource=https%3A%2F%2Ffonts.googleapis.com%2Fcss%3Ffamily%3DManrope;" vertex="1" parent="oh1WVrc3EDfpSiOXZRZg-26">
          <mxGeometry width="30.148963159878864" height="30.148963159878864" as="geometry" />
        </mxCell>
        <mxCell id="oh1WVrc3EDfpSiOXZRZg-28" value="" style="endArrow=open;html=1;edgeStyle=orthogonalEdgeStyle;rounded=0;endFill=0;startSize=6;endSize=2;strokeColor=#FFFFFF;fontFamily=Manrope;fontSource=https%3A%2F%2Ffonts.googleapis.com%2Fcss%3Ffamily%3DManrope;" edge="1" parent="oh1WVrc3EDfpSiOXZRZg-26">
          <mxGeometry y="13.774714454509649" width="50.26455026455025" height="50.25" as="geometry">
            <mxPoint x="3.0158730158730167" y="25.83471445450964" as="sourcePoint" />
            <mxPoint x="11.05820105820106" y="16.789714454509646" as="targetPoint" />
            <Array as="points">
              <mxPoint x="11.05820105820106" y="25.83471445450964" />
            </Array>
          </mxGeometry>
        </mxCell>
        <mxCell id="oh1WVrc3EDfpSiOXZRZg-29" value="" style="endArrow=open;html=1;edgeStyle=orthogonalEdgeStyle;rounded=0;endFill=0;startSize=6;endSize=2;strokeColor=#FFFFFF;fontFamily=Manrope;fontSource=https%3A%2F%2Ffonts.googleapis.com%2Fcss%3Ffamily%3DManrope;" edge="1" parent="oh1WVrc3EDfpSiOXZRZg-26">
          <mxGeometry y="-14.724694761717211" width="50.26455026455025" height="50.25" as="geometry">
            <mxPoint x="11.05820105820106" y="12.410305238282787" as="sourcePoint" />
            <mxPoint x="3.0158730158730167" y="4.370305238282789" as="targetPoint" />
            <Array as="points">
              <mxPoint x="11.05820105820106" y="4.370305238282789" />
            </Array>
          </mxGeometry>
        </mxCell>
        <mxCell id="oh1WVrc3EDfpSiOXZRZg-30" value="" style="endArrow=open;html=1;edgeStyle=orthogonalEdgeStyle;rounded=0;endFill=0;startSize=6;endSize=2;strokeColor=#FFFFFF;fontFamily=Manrope;fontSource=https%3A%2F%2Ffonts.googleapis.com%2Fcss%3Ffamily%3DManrope;" edge="1" parent="oh1WVrc3EDfpSiOXZRZg-26">
          <mxGeometry y="13.774714454509649" width="50.26455026455025" height="50.25" as="geometry">
            <mxPoint x="18.0952380952381" y="16.789714454509646" as="sourcePoint" />
            <mxPoint x="27.142857142857135" y="25.83471445450964" as="targetPoint" />
            <Array as="points">
              <mxPoint x="18.0952380952381" y="25.83471445450964" />
            </Array>
          </mxGeometry>
        </mxCell>
        <mxCell id="oh1WVrc3EDfpSiOXZRZg-31" value="" style="endArrow=open;html=1;edgeStyle=orthogonalEdgeStyle;rounded=0;endFill=0;startSize=6;endSize=2;strokeColor=#FFFFFF;fontFamily=Manrope;fontSource=https%3A%2F%2Ffonts.googleapis.com%2Fcss%3Ffamily%3DManrope;" edge="1" parent="oh1WVrc3EDfpSiOXZRZg-26">
          <mxGeometry y="-14.724694761717211" width="50.26455026455025" height="50.25" as="geometry">
            <mxPoint x="27.142857142857135" y="4.370305238282789" as="sourcePoint" />
            <mxPoint x="18.0952380952381" y="12.410305238282787" as="targetPoint" />
            <Array as="points">
              <mxPoint x="18.0952380952381" y="4.370305238282789" />
            </Array>
          </mxGeometry>
        </mxCell>
        <mxCell id="oh1WVrc3EDfpSiOXZRZg-35" value="gNMI Subscribe" style="text;html=1;strokeColor=none;fillColor=none;align=center;verticalAlign=middle;whiteSpace=wrap;rounded=0;" vertex="1" parent="oh1WVrc3EDfpSiOXZRZg-1">
          <mxGeometry x="140.02" y="-709.85" width="40" height="20" as="geometry" />
        </mxCell>
        <mxCell id="oh1WVrc3EDfpSiOXZRZg-36" style="edgeStyle=orthogonalEdgeStyle;rounded=0;orthogonalLoop=1;jettySize=auto;html=1;exitX=0.5;exitY=0;exitDx=0;exitDy=0;entryX=1;entryY=0.5;entryDx=0;entryDy=0;" edge="1" parent="oh1WVrc3EDfpSiOXZRZg-1" source="oh1WVrc3EDfpSiOXZRZg-16" target="oh1WVrc3EDfpSiOXZRZg-39">
          <mxGeometry relative="1" as="geometry">
            <mxPoint x="275.24" y="-775.77" as="targetPoint" />
          </mxGeometry>
        </mxCell>
        <mxCell id="oh1WVrc3EDfpSiOXZRZg-37" value="Periodically query the containers list&amp;nbsp;" style="text;html=1;strokeColor=none;fillColor=none;align=center;verticalAlign=middle;whiteSpace=wrap;rounded=0;" vertex="1" parent="oh1WVrc3EDfpSiOXZRZg-1">
          <mxGeometry x="290" y="-793" width="80" height="43" as="geometry" />
        </mxCell>
        <mxCell id="oh1WVrc3EDfpSiOXZRZg-39" value="&lt;font style=&quot;font-size: 12px&quot;&gt;Docker Daemon&lt;/font&gt;" style="rounded=1;whiteSpace=wrap;html=1;fontFamily=Manrope;fontSource=https%3A%2F%2Ffonts.googleapis.com%2Fcss%3Ffamily%3DManrope;labelBackgroundColor=none;fillColor=#dae8fc;strokeColor=#6c8ebf;" vertex="1" parent="oh1WVrc3EDfpSiOXZRZg-1">
          <mxGeometry x="20" y="-822.5" width="91.9" height="40" as="geometry" />
        </mxCell>
        <mxCell id="oh1WVrc3EDfpSiOXZRZg-32" style="edgeStyle=orthogonalEdgeStyle;rounded=0;orthogonalLoop=1;jettySize=auto;html=1;exitX=0;exitY=0.5;exitDx=0;exitDy=0;entryX=1;entryY=0.5;entryDx=0;entryDy=0;" edge="1" parent="oh1WVrc3EDfpSiOXZRZg-1" source="oh1WVrc3EDfpSiOXZRZg-16" target="oh1WVrc3EDfpSiOXZRZg-10">
          <mxGeometry relative="1" as="geometry">
            <Array as="points">
              <mxPoint x="130" y="-680" />
              <mxPoint x="130" y="-725" />
            </Array>
          </mxGeometry>
        </mxCell>
        <mxCell id="oh1WVrc3EDfpSiOXZRZg-33" style="edgeStyle=orthogonalEdgeStyle;rounded=0;orthogonalLoop=1;jettySize=auto;html=1;exitX=0;exitY=0.5;exitDx=0;exitDy=0;entryX=1;entryY=0.5;entryDx=0;entryDy=0;" edge="1" parent="oh1WVrc3EDfpSiOXZRZg-1" source="oh1WVrc3EDfpSiOXZRZg-16" target="oh1WVrc3EDfpSiOXZRZg-27">
          <mxGeometry relative="1" as="geometry" />
        </mxCell>
        <mxCell id="oh1WVrc3EDfpSiOXZRZg-34" style="edgeStyle=orthogonalEdgeStyle;rounded=0;orthogonalLoop=1;jettySize=auto;html=1;exitX=0;exitY=0.5;exitDx=0;exitDy=0;entryX=1;entryY=0.5;entryDx=0;entryDy=0;" edge="1" parent="oh1WVrc3EDfpSiOXZRZg-1" source="oh1WVrc3EDfpSiOXZRZg-16" target="oh1WVrc3EDfpSiOXZRZg-20">
          <mxGeometry relative="1" as="geometry">
            <Array as="points">
              <mxPoint x="130" y="-680" />
              <mxPoint x="130" y="-635" />
            </Array>
          </mxGeometry>
        </mxCell>
      </root>
    </mxGraphModel>
  </diagram>
</mxfile>
